<?xml version="1.0" encoding="utf-8"?>
<!-- Generator: Adobe Illustrator 25.1.0, SVG Export Plug-In . SVG Version: 6.00 Build 0)  -->
<svg version="1.1" id="Layer_1" xmlns="http://www.w3.org/2000/svg" xmlns:xlink="http://www.w3.org/1999/xlink" x="0px" y="0px"
	 viewBox="0 0 600 600" style="enable-background:new 0 0 600 600;" xml:space="preserve">
<style type="text/css">
	.st0{fill:#FFFFFF;}
</style>
<path class="st0" d="M527.2,306.7l-1.9,6.8c-2.3,8-5,15.8-7.7,23.3L500,321l-2.1,6.4c-9.3,27.7-21.5,53.8-36.3,77.3
	c-38.3,61.1-92.1,105.8-155.6,129c0,0-4.5,1.6-6.5,2.3c-2-0.7-6.5-2.3-6.5-2.3c-63.5-23.3-117.3-67.9-155.6-129.1
	c-14.7-23.4-27-49.5-36.3-77.3l-2.1-6.4l-5,4.5l-12.5,11.2c-2.7-7.5-5.4-15.1-7.8-23.2l-1.9-6.7l-5.2,4.7L22.6,351l0.9,2.7
	c10.4,33.5,27.6,67.8,40.2,90.6l2.6,4.9l18.1-16.3c0.7,1.2,1.3,2.5,2.1,3.7c45.6,72.6,109.8,125.6,185.9,153.5l27.1,9.9l27.1-9.9
	c76.1-27.9,140.4-80.9,185.9-153.5c0.7-1.2,1.4-2.5,2.1-3.7l18,16.3l2.7-4.9c12.5-22.6,29.7-56.7,40.2-90.6l0.8-2.7L527.2,306.7z
	 M32.8,353.7c3.5-3.1,27.7-24.9,34.8-31.3c2.2,7.1,4.6,13.8,7.1,20.5l-24,21.6l8.2,51.7C49.6,397.4,39.8,375.6,32.8,353.7
	 M70.6,433.5l-6-37.4c4.8,9.9,10,19.5,15.4,28.9C76.3,428.3,72.9,431.5,70.6,433.5 M528.3,433.5c-2.4-2.1-5.7-5.1-9.4-8.5
	c0-0.1,0.1-0.1,0.1-0.2c5.4-9.3,10.5-18.7,15.3-28.6L528.3,433.5z M505,432c-44.4,70.8-107.2,122.6-181.4,149.9
	c0,0-21.4,7.8-24.1,8.8c-2.7-1-24.1-8.8-24.1-8.8c-74.2-27.2-136.9-79-181.4-149.9c-12.7-20.4-23.6-42.4-32.7-65.2
	c3.9-3.5,27.1-24.4,33.9-30.5c9.3,26.2,20.7,50.8,34.8,73.1c39.3,62.8,94.6,108.7,160,132.6c0,0,9.5,3.4,9.5,3.4l9.5-3.4
	c65.4-23.9,120.7-69.8,160.1-132.6c14-22.4,25.5-47.1,34.8-73.1c6.9,6.1,30.1,27,33.9,30.5C528.4,389.8,517.6,411.8,505,432
	 M540,416.3l8.3-51.8l-24-21.5c2.5-6.7,4.8-13.4,7-20.6c7.1,6.5,31.3,28.2,34.8,31.3C559,375.8,549.3,397.6,540,416.3"/>
<path class="st0" d="M108.1,408.6l7.1-7.8l-0.6-2.3c-1.3-1.3-2.6-2.6-3.8-4.1c-7.4,1.3-18.8,3.2-24.1,3.4l-1.4-1.6l-1.5,0.8
	c0.7,1.2,1.4,2.4,2.1,3.6c0.8,1.4,1.5,2.9,2.3,4.3l1.5-0.8L89,402l7.6-1.7l4,7.2c-1.4,1.8-3.9,4.3-5.4,5.6l-1.5-1.7l-1.4,0.7
	c1,1.9,2.1,3.6,3.1,5.4c0.9,1.6,1.8,3.4,2.7,5.1l1.4-0.8l-0.6-2.1C100.2,417.8,104.7,412.4,108.1,408.6 M99.7,399.7l9.8-1.9l0,0
	l-6.8,7.3L99.7,399.7z"/>
<path class="st0" d="M142.7,445.1l1.3-1c-0.9-1.2-1.8-2.3-2.7-3.6c-0.9-1.2-1.7-2.5-2.6-3.8l-1.4,1l1,2.2
	c-3.5,2.9-12.8,9.8-12.8,9.8l0-0.1c2.3-6.5,5.1-13.9,7.6-20.6c-0.9-1.1-1.7-2.2-2.5-3.3c-0.8-1.1-1.6-2.3-2.4-3.4l-1.4,0.9l1,2.2
	c-1.7,1.4-3.4,2.8-5.6,4.4l-6,4.3c-2.2,1.6-4,2.8-6,3.9l-1.7-1.7l-1.4,1c0.9,1.3,1.9,2.4,2.8,3.7c0.9,1.2,1.7,2.4,2.6,3.7l1.3-1
	l-1-2.1c3.5-2.9,8.6-6.7,12.8-9.7l0.1,0c-2.6,6.8-5,13.8-7.7,21c0.6,0.8,1.2,1.6,1.8,2.4c0.6,0.8,1.1,1.7,1.5,2.3
	c2-1.6,4.5-3.5,7.6-5.8l5.9-4.3c2.2-1.6,4-2.8,6-3.9L142.7,445.1z"/>
<path class="st0" d="M144.4,465.4c-5.9,5.4-5.3,13.5-0.6,18.6c3.2,3.5,6.8,5.6,12.8,6.1l0.4-3c-3.4-0.5-5.9-1.8-7.5-3.6
	c-3.7-3.9-3.9-9.5,0.6-13.6c4.5-4.2,9.2-2.8,12,0.3c1.3,1.5,2.5,3.8,2.9,5.8l-1.3,1.6l1.2,1.5c1.4-1.3,3.6-2.6,5.5-3.3
	c-1.3-3.1-2.9-5.4-5.1-7.9C159.2,461.1,150.5,459.8,144.4,465.4"/>
<path class="st0" d="M194.4,495.3c-7.2-6-15.3-5-20,0.7c-5.5,6.6-4.2,13.9,2.9,19.8c7.2,6,15.3,5,20-0.7
	C202.8,508.5,201.5,501.2,194.4,495.3 M191.9,510.6c-3.6,4.3-8.6,5.5-12.3,2.4c-3.7-3.2-3.4-8.2,0.2-12.6c3.6-4.3,8.5-5.5,12.3-2.4
	C195.9,501.2,195.5,506.3,191.9,510.6"/>
<path class="st0" d="M231.2,522.2c-1.5-1-3.1-1.8-4.7-2.8c-1.6-0.9-3.1-1.8-4.6-2.7c-1.3-0.8-2.6-1.7-3.8-2.5l-0.9,1.4l1.8,1.6
	c-1,2-2,3.9-3.5,6.2l-3.9,6.3c-1.5,2.2-2.7,4-4,5.8l-2.2-0.9l-0.9,1.4c1.8,1,3.5,2,5.2,3.1c1.6,1,3.3,2.1,5,3.3l0.9-1.4l-1.7-1.6
	c1-1.9,2-3.8,3.4-6.2l1.3-2l1.6,1.1c0.4,3.9,0.8,10.3,1.1,14.9c2.3,1.1,4.7,2.3,6.9,3.8l0.9-1.4l-0.8-1c-0.4-1.8-1.6-11-2-13.5
	c3.5,1.5,7.2,0.9,9.2-2.3C237.3,529.8,237.4,526.1,231.2,522.2 M229.3,529.2c-1.6,2.5-4.1,2.5-7.3,0.5c-0.7-0.4-1.3-0.9-1.8-1.4
	l1.1-1.8c1.1-1.8,2.2-3.4,2.9-4.3c1,0.4,1.7,0.8,3.1,1.7C230,525.5,230.5,527.3,229.3,529.2"/>
<path class="st0" d="M269.1,542.4l-1.9-1.6c-1.8-0.3-3.6-0.5-5.5-1c-5.2,5.5-13.2,13.8-17.3,17.1l-2.1-0.5l-0.7,1.5
	c1.3,0.6,2.5,1.1,3.8,1.6c1.5,0.6,3,1.4,4.4,2.1l0.7-1.5l-1.8-1.3l5.1-5.9l7.5,3.4c-0.1,2.2-0.6,5.7-1,7.8l-2.2-0.5l-0.7,1.5
	c1.8,0.9,3.8,1.6,5.6,2.5c1.7,0.8,3.5,1.6,5.2,2.5l0.7-1.5l-1.8-1.3c-0.1-2.4,0.3-9.4,0.8-14.5L269.1,542.4z M261.7,553.4l-5.7-2.6
	l6.7-7.4h0.1L261.7,553.4z"/>
<path class="st0" d="M342.9,562.3c-1.1-1.9-2.1-3.9-3.2-6.4l-3-6.7c-1.1-2.5-1.9-4.5-2.5-6.6l2-1.4l-0.7-1.5
	c-1.8,0.8-3.6,1.7-5.4,2.5c-1.8,0.8-3.7,1.5-5.5,2.3l0.7,1.5l2.3-0.5c1.1,1.9,2.1,3.8,3.1,6.4l3,6.7c1.1,2.5,1.8,4.5,2.5,6.6l-2,1.4
	l0.7,1.5c1.8-0.9,3.6-1.7,5.5-2.5c1.8-0.8,3.6-1.5,5.5-2.3l-0.7-1.5L342.9,562.3z"/>
<path class="st0" d="M389.2,537.1c-1.3-1.8-2.5-3.6-3.9-5.9l-3.8-6.3c-1.4-2.3-2.4-4.2-3.3-6.2l1.8-1.6l-0.9-1.4
	c-1.5,0.9-2.9,1.9-4.5,2.8c-1.5,0.9-3.1,1.8-4.7,2.6c0.9,3.3,3.4,16.1,4,18.7c-2.8-1.9-12.1-10-14.7-12.3c-1.5,0.9-2.9,1.9-4.4,2.8
	c-1.5,0.9-3.1,1.7-4.5,2.6l0.8,1.5l2.1-0.7l1.8,3c1.8,2.9,7.5,12.8,8.9,15.7l-1.8,1.6l0.9,1.4c1.3-0.8,2.5-1.6,3.8-2.4
	c1.3-0.8,2.6-1.5,4-2.3l-0.8-1.4l-2.2,0.9c-1.3-1.8-2.5-3.6-3.9-5.9l-2.2-3.7c-1.9-3.1-3.1-5.3-3.8-6.5l0.1-0.1
	c9.5,7.9,14.5,12.1,17,14.2l3.5-2l-4.4-21.8l0,0c0.7,1.1,2.1,3.3,4,6.4l2.2,3.7c1.4,2.3,2.4,4.2,3.4,6.2l-1.8,1.6l0.9,1.5
	c1.6-1.1,3.3-2.1,5-3.2c1.7-1,3.5-2,5.2-3l-0.8-1.4L389.2,537.1z"/>
<path class="st0" d="M414.2,518.6c-1.6-1.6-3-3.2-4.7-5.3l-3.4-4.2c-1.4-1.8-3.3-4-4.5-5.9c0.4-0.7,1.2-1.6,2.1-2.3
	c2.6-2.1,5.1-1.9,6.8,0.3c1.7,2.1,2.2,4.7-0.4,6.7c-0.5,0.4-1.1,0.8-1.6,1.1l1.2,3.2c1.1-0.6,2.2-1.4,3.3-2.2
	c5.5-4.4,5.6-10,2.6-13.7c-2.9-3.5-6.9-3.8-11.4-0.1c-1.1,0.9-2.4,1.9-3.9,3.3c-1.6,1.4-3.1,2.6-4.3,3.6c-1.1,0.9-2.6,2-4.2,3.2
	l1,1.3l2.1-1.1c1.6,1.6,3,3.2,4.7,5.3l4.6,5.7c1.7,2.1,3,3.9,4.2,5.7L407,525l1,1.3c1.6-1.3,3.1-2.6,4.6-3.9
	c1.5-1.2,3.1-2.4,5.5-4.3l-1.1-1.3L414.2,518.6z"/>
<path class="st0" d="M455.2,480.4c-2.3-0.7-8.7-3.5-13.4-5.7l-9.5-4.5l-2.1,1.3c-0.9,1.6-1.7,3.1-2.8,4.8
	c3.4,6.7,8.5,17.1,10.2,22.1l-1.1,1.8l1.2,1.2c0.9-1,1.8-2,2.8-3c1.1-1.1,2.4-2.3,3.5-3.4l-1.2-1.2l-1.9,1.3l-3.8-6.8l5.8-6
	c2,0.8,5.1,2.5,7,3.6l-1.2,1.9l1.2,1.2c1.4-1.5,2.8-3,4.2-4.5c1.3-1.4,2.8-2.7,4.1-4.1l-1.2-1.2L455.2,480.4z M435.7,485.4l-4.7-8.8
	l0-0.1l9,4.4L435.7,485.4z"/>
<path class="st0" d="M483.8,444.8c-1.8,0.2-11.1,0.6-13.6,0.7c1.8-3.3,1.5-7-1.4-9.3c-2.7-2.1-6.4-2.5-10.8,3.3
	c-1.1,1.4-2.1,2.9-3.2,4.3c-1.1,1.5-2.1,2.9-3.1,4.3c-0.9,1.2-1.9,2.4-2.9,3.6l1.3,1l1.8-1.6c1.9,1.1,3.7,2.4,5.8,4.1l5.9,4.5
	c2.1,1.6,3.8,3.1,5.4,4.6l-1.1,2.1l1.3,1c1.2-1.6,2.4-3.2,3.5-4.8c1.2-1.6,2.5-3.1,3.7-4.7l-1.3-1l-1.8,1.6c-1.9-1.1-3.7-2.4-5.8-4
	l-1.9-1.5l1.2-1.5c3.9-0.1,10.3,0.2,14.9,0.3c1.3-2.1,2.7-4.5,4.4-6.5l-1.3-1L483.8,444.8z M464.6,449.2c-0.5,0.6-1,1.2-1.5,1.6
	l-1.7-1.3c-1.7-1.3-3.1-2.5-4-3.3c0.5-1,1-1.6,2-3c1.9-2.4,3.7-2.8,5.5-1.4C467.1,443.7,466.8,446.3,464.6,449.2"/>
<path class="st0" d="M499.4,399.3c-7.4-4.4-14.4-1.9-19.1,6.1c-4.7,8-2.4,15.9,3.9,19.7c7.4,4.3,14.4,1.9,19.1-6.1
	C508.1,410.9,505.8,403,499.4,399.3 M500.3,417.1c-2.5,4.2-7.6,4.7-12.4,1.9c-4.9-2.8-6.9-7.5-4.4-11.7c2.5-4.2,7.6-4.7,12.4-1.9
	C500.7,408.2,502.8,412.9,500.3,417.1"/>
<path class="st0" d="M299.5,559.1c-3.2,0-5.7,2.6-5.7,5.7c0,3.2,2.5,5.8,5.7,5.8c3.2,0,5.8-2.6,5.8-5.8
	C305.2,561.7,302.6,559.1,299.5,559.1"/>
<path class="st0" d="M88.1,378.4c3.2,0,5.7-2.6,5.7-5.8c0-3.2-2.6-5.8-5.7-5.8c-3.2,0-5.8,2.6-5.8,5.8
	C82.3,375.8,84.9,378.4,88.1,378.4"/>
<path class="st0" d="M511.9,378.4c3.2,0,5.8-2.6,5.8-5.8c0-3.2-2.6-5.8-5.8-5.8c-3.2,0-5.8,2.6-5.8,5.8
	C506.1,375.8,508.7,378.4,511.9,378.4"/>
<path class="st0" d="M502.9,0L96,0v4.4v204.3c0,34.3,5.1,68.5,14.9,101.6l-0.1,0.1l0.8,2.6l2,6.6c0,0,0.2-0.2,0.3-0.2
	c6.3,19.4,14.2,38.3,23.7,56.1l-0.1,0.1l1.6,3l2.7,4.9l0.1-0.1c36.5,64.5,91.6,113,156.1,136.6l1.5,0.6l1.5-0.6
	C365.5,496.5,420.6,448,457,383.5c0,0,0.2,0.1,0.2,0.1l2.7-4.9l1.6-3l-0.1-0.1c9.4-17.7,17.3-36.6,23.7-56.2
	c0.1,0.1,0.3,0.3,0.3,0.3l2-6.6l0.8-2.6l-0.1-0.1c9.8-33.4,14.9-67.6,14.9-101.6V0z M452.3,374.6c0,0-2.7,4.9-2.8,4.6
	c-35.1,62.3-88.4,109-150.1,132.1c-61.5-23-114.8-69.7-150.1-131.8c0,0-2.6-4.9-2.7-4.9c0,0-1.5-2.7-1.5-3.1c0,0,0,0,0,0
	c-0.3-0.6-0.6-1.2-0.9-1.8l121.4-109.3c19.7-17.7,33.8-30.3,33.8-30.3l155.3,139.8c-0.3,0.6-0.6,1.2-0.8,1.7
	C453.9,371.6,452.3,374.7,452.3,374.6 M494.3,208.7c0,33-4.9,66.3-14.4,99.2c0,0-0.8,2.7-0.9,2.8c0,0-0.4,1.4-0.9,2.9
	c-21.2-19-173.4-156.1-178.7-160.9c-0.3,0.3-1.2,1.1-2.5,2.2c-0.5,0.4-1.1,1-1.7,1.6c-23.4,21-140.3,126.4-174.6,157.1
	c-0.5-1.5-0.9-2.9-0.9-2.9c0,0-0.7-2.5-0.7-2.7v0c-9.6-32.6-14.5-66-14.5-99.2V8.6c16.2,0,373.6,0,389.7,0V208.7z"/>
<path class="st0" d="M243.2,381.1l-0.3,14.1l-11.2-8.6l-11.2,8.6l-0.3-14.1l-13.7-3.4l10.9-8.9l-5.9-12.9l13.8,2.9l6.3-12.5
	l6.4,12.5l13.8-2.9l-5.9,12.9l10.9,8.9L243.2,381.1z M320,480.2l-14-5.3l-6.2,13.8l-6.2-13.8l-14,5.3l5.2-14.1l-13.6-6.3l13.6-6.2
	l-5.2-14.1l14,5.2l6.2-13.7l6.2,13.7l14-5.2l-5.2,14.1l13.5,6.2l-13.5,6.3L320,480.2z M279.3,291.7l13.8,2.9l6.3-12.6l6.4,12.6
	l13.8-2.9l-5.9,12.8l10.9,9l-13.7,3.3l-0.3,14.1l-11.2-8.6l-11.2,8.6l-0.2-14.1l-13.8-3.3l11-9L279.3,291.7z M334.9,405.6l-10.8-5.5
	l-10.8,5.5l1.9-12.1l-8.6-8.5l12-1.9l5.5-10.8l5.6,10.8l11.9,1.9l-8.5,8.5L334.9,405.6z M379.3,361.3l-12.4-0.1l-6.1,10.7l-6-10.7
	l-12.3,0.1l6.4-10.6l-6.4-10.7l12.3,0.2l6-10.8l6.1,10.8l12.4-0.2l-6.4,10.7L379.3,361.3z"/>
<path class="st0" d="M121,43.1h8.2l-0.5,2.1c-0.1,0.2-0.1,0.5-0.1,0.7v98.4c9.6,0,58.5-0.1,61.2-0.1c1.1,1.8,2.3,2.1,5,2.1
	c2.7,0,4.1-0.3,5.2-2.1c2.9,0,56.1,0.1,61,0.1V45.9c0-0.2-0.1-0.5-0.1-0.6l-0.5-2.2h6h2.3V152H203c-1.4,2.7-4.2,4.8-8.2,4.8
	c-4,0-6.8-2.1-8.2-4.8H121V43.1z"/>
<path class="st0" d="M177.7,34.8c-5.8-0.3-12.1,1.4-18.8,3.1c-7.6,1.9-15.5,3.9-23.6,3.4v1.9v93.6c7.5,0.5,15.2-1.3,22.5-3.2
	c7-1.8,13.5-3.5,20-3.2c6,0.2,10.6,1.6,14.7,4.2V43.2v-3.4C189.7,37.4,185.6,35,177.7,34.8 M187,119.5c-2.4-0.9-5.3-1.6-9.2-1.7
	c-5.8-0.2-12,1.4-18.6,3c-5.8,1.5-11.8,3-17.9,3.4v-4.6c5.6-0.4,11.3-1.8,16.8-3.2c6.9-1.8,13.4-3.5,19.9-3.2
	c3.4,0.1,6.4,0.5,9.1,1.4V119.5z M187,108.4c-2.3-1-5.3-1.6-9.2-1.7c-5.8-0.2-12,1.4-18.6,3.1c-5.8,1.5-11.8,3-17.9,3.4v-4.5
	c5.6-0.4,11.3-1.9,16.8-3.3c6.9-1.8,13.5-3.4,19.9-3.2c3.4,0.1,6.4,0.6,9.1,1.5V108.4z M187,97.3c-2.3-0.9-5.3-1.6-9.2-1.6
	c-5.8-0.2-12,1.4-18.6,3.1c-5.8,1.5-11.8,3-18,3.4v-4.6c5.7-0.4,11.3-1.8,16.8-3.2c6.9-1.8,13.4-3.5,19.8-3.2
	c3.4,0.1,6.4,0.5,9.1,1.4V97.3z M187,86.3c-2.3-0.9-5.3-1.6-9.2-1.7c-5.8-0.2-12,1.3-18.7,3c-5.8,1.5-11.7,3-17.9,3.4v-4.5
	c5.6-0.4,11.3-1.8,16.8-3.3c6.9-1.8,13.5-3.4,19.9-3.2c3.4,0.1,6.4,0.6,9.1,1.5V86.3z M187,75.2c-2.3-0.9-5.3-1.6-9.2-1.7
	c-5.8-0.2-12,1.4-18.6,3.1c-5.8,1.5-11.8,3-18,3.4v-4.6c5.6-0.4,11.3-1.8,16.8-3.3c6.9-1.8,13.4-3.4,19.9-3.2
	c3.4,0.1,6.4,0.6,9.1,1.4V75.2z M187,64.2c-2.4-0.9-5.3-1.6-9.2-1.7c-5.8-0.2-12.1,1.4-18.7,3.1c-5.8,1.5-11.8,3-17.9,3.4v-4.6
	c5.6-0.4,11.2-1.8,16.7-3.2c6.9-1.8,13.5-3.4,19.9-3.3c3.4,0.1,6.4,0.6,9.1,1.5V64.2z M187,53c-2.3-0.9-5.3-1.6-9.2-1.7
	c-5.8-0.2-12.1,1.4-18.7,3.1c-5.8,1.5-11.8,3-17.9,3.4v-4.6c5.6-0.4,11.2-1.9,16.7-3.3c6.9-1.7,13.5-3.4,20-3.2
	c3.4,0.1,6.4,0.6,9.1,1.4V53z"/>
<path class="st0" d="M197.1,39.8v3.4v91.3c4.1-2.6,8.7-4,14.7-4.2c6.4-0.3,13,1.4,20,3.2c7.4,1.9,15,3.7,22.5,3.2V43.1v-1.9
	c-8.1,0.5-16-1.4-23.6-3.4c-6.7-1.7-12.9-3.3-18.7-3.1C204.1,35,200,37.4,197.1,39.8 M202.7,114.7c2.7-0.9,5.7-1.3,9.1-1.4
	c6.4-0.3,13,1.4,19.9,3.2c5.5,1.4,11.1,2.8,16.8,3.2v4.6c-6.1-0.5-12.1-1.9-17.9-3.4c-6.6-1.7-12.8-3.3-18.6-3
	c-3.9,0.1-6.9,0.8-9.2,1.7V114.7z M202.7,103.6c2.7-0.9,5.7-1.3,9.1-1.5c6.5-0.2,13,1.5,19.9,3.2c5.5,1.4,11.1,2.8,16.8,3.3v4.5
	c-6.1-0.4-12.1-1.9-17.9-3.4c-6.6-1.7-12.8-3.3-18.6-3.1c-3.9,0.1-6.9,0.8-9.2,1.7V103.6z M202.7,92.5c2.7-0.9,5.7-1.3,9.1-1.4
	c6.4-0.2,12.9,1.5,19.8,3.2c5.5,1.4,11.2,2.8,16.8,3.2v4.6c-6.1-0.4-12.1-1.9-18-3.4c-6.6-1.7-12.8-3.2-18.6-3
	c-3.9,0.1-6.9,0.7-9.2,1.6V92.5z M202.7,81.5c2.7-0.9,5.7-1.3,9.1-1.5c6.5-0.2,13,1.4,19.9,3.2c5.5,1.4,11.1,2.9,16.8,3.3V91
	c-6.1-0.4-12.1-1.9-17.9-3.4c-6.6-1.7-12.8-3.2-18.7-3c-3.9,0.1-6.9,0.8-9.2,1.7V81.5z M202.7,70.4c2.7-0.8,5.7-1.3,9.1-1.4
	c6.5-0.2,13,1.4,19.9,3.2c5.6,1.4,11.2,2.8,16.8,3.3V80c-6.1-0.4-12.1-1.9-18-3.4c-6.6-1.7-12.8-3.3-18.6-3.1
	c-3.9,0.2-6.9,0.8-9.2,1.7V70.4z M202.7,59.3c2.7-0.9,5.7-1.4,9.1-1.5c6.5-0.2,13,1.5,19.9,3.3c5.5,1.4,11.1,2.8,16.7,3.2v4.6
	c-6.1-0.4-12.1-1.9-17.9-3.4c-6.6-1.7-12.8-3.2-18.7-3.1c-3.9,0.1-6.9,0.8-9.2,1.7V59.3z M202.7,48.2c2.7-0.8,5.7-1.3,9.1-1.4
	c6.5-0.2,13,1.4,20,3.2c5.5,1.4,11.1,2.9,16.7,3.3v4.6c-6.1-0.5-12.1-1.9-17.8-3.4c-6.6-1.6-12.9-3.3-18.7-3.1
	c-3.9,0.2-6.9,0.9-9.2,1.7V48.2z"/>
<path class="st0" d="M468.9,91.8c0,2.9-0.7,5.7-2,8.1c-0.8,1.5-1.9,2.8-3.1,4c-1.7,0.8-3.3,1.8-4.8,3c-0.1-0.7-0.2-1.4-0.2-2
	c0-2.9,0.7-5.7,1.9-8.1c1.7-3.2,4.5-5.6,7.8-7.4C468.7,90.1,468.9,90.9,468.9,91.8"/>
<path class="st0" d="M435.7,146.9L435.7,146.9c3.5-0.5,7.1,0.2,10.5,1.8c-2.7,2.6-5.9,4.5-9.5,5.1c-3.5,0.5-7.1-0.3-10.5-1.9
	C428.9,149.3,432.1,147.4,435.7,146.9"/>
<path class="st0" d="M418.2,152.4c0-0.3-0.1-0.6-0.1-0.8c0-3.3,0.9-6.5,2.6-9.2l0,0c1.8-3,4.7-5.1,8.1-6.5c0,0.3,0.1,0.6,0.1,0.9
	c0,3.3-0.8,6.4-2.5,9.1C424.4,148.9,421.6,150.9,418.2,152.4"/>
<path class="st0" d="M431.7,133.5c1.2-2.2,3-4,5-5.6c0.4,1.6,1,3.3,1,4.9c0,1.8-0.3,3.6-0.8,5.3c-0.8,2.4-2.3,4.5-4.2,6.4
	c-0.8,0.2-1.5,0.5-2.2,0.8c0-0.2-0.1-0.3-0.1-0.5C431.8,141.3,432.3,137.5,431.7,133.5"/>
<path class="st0" d="M439.3,124.9c0.7-2.4,2-4.6,3.7-6.7c1.5,2.8,2.5,5.7,2.5,8.6c0,0.5,0,0.9-0.1,1.3c-0.2,2.5-1.2,5-2.6,7.2
	c-0.7,0.4-1.5,0.8-2.1,1.3c-0.1-0.1-0.1-0.3-0.2-0.4C441.1,132.5,440.7,128.6,439.3,124.9"/>
<path class="st0" d="M444.6,114.5c0.1-2.5,0.8-4.9,2-7.3c2.5,2.7,4.3,5.8,4.8,9.2c0.1,0.8,0.2,1.5,0.2,2.3c0,1.8-0.4,3.5-1,5.2
	c-0.6,0.6-1.2,1.2-1.7,1.8c-0.2-0.2-0.3-0.3-0.4-0.4C448.2,121.6,446.9,117.9,444.6,114.5"/>
<path class="st0" d="M447.4,103.3c-0.2-1.1-0.4-2.3-0.4-3.5c0-1.3,0.4-2.6,0.7-3.9c3,2,5.5,4.6,6.7,7.7c0.8,2,1.2,4.1,1.2,6.3
	c0,0.4-0.1,0.7-0.1,1c-0.5,0.7-0.9,1.5-1.3,2.2c-0.1-0.1-0.3-0.2-0.4-0.3C452.6,109.4,450.4,106.1,447.4,103.3"/>
<path class="st0" d="M447.5,92c-1.1-2.4-1.6-4.9-1.7-7.6c3.5,1.3,6.6,3.3,8.5,6.1c1.5,2,2.3,4.3,2.8,6.8c-0.3,0.8-0.6,1.7-0.8,2.6
	c-0.1-0.1-0.3-0.1-0.5-0.2C454,96.5,451.1,93.9,447.5,92"/>
<path class="st0" d="M455.4,86.4c-0.2,0-0.4,0-0.6-0.1c-2.5-2.6-5.9-4.5-9.8-5.6c-1.5-1.9-2.5-4.3-3.2-6.8c3.6,0.5,6.9,1.5,9.4,3.8
	c1.9,1.7,3.3,3.9,4.3,6.4C455.5,84.8,455.4,85.6,455.4,86.4"/>
<path class="st0" d="M451.1,73.6c-3.2-2-6.9-3.1-11-3.2c-1.9-1.6-3.6-3.7-4.9-6.1c3.6-0.4,7.1,0.1,10.2,1.7c2.3,1.1,4.1,3,5.6,5.1
	c0.1,0.9,0.3,1.7,0.5,2.5C451.3,73.6,451.2,73.6,451.1,73.6"/>
<path class="st0" d="M443.9,144.5c-1.8-0.5-3.6-0.8-5.4-0.8c2-3,4.6-5.4,7.7-6.7h0c3.3-1.4,7-1.4,10.6-0.6c-2.1,3.1-4.7,5.7-8,7
	C447.3,144,445.6,144.3,443.9,144.5"/>
<path class="st0" d="M453.8,132.7c-1.9-0.1-3.8,0-5.6,0.4c1.3-3.4,3.2-6.4,6-8.3h0c2.9-2.1,6.4-3.2,10.2-3.3
	c-1.3,3.7-3.3,6.8-6.2,8.9C456.9,131.4,455.4,132.1,453.8,132.7"/>
<path class="st0" d="M464.4,115.7c-1.1,1.3-2.5,2.4-4,3.3c-1.8,0.4-3.5,0.9-5.1,1.7c0.5-3.6,1.6-6.9,3.8-9.5
	c2.3-2.7,5.6-4.4,9.3-5.4C467.9,109.6,466.7,113,464.4,115.7"/>
<path class="st0" d="M466.2,80c0,1.3-0.1,2.7-0.5,4c-0.4,1.7-1.1,3.2-2.1,4.6c-1.5,1.2-2.8,2.5-4,4.1c-0.7-2.1-1.2-4.2-1.2-6.3
	c0-1.4,0.2-2.7,0.5-4.1c0.9-3.5,3-6.5,5.9-9.1C465.6,75.4,466.2,77.7,466.2,80"/>
<path class="st0" d="M453.9,68.7c0-3.5,1.4-6.9,3.5-10.1c2.1,3.1,3.4,6.5,3.4,10.2v0c0,1.7-0.3,3.3-0.9,4.9
	c-1.2,1.5-2.1,3.1-2.9,4.7c-1.9-3-3.2-6.3-3.2-9.6V68.7z"/>
<path class="st0" d="M446.7,45.9c2.8,2.6,4.9,5.6,5.8,9.1c0.3,1.2,0.4,2.5,0.4,3.8c0,0.3,0,0.7-0.1,1.1c-0.9,1.8-1.5,3.6-1.8,5.4
	c-2.6-2.4-4.5-5.3-5.4-8.7c-0.3-1.2-0.4-2.5-0.4-3.8C445.3,50.5,445.9,48.2,446.7,45.9"/>
<path class="st0" d="M444.5,62c-0.1,0.1-0.3,0.1-0.5,0.2c-3.6-1.2-7.5-1.4-11.4-0.7c-2.3-1.1-4.3-2.7-6.1-4.8
	c3.5-1.2,7.1-1.5,10.3-0.7c2.4,0.6,4.6,1.9,6.6,3.7C443.8,60.5,444.1,61.3,444.5,62"/>
<path class="st0" d="M433.6,36.2c3.3,1.8,6.1,4.3,7.7,7.5c0.7,1.5,1.2,3,1.5,4.6c-0.4,1.9-0.6,3.9-0.5,5.7c-3.1-1.8-5.7-4.2-7.3-7.2
	c-1.2-2.4-1.8-5.1-1.8-7.8C433.2,38.1,433.4,37.2,433.6,36.2"/>
<path class="st0" d="M429.6,43.1c0.4,0.3,0.8,0.7,1.1,1c0.3,1.4,0.8,2.8,1.4,4.1l0,0c0.7,1.3,1.6,2.5,2.5,3.7
	c-3.4-0.2-6.5-1.3-9.1-3.1c-3-2.1-5-5.3-6.3-8.9C423.2,40,426.7,41.1,429.6,43.1"/>
<path class="st0" d="M367.2,144.7c0,0.2-0.1,0.3-0.1,0.5c-0.7-0.3-1.5-0.6-2.2-0.8c-1.9-1.9-3.4-4-4.2-6.4c-0.6-1.7-0.9-3.5-0.9-5.3
	c0-1.7,0.5-3.3,1-4.9c2.1,1.6,3.8,3.5,5,5.6C365.2,137.5,365.7,141.3,367.2,144.7"/>
<path class="st0" d="M357.4,70.4c-4.1,0.1-7.9,1.2-11,3.2c-0.1,0-0.3,0-0.4,0c0.2-0.8,0.4-1.6,0.5-2.5c1.5-2.1,3.3-4,5.6-5.1
	c3.1-1.6,6.6-2.1,10.2-1.7C361,66.7,359.4,68.8,357.4,70.4"/>
<path class="st0" d="M357,136.2c-0.1,0.1-0.2,0.3-0.2,0.4c-0.7-0.5-1.4-0.9-2.1-1.3c-1.4-2.2-2.3-4.7-2.6-7.2c0-0.4,0-0.9,0-1.3
	c0-3,1-5.8,2.5-8.6c1.7,2.1,3,4.3,3.7,6.7C356.7,128.6,356.4,132.5,357,136.2"/>
<path class="st0" d="M346.2,116.4c0.5-3.4,2.3-6.4,4.8-9.2c1.2,2.4,1.9,4.9,2,7.3c-2.3,3.4-3.6,7.1-3.9,10.8
	c-0.1,0.1-0.2,0.3-0.4,0.4c-0.5-0.7-1.1-1.2-1.7-1.8c-0.6-1.7-1-3.5-1-5.2C346,117.9,346.1,117.1,346.2,116.4"/>
<path class="st0" d="M343.8,112.9c-0.1,0.1-0.3,0.2-0.4,0.3c-0.4-0.8-0.8-1.5-1.3-2.3c0-0.3-0.1-0.7-0.1-1c0-2.2,0.4-4.4,1.2-6.4
	c1.2-3.1,3.7-5.7,6.7-7.7c0.3,1.3,0.7,2.6,0.7,3.9c0,1.2-0.2,2.3-0.4,3.5C347.1,106.1,345,109.4,343.8,112.9"/>
<path class="st0" d="M346.2,77.7c2.5-2.3,5.8-3.4,9.4-3.8c-0.7,2.6-1.8,4.9-3.2,6.8c-3.9,1.1-7.2,3-9.8,5.6c-0.2,0-0.4,0.1-0.6,0.1
	c0-0.8-0.1-1.6-0.1-2.3C342.9,81.5,344.3,79.3,346.2,77.7"/>
<path class="st0" d="M343.2,90.5c2-2.8,5-4.7,8.5-6.1c0,2.7-0.6,5.2-1.7,7.6c-3.5,1.9-6.4,4.5-8.3,7.7c-0.2,0.1-0.3,0.2-0.5,0.2
	c-0.2-0.9-0.5-1.8-0.8-2.6C340.8,94.8,341.7,92.5,343.2,90.5"/>
<path class="st0" d="M342.3,120.6c-1.6-0.8-3.3-1.3-5.1-1.7c-1.5-0.9-2.9-1.9-4-3.3c-2.3-2.7-3.5-6.1-4-9.9c3.7,1,6.9,2.7,9.2,5.4
	C340.6,113.8,341.8,117.1,342.3,120.6"/>
<path class="st0" d="M343.3,124.8L343.3,124.8c2.8,2,4.7,4.9,6,8.3c-1.8-0.4-3.7-0.5-5.6-0.4c-1.6-0.5-3.2-1.3-4.5-2.3
	c-2.9-2-4.9-5.2-6.2-8.8C336.9,121.6,340.4,122.7,343.3,124.8"/>
<path class="st0" d="M351.3,137L351.3,137c3.2,1.3,5.7,3.7,7.7,6.7c-1.8,0-3.6,0.3-5.4,0.8c-1.7-0.1-3.4-0.5-5-1.1
	c-3.3-1.3-5.9-3.9-8-7C344.3,135.5,348,135.6,351.3,137"/>
<path class="st0" d="M361.9,146.9L361.9,146.9c3.5,0.5,6.7,2.4,9.5,5c-3.4,1.6-7,2.4-10.6,1.9c-3.5-0.5-6.7-2.5-9.5-5.1
	C354.7,147.1,358.3,146.4,361.9,146.9"/>
<path class="st0" d="M371.2,145.8c-1.7-2.7-2.5-5.8-2.5-9.1c0-0.3,0-0.6,0.1-0.9c3.4,1.4,6.3,3.5,8.1,6.5l0,0
	c1.7,2.7,2.6,5.9,2.6,9.2c0,0.3,0,0.6-0.1,0.8C375.9,150.9,373.1,148.9,371.2,145.8"/>
<path class="st0" d="M365.3,48.2c0.6-1.3,1.1-2.7,1.4-4.1c0.4-0.3,0.7-0.7,1.1-1c2.9-2.1,6.5-3.1,10.3-3.2c-1.3,3.6-3.3,6.8-6.3,8.9
	c-2.6,1.8-5.7,2.9-9.1,3.1C363.8,50.7,364.6,49.5,365.3,48.2L365.3,48.2z"/>
<path class="st0" d="M356.2,43.7c1.6-3.3,4.4-5.7,7.7-7.5c0.1,0.9,0.3,1.8,0.3,2.8c0,2.8-0.6,5.4-1.8,7.8c-1.6,3-4.2,5.4-7.3,7.2
	c0.1-1.9-0.1-3.8-0.5-5.7C355.1,46.8,355.5,45.2,356.2,43.7"/>
<path class="st0" d="M354,59.7c2-1.8,4.2-3,6.6-3.7c3.3-0.8,6.8-0.5,10.4,0.7c-1.8,2.1-3.8,3.7-6.1,4.7c-4-0.8-7.8-0.5-11.4,0.7
	c-0.2,0-0.3-0.1-0.5-0.2C353.4,61.3,353.7,60.5,354,59.7"/>
<path class="st0" d="M345,55c0.8-3.5,2.9-6.5,5.8-9.1c0.9,2.3,1.4,4.6,1.4,7c0,1.3-0.1,2.5-0.4,3.8c-0.8,3.4-2.7,6.2-5.3,8.7
	c-0.3-1.8-1-3.7-1.8-5.4c0-0.4-0.1-0.8-0.1-1.1C344.6,57.5,344.7,56.2,345,55"/>
<path class="st0" d="M336.7,68.7c0-3.7,1.3-7,3.4-10.2c2.2,3.2,3.5,6.6,3.5,10.1v0.2c0,3.3-1.2,6.5-3.2,9.6
	c-0.7-1.7-1.7-3.2-2.8-4.7C337.1,72.1,336.7,70.5,336.7,68.7L336.7,68.7z"/>
<path class="st0" d="M332.7,73.2c2.8,2.6,5,5.6,5.9,9.1c0.3,1.3,0.5,2.7,0.5,4.1c0,2-0.5,4.1-1.2,6.2c-1.1-1.5-2.5-2.9-3.9-4
	c-1-1.4-1.7-2.9-2.1-4.6c-0.3-1.3-0.5-2.7-0.5-4C331.3,77.7,331.9,75.5,332.7,73.2"/>
<path class="st0" d="M329,89.3c3.4,1.8,6.1,4.2,7.8,7.4c1.3,2.5,2,5.2,2,8.1c0,0.6-0.1,1.3-0.2,2c-1.4-1.2-3.1-2.2-4.8-3
	c-1.2-1.2-2.3-2.5-3.1-4c-1.3-2.5-2-5.3-2-8.1C328.6,90.9,328.8,90.1,329,89.3"/>
<path class="st0" d="M420.2,154.1l-0.4,0.2c-4.7,2.6-9.8,4.2-16.6,5.3c1.9-3.5,3.2-9.2,3.2-15.6c0-5.1-0.8-9.7-2-13.2h8.9
	c5.1,0,7.2-3,7.2-5.7c0-2.2-1.8-4.2-4-4.2c-2.3,0-4.1,1.8-4.1,4.1c0,0.6,0.2,1.2,0.4,1.6c0.4,0.7,0.6,1.5-0.9,1.5h-5.4V59.1
	c0-9.4-0.7-20.5-6.2-31.6l-1.5-3.1l-1.6,3.1c-5.4,11-6.1,22.2-6.1,31.6v69.1h-5.4c-1.5,0-1.3-0.8-0.9-1.5c0.2-0.3,0.4-1,0.4-1.6
	c0-2.3-1.7-4.1-4-4.1c-2.2,0-4.1,2-4.1,4.2c0,2.7,2.2,5.7,7.2,5.7h8.9c-1.3,3.5-2.1,8.1-2.1,13.2c0,6.4,1.3,12.2,3.2,15.6
	c-6.8-1-12.1-2.7-16.9-5.3l-0.4-0.2l-1.3,3l0.3,0.2c4.2,2.3,8.4,3.4,13.3,4.5c0.1,0,3.9,0.7,6.6,1.2c-0.7,0.7-1.1,1.6-1.1,2.7
	c0,2,1.7,3.6,3.7,3.6c2.1,0,3.7-1.6,3.7-3.6c0-1.1-0.4-2-1.1-2.7c2.7-0.5,6.4-1.2,6.4-1.2c5-1.2,9.3-2.3,13.5-4.6l0.4-0.2
	L420.2,154.1z M403,124h-4.3V33c3.6,9.1,4.3,18.3,4.3,26.1V124z"/>
</svg>
