<?xml version="1.0" encoding="utf-8"?>
<!-- Generator: Adobe Illustrator 25.1.0, SVG Export Plug-In . SVG Version: 6.00 Build 0)  -->
<svg version="1.1" id="svg8656" xmlns:svg="http://www.w3.org/2000/svg"
	 xmlns="http://www.w3.org/2000/svg" xmlns:xlink="http://www.w3.org/1999/xlink" x="0px" y="0px" viewBox="0 0 600 600"
	 style="enable-background:new 0 0 600 600;" xml:space="preserve">
<path id="use7800" d="M404,124.2h-4.3V33.1c3.8,9.2,4.3,18.4,4.3,26V124.2z M231.5,87.9c5.4,1.6,11.4,2.7,17.9,3.3v-4.3
	c-5.4-0.5-11.4-1.6-16.8-3.3c-7.1-1.6-13.6-3.3-20.1-3.3c-3.3,0-6.5,0.5-9.2,1.6v4.9c2.2-1.1,5.4-1.6,9.2-1.6
	C218.4,84.6,225,86.3,231.5,87.9z M178.8,84.6c3.8,0,7.1,0.5,9.2,1.6v-4.9c-2.7-1.1-6-1.6-9.2-1.6c-6.5,0-13,1.6-20.1,3.3
	c-5.4,1.6-10.8,2.7-16.8,3.3v4.3c6-0.5,11.9-1.6,17.9-3.3C166.9,86.3,172.9,84.6,178.8,84.6z M178.8,73.8c3.8,0,7.1,1.1,9.2,1.6
	v-4.9c-2.7-1.1-6-1.1-9.2-1.6c-6.5,0-13,1.6-20.1,3.3c-5.4,1.6-10.8,2.7-16.8,3.3v4.3c6.5-0.5,11.9-1.6,17.9-3.3
	C166.9,74.9,172.9,73.2,178.8,73.8z M178.8,96c3.8,0,7.1,0.5,9.2,1.6v-4.9c-2.7-1.1-6-1.1-9.2-1.6c-6.5,0-13,1.6-20.1,3.3
	c-5.4,1.6-10.8,2.7-16.8,3.3v4.3c6.5-0.5,11.9-2.2,17.9-3.3C166.9,97.1,172.9,95.5,178.8,96z M178.8,62.4c3.8,0,7.1,1.1,9.2,1.6
	v-4.9c-2.7-1.1-6-1.6-9.2-1.6c-6.5,0-13,1.6-20.1,3.3c-5.4,1.6-10.8,2.7-16.8,3.3v4.3c6-0.5,11.9-1.6,17.9-3.3
	C166.9,64,172.9,62.4,178.8,62.4z M149.5,394.4C95.8,306,96.9,219.7,96.9,208.9V0h406.9v208.9c0,10.8,1.1,97.1-52.6,185.5
	c-47.7,80.3-119.9,115.6-150.8,126.4C270,509.9,197.8,474.7,149.5,394.4z M258,378.1l-10.8-8.7l6-13l-14.1,2.7l-6-12.5l-6.5,12.5
	l-13.6-2.7l6,13l-10.8,8.7l13.6,3.3v14.1l11.4-8.7l10.8,8.7v-14.1L258,378.1z M316.1,466.5l13.6-6.5l-13.6-6L321,440l-14.1,5.4
	l-6-13.6l-6,13l-14.1-5.4l5.4,14.1l-13.6,6l13.6,6.5l-5.4,14.1l14.1-5.4l6,13.6l6-13.6l14.1,5.4L316.1,466.5z M286.3,304.9
	l-10.8,9.2l13.6,3.3v14.1l10.8-8.7l11.4,8.7l0.5-14.1l13.6-3.3l-10.8-9.2l6-13l-14.1,2.7l-6-12.5l-6,12.5l-14.1-2.7L286.3,304.9z
	 M334,393.9l8.1-8.7l-11.9-2.2l-5.4-10.8l-5.4,10.8l-11.9,2.2l8.7,8.7l-2.2,11.9l10.8-5.4l10.8,5.4L334,393.9z M374.1,351l6.5-10.8
	h-12.5l-6-10.8l-6,10.8h-12.5l6.5,10.8l-6.5,10.8h12.5l6,10.8l6-10.8h12.5L374.1,351z M469.6,89.5c-3.3,1.6-6,4.3-7.6,7.6
	c-1.6,2.7-2.2,5.4-2.2,8.1c0,0.5,0,1.1,0,2.2c1.6-1.1,3.3-2.2,4.9-3.3c1.1-1.1,2.2-2.7,3.3-3.8c1.1-2.2,1.6-5.4,1.6-8.1
	C469.6,91.1,469.6,90.1,469.6,89.5L469.6,89.5z M427.3,151.9c3.3,1.6,7.1,2.2,10.8,1.6c3.8-0.5,6.5-2.2,9.2-4.9
	c-3.3-1.6-6.5-2.2-10.3-1.6C433.3,147.6,430,149.7,427.3,151.9L427.3,151.9z M427.3,145.9c1.6-2.7,2.7-6,2.7-9.2c0-0.5,0-0.5,0-1.1
	c-3.3,1.6-6,3.8-8.1,6.5l0,0c-1.6,2.7-2.7,6-2.7,9.2c0,0.5,0,0.5,0,1.1C423,151.4,425.7,149.2,427.3,145.9z M431.6,144.8
	C431.6,144.8,431.6,145.4,431.6,144.8c1.1,0,1.6,0,2.2-0.5c2.2-1.6,3.3-3.8,4.3-6.5c0.5-1.6,1.1-3.8,1.1-5.4c0-1.6-0.5-3.3-1.1-4.9
	c-2.2,1.6-3.8,3.3-4.9,5.4C433.3,137.8,432.7,141.6,431.6,144.8L431.6,144.8z M442,136.2C442,136.7,442,136.7,442,136.2
	c1.1,0,1.6-0.5,2.2-1.1c1.6-2.2,2.2-4.3,2.7-7.1c0-0.5,0-1.1,0-1.6c0-2.7-1.1-6-2.7-8.7c-1.6,2.2-3.3,4.3-3.8,6.5
	C442,129.1,442.5,132.4,442,136.2L442,136.2z M449.5,125.3C449.5,125.9,449.5,125.9,449.5,125.3c1.1,0,1.6-0.5,2.2-1.6
	c0.5-1.6,1.1-3.3,1.1-5.4c0-0.5,0-1.6,0-2.2c-0.5-3.3-2.2-6.5-4.9-9.2c-1.1,2.2-1.6,4.9-1.6,7.1C447.9,118.3,449,121.5,449.5,125.3
	L449.5,125.3z M455,112.8C455,113.4,455,113.4,455,112.8c1.1-0.5,1.1-1.1,1.6-2.2c0-0.5,0-0.5,0-1.1c0-2.2-0.5-4.3-1.1-6.5
	c-1.1-3.3-3.8-5.4-7.1-7.6c-0.5,1.1-0.5,2.7-0.5,3.8c0,1.1,0,2.2,0.5,3.3C451.7,106.3,453.9,109.6,455,112.8L455,112.8z M457.1,99.8
	L457.1,99.8c0.5-0.5,1.1-1.6,1.1-2.2c-0.5-2.7-1.1-4.9-2.7-7.1c-2.2-2.7-4.9-4.9-8.7-6c0,2.7,0.5,5.4,1.6,7.6
	C452.3,93.9,455,96.6,457.1,99.8L457.1,99.8z M456.6,84.1c-1.1-2.7-2.2-4.9-4.3-6.5c-2.7-2.2-5.4-3.3-9.2-3.8
	c0.5,2.7,1.6,4.9,3.3,6.5c3.8,1.1,7.1,3.3,9.8,5.4h0.5C456.6,85.7,456.6,85.2,456.6,84.1L456.6,84.1z M452.3,73.8
	c0-1.1-0.5-1.6-0.5-2.7c-1.6-2.2-3.3-3.8-5.4-4.9c-3.3-1.6-6.5-2.2-10.3-1.6c1.6,2.2,2.7,4.3,4.9,6C445.2,70.5,449,71.6,452.3,73.8
	L452.3,73.8L452.3,73.8z M450.1,143.2c3.3-1.1,6-3.8,8.1-7.1c-3.8-0.5-7.6-0.5-10.8,0.5c-2.7,1.1-5.4,3.8-7.6,6.5
	c1.6,0,3.8,0.5,5.4,1.1C446.8,144.3,448.5,144.3,450.1,143.2L450.1,143.2z M459.3,130.7c2.7-2.2,4.9-5.4,6.5-9.2
	c-3.8,0-7.6,1.1-10.3,3.3l0,0c-2.7,2.2-4.9,4.9-6,8.1c1.6-0.5,3.8-0.5,5.4-0.5S458.2,131.8,459.3,130.7L459.3,130.7z M469.1,105.8
	c-3.3,1.1-6.5,2.7-9.2,5.4c-2.2,2.7-3.3,6-3.8,9.8c1.6-0.5,3.3-1.1,5.4-1.6c1.6-1.1,2.7-2.2,3.8-3.3
	C468,113.4,469.1,109.6,469.1,105.8L469.1,105.8z M465.8,73.2c-2.7,2.7-4.9,5.4-6,9.2c-0.5,1.1-0.5,2.7-0.5,4.3c0,2.2,0.5,4.3,1.1,6
	c1.1-1.6,2.7-2.7,3.8-3.8c1.1-1.6,1.6-3.3,2.2-4.9c0.5-1.1,0.5-2.7,0.5-3.8C467.5,78.1,466.9,75.9,465.8,73.2L465.8,73.2z M455,68.9
	c0,3.3,1.1,6.5,3.3,9.8c0.5-1.6,1.6-3.3,2.7-4.9c0.5-1.6,1.1-3.3,1.1-4.9l0,0c0-3.8-1.1-7.1-3.3-10.3C456.6,61.8,455,65.1,455,68.9
	L455,68.9L455,68.9z M446.3,53.2c0,1.1,0,2.7,0.5,3.8c0.5,3.3,2.7,6,5.4,8.7c0.5-1.6,1.1-3.8,1.6-5.4c0-0.5,0-0.5,0-1.1
	c0-1.1,0-2.2-0.5-3.8c-1.1-3.3-2.7-6.5-6-9.2C446.8,48.3,446.3,50.5,446.3,53.2L446.3,53.2z M444.7,59.7c-2.2-1.6-4.3-2.7-6.5-3.8
	c-3.3-1.1-7.1-0.5-10.3,0.5c1.6,2.2,3.8,3.8,6,4.9c3.8-0.5,8.1-0.5,11.4,0.5h0.5C445.2,61.3,445.2,60.8,444.7,59.7L444.7,59.7z
	 M434.4,39.1c0,2.7,0.5,5.4,1.6,8.1c1.6,3.3,4.3,5.4,7.6,7.1c0-2.2,0-3.8,0.5-6c-0.5-1.6-0.5-3.3-1.6-4.3c-1.6-3.3-4.3-6-7.6-7.6
	C434.4,37.4,434.4,38,434.4,39.1z M420.3,40.1c1.1,3.8,3.3,7.1,6,8.7c2.7,1.6,6,2.7,9.2,3.3c-1.1-1.1-1.6-2.2-2.7-3.8l0,0
	c-0.5-1.1-1.1-2.7-1.6-3.8c-0.5-0.5-0.5-0.5-1.1-1.1C427.8,41.2,424.6,40.1,420.3,40.1L420.3,40.1z M377.9,125.3c0,2.7,2.2,6,7.1,6
	h9.2c-1.1,3.3-2.2,8.1-2.2,13c0,6.5,1.1,11.9,3.3,15.7c-7.1-1.1-11.9-2.7-16.8-5.4h-0.5l-1.1,2.7h0.5c4.3,2.2,8.1,3.3,13,4.9
	c0,0,3.8,0.5,6.5,1.1c-0.5,0.5-1.1,1.6-1.1,2.7c0,2.2,1.6,3.8,3.8,3.8c2.2,0,3.8-1.6,3.8-3.8c0-1.1-0.5-2.2-1.1-2.7
	c2.7-0.5,6-1.1,6-1.1c4.9-1.1,9.2-2.2,13.6-4.9h0.5l-1.1-3.3h-0.5c-4.9,2.7-9.8,4.3-16.8,5.4c1.6-3.8,3.3-9.2,3.3-15.7
	c0-4.9-0.5-9.8-2.2-13h9.2c4.9,0,7.1-2.7,7.1-6c0-2.2-1.6-4.3-4.3-4.3c-2.2,0-4.3,1.6-4.3,4.3c0,0.5,0,1.1,0.5,1.6
	c0.5,0.5,0.5,1.6-1.1,1.6h-5.4V59.1c0-9.2-0.5-20.6-6-31.5l-1.6-3.3l-1.6,3.3c-5.4,10.8-6,22.2-6,31.5V128h-5.4
	c-1.6,0-1.1-1.1-1.1-1.6c0-0.5,0.5-1.1,0.5-1.6c0-2.2-1.6-4.3-3.8-4.3C380.1,121,377.9,123.1,377.9,125.3L377.9,125.3z M366.5,133.5
	c-1.1-2.2-2.7-3.8-4.9-5.4c-0.5,1.6-1.1,3.3-1.1,4.9c0,1.6,0.5,3.8,1.1,5.4c0.5,2.7,2.2,4.3,3.8,6.5c0.5,0,1.6,0.5,2.2,0.5v-0.5
	C366.5,141.6,366,137.8,366.5,133.5L366.5,133.5z M363.3,64.6c-3.3-0.5-7.1,0-10.3,1.6c-2.2,1.1-4.3,2.7-5.4,4.9
	c0,1.1,0,1.6-0.5,2.7h0.5c3.3-2.2,7.1-3.3,11.4-3.3C360.6,68.9,362.2,66.7,363.3,64.6L363.3,64.6z M359.5,124.8
	c-0.5-2.2-2.2-4.3-3.8-6.5c-1.6,2.7-2.7,5.4-2.7,8.7c0,0.5,0,1.1,0,1.6c0,2.7,1.1,4.9,2.7,7.1c0.5,0.5,1.6,1.1,2.2,1.6v-0.5
	C357.3,132.4,357.9,129.1,359.5,124.8L359.5,124.8z M347,118.8c0,1.6,0.5,3.3,1.1,5.4c0.5,0.5,1.1,1.1,1.6,1.6c0,0,0-0.5,0.5-0.5
	c0.5-3.8,1.6-7.6,3.8-10.8c0-2.7-1.1-4.9-2.2-7.1c-2.7,2.7-4.3,6-4.9,9.2C347,117.2,347,118.3,347,118.8L347,118.8z M351.4,103.6
	c0.5-1.1,0.5-2.2,0.5-3.3c0-1.1-0.5-2.7-0.5-3.8c-3.3,2.2-5.4,4.3-7.1,7.6c-1.1,2.2-1.1,4.3-1.1,6.5c0,0.5,0,0.5,0,1.1
	c0.5,0.5,1.1,1.6,1.1,2.2c0,0,0.5,0,0.5-0.5C345.9,109.6,348.1,106.3,351.4,103.6L351.4,103.6z M343.2,84.1c0,0.5,0,1.6,0,2.2h0.5
	c2.7-2.7,6-4.3,9.8-5.4c1.6-2.2,2.7-4.3,3.3-6.5c-3.8,0.5-7.1,1.6-9.8,3.8C345.4,79.2,343.8,81.9,343.2,84.1L343.2,84.1z
	 M341.6,97.6c0.5,0.5,0.5,1.6,0.5,2.7c0,0,0,0,0.5,0c2.2-3.3,4.9-6,8.7-7.6c1.1-2.2,1.6-4.9,1.6-7.6c-3.8,1.1-6.5,3.3-8.7,6
	C342.7,92.8,341.6,94.9,341.6,97.6L341.6,97.6z M339.4,111.2c-2.2-2.7-5.4-4.3-9.2-5.4c0.5,3.8,1.6,7.1,3.8,9.8
	c1.1,1.1,2.7,2.2,3.8,3.3c1.6,0.5,3.3,1.1,4.9,1.6C342.7,117.2,341.6,113.9,339.4,111.2L339.4,111.2z M334,121.5
	c1.1,3.8,3.3,7.1,6,9.2c1.1,1.1,2.7,1.6,4.3,2.2c2.2,0,3.8,0,5.4,0.5c-1.6-3.3-3.3-6.5-6-8.1l0,0C341.6,122.6,337.8,121.5,334,121.5
	L334,121.5z M341.6,136.7c2.2,3.3,4.3,5.4,8.1,7.1c1.6,0.5,3.3,1.1,4.9,1.1c1.6-0.5,3.8-0.5,5.4-1.1c-2.2-2.7-4.9-5.4-7.6-6.5
	C349.2,135.6,345.4,135.6,341.6,136.7L341.6,136.7z M352.4,149.2c2.7,2.7,6,4.3,9.8,4.9c3.3,0.5,7.1-0.5,10.3-1.6
	c-2.7-2.7-6-4.3-9.8-4.9l0,0C359.5,146.5,355.7,147.6,352.4,149.2z M380.7,152.4c0-0.5,0-0.5,0-1.1c0-3.3-1.1-6.5-2.7-9.2l0,0
	c-2.2-2.7-4.9-4.9-8.1-6.5c0,0.5,0,0.5,0,1.1c0,3.3,1.1,6.5,2.7,9.2C374.1,149.2,376.9,151.4,380.7,152.4z M366.5,48.3
	c-0.5,1.1-1.6,2.7-2.7,3.8c3.3,0,6.5-1.1,9.2-3.3c2.7-2.2,4.9-5.4,6.5-8.7c-3.8,0-7.6,1.1-10.3,3.3c-0.5,0.5-0.5,0.5-1.1,1.1
	C367.6,45.6,367.1,47.2,366.5,48.3L366.5,48.3z M355.7,48.3c0.5,2.2,0.5,3.8,0.5,6c3.3-1.6,6-4.3,7.1-7.1c1.6-2.7,2.2-5.4,2.2-8.1
	c0-1.1,0-1.6-0.5-2.7c-3.3,1.6-6,4.3-7.6,7.6C356.8,45.6,356.2,46.7,355.7,48.3L355.7,48.3z M354.1,62.4
	C354.1,62.4,354.6,62.4,354.1,62.4c4.3-1.1,8.1-1.1,11.9-0.5c2.2-1.1,4.3-2.7,6-4.9c-3.3-1.1-7.1-1.6-10.3-0.5
	c-2.7,0.5-4.9,1.6-6.5,3.8C354.6,60.8,354.6,61.3,354.1,62.4L354.1,62.4z M345.4,59.1c0,0.5,0,0.5,0,1.1c1.1,1.6,1.6,3.8,1.6,5.4
	c2.7-2.7,4.3-5.4,5.4-8.7c0.5-1.1,0.5-2.7,0.5-3.8c0-2.2-0.5-4.9-1.6-7.1c-2.7,2.7-4.9,5.4-6,9.2C345.9,56.4,345.4,57.5,345.4,59.1
	L345.4,59.1z M337.8,68.9c0,1.6,0.5,3.3,1.1,4.9c1.1,1.6,2.2,3.3,2.7,4.9c1.6-2.7,3.3-6,3.3-9.8l0,0c0-3.3-1.6-7.1-3.3-10.3
	C339.4,61.8,337.8,65.1,337.8,68.9L337.8,68.9L337.8,68.9z M332.4,80.3c0,1.6,0,2.7,0.5,3.8c0.5,1.6,1.1,3.3,2.2,4.9
	c1.6,1.1,2.7,2.2,3.8,3.8c0.5-2.2,1.1-4.3,1.1-6c0-1.6,0-2.7-0.5-4.3c-1.1-3.3-3.3-6.5-6-9.2C332.9,75.4,332.4,78.1,332.4,80.3
	L332.4,80.3z M329.7,91.7c0,2.7,0.5,6,2.2,8.1c0.5,1.6,1.6,2.7,3.3,3.8c1.6,0.5,3.3,1.6,4.9,2.7c0-0.5,0-1.6,0-2.2
	c0-2.7-0.5-5.4-2.2-8.1c-1.6-3.3-4.3-6-8.1-7.6C329.7,90.1,329.7,91.1,329.7,91.7z M197.8,134.5c3.8-2.7,8.7-3.8,14.6-3.8
	c6.5,0,13,1.1,20.1,3.3c7.1,1.6,15.2,3.8,22.8,3.3c0-3.8,0-79.7,0-93.9c0-1.1,0-1.6,0-2.2c-8.1,0.5-16.3-1.6-23.9-3.3
	c-6.5-1.6-13-3.3-18.4-2.7c-8.1,0-12.5,2.7-15.2,4.9v3.3V134.5z M136.5,136.7c7.6,0.5,15.2-1.1,22.8-3.3c7.1-1.6,13.6-3.3,20.1-3.3
	c6,0,10.8,1.6,14.6,3.8V43.4v-3.3c-2.7-2.7-7.1-4.9-15.2-4.9c-6,0-11.9,1.1-18.4,2.7c-7.6,2.2-15.2,3.8-23.9,3.3c0,0.5,0,1.1,0,2.2
	C136.5,57,136.5,133.5,136.5,136.7z M121.9,151.9c0,0,63.5,0,65.6,0c1.6,2.7,4.3,4.9,8.1,4.9c3.8,0,7.1-2.2,8.1-4.9
	c2.2,0,65.6,0,65.6,0V43.4h-2.2h-6l0.5,2.2v0.5v98.2c-4.9,0-58,0-60.8,0c-1.1,1.6-2.2,2.2-5.4,2.2c-2.7,0-3.8-0.5-4.9-2.2
	c-2.7,0-51.5,0-61.3,0V46.1v-0.5l0.5-2.2h-8.1L121.9,151.9z M145.8,369.4l154.6-138.9L455.5,370c10.3-19.5,17.4-38.5,23.3-56.4
	L300.4,153L122.4,313C127.8,330.9,135.4,349.9,145.8,369.4z M178.8,106.9c3.8,0,7.1,0.5,9.2,1.6v-4.9c-2.7-1.1-6-1.1-9.2-1.6
	c-6.5,0-13,1.6-20.1,3.3c-5.4,1.6-10.8,2.7-16.8,3.3v4.3c6-0.5,11.9-2.2,17.9-3.3C166.9,108.5,172.9,106.9,178.8,106.9z
	 M178.8,118.3c3.8,0,7.1,0.5,9.2,1.6V115c-2.7-1.1-6-1.6-9.2-1.6c-6.5,0-13,1.6-20.1,3.3c-5.4,1.6-10.8,2.7-16.8,3.3v4.3
	c6-0.5,11.9-2.2,17.9-3.3C166.9,119.3,172.9,117.7,178.8,118.3z M178.8,51.5c3.8,0,7.1,1.1,9.2,1.6v-4.9c-2.7-1.1-6-1.1-9.2-1.6
	c-6.5,0-13,1.6-20.1,3.3c-5.4,1.6-10.8,2.7-16.8,3.3v4.3c6-0.5,11.9-1.6,17.9-3.3C166.9,52.6,172.9,51.5,178.8,51.5z M231.5,77
	c5.4,1.6,11.4,2.7,17.9,3.3v-4.3c-5.4-0.5-11.4-1.6-16.8-3.3c-7.1-1.6-13.6-3.3-20.1-3.3c-3.3,0-6.5,0.5-9.2,1.6v4.9
	c2.2-1.1,5.4-1.6,9.2-1.6C218.4,73.2,225,74.9,231.5,77z M231.5,54.8c5.4,1.6,11.4,2.7,17.9,3.3v-4.3c-5.4-0.5-11.4-1.6-16.8-3.3
	c-7.1-1.6-13.6-3.3-20.1-3.3c-3.3,0-6.5,0.5-9.2,1.6v4.9c2.2-1.1,5.4-1.6,9.2-1.6C218.4,51.5,225,52.6,231.5,54.8z M231.5,98.7
	c5.4,1.1,11.9,2.7,17.9,3.3v-4.3c-6-0.5-11.4-1.6-16.8-3.3c-7.1-1.6-13.6-3.3-19.5-3.3c-3.3,0-6.5,0.5-9.2,1.1v4.9
	c2.2-1.1,5.4-1.6,9.2-1.6C218.4,95.5,225,97.1,231.5,98.7L231.5,98.7z M231.5,65.6c5.4,1.6,11.4,2.7,17.9,3.3v-4.3
	c-5.4-0.5-11.4-1.6-16.8-3.3c-7.1-1.6-13.6-3.3-20.1-3.3c-3.3,0-6.5,0.5-9.2,1.6v4.9c2.2-1.1,5.4-1.6,9.2-1.6
	C218.4,62.4,225,64,231.5,65.6z M231.5,110.1c5.4,1.6,11.4,2.7,17.9,3.3V109c-5.4-0.5-11.4-2.2-16.8-3.3c-7.1-1.6-13.6-3.3-20.1-3.3
	c-3.3,0-6.5,0.5-9.2,1.6v4.9c2.2-1.1,5.4-1.6,9.2-1.6C218.4,106.9,225,108.5,231.5,110.1z M231.5,121c5.4,1.6,11.4,2.7,17.9,3.3
	v-4.3c-5.4-0.5-11.4-1.6-16.8-3.3c-7.1-1.6-13.6-3.3-20.1-3.3c-3.3,0-6.5,0.5-9.2,1.6v4.9c2.2-1.1,5.4-1.6,9.2-1.6
	C218.4,117.7,225,119.3,231.5,121z M577.6,351.5l-1.1,2.7c-10.3,34.2-27.7,68.4-40.1,90.6l-2.7,4.3l-17.9-16.3
	c-0.5,1.1-1.6,2.7-2.2,3.8C468,509.4,404,562,327.5,590.2l-27.1,9.8l-27.1-9.8c-75.9-27.7-140.5-80.8-185.5-153.5
	c-0.5-1.1-1.1-2.7-2.2-3.8l-18.4,16.3l-2.7-4.9c-12.5-22.8-29.3-57-40.1-90.6l-0.5-2.2l43.9-39.6l5.4-4.9l2.2,6.5
	c2.2,8.1,4.9,15.7,7.6,23.3l12.5-11.4l4.9-4.3l2.2,6.5c9.2,27.7,21.7,53.7,36.3,77c38.5,61.3,92.2,105.8,155.7,129.1
	c0,0,4.3,1.6,6.5,2.2c2.2-0.5,6.5-2.2,6.5-2.2c63.5-23.3,117.7-67.8,155.7-129.1c14.6-23.3,27.1-49.4,36.3-77l2.2-6.5l17.4,15.7
	c2.7-7.6,5.4-15.2,7.6-23.3l2.2-6.5L577.6,351.5z M60,416.6l-8.1-51.5l23.9-21.7c-2.7-6.5-4.9-13.6-7.1-20.6
	c-7.1,6.5-31.5,28.2-34.7,31.5C41,375.9,50.3,397.6,60,416.6z M81.2,425.3c-5.4-9.2-10.8-19-15.2-28.8l6,37.4
	C73.6,431.8,77.4,428.6,81.2,425.3z M535.3,396.6c-4.3,9.8-9.8,19.5-15.2,28.8l0,0c3.8,3.3,7.1,6.5,9.2,8.7L535.3,396.6z
	 M538.5,366.7c-3.8-3.3-27.1-24.4-33.6-30.4c-9.2,26-20.6,51-34.7,73.2c-39.1,62.9-94.4,108.5-160,132.9l-9.8,3.3l-9.2-3.3
	c-65.6-23.9-120.4-70-160-132.9c-14.1-22.2-25.5-47.2-34.7-73.2c-7.1,6-29.8,27.1-33.6,30.4c8.7,22.8,20.1,45,32.5,65.1
	c44.5,71.1,107.4,122.6,181.7,149.7c0,0,21.7,7.6,23.9,8.7c2.7-1.1,24.4-8.7,24.4-8.7c74.3-27.1,137.3-79.2,181.7-149.7
	C518.4,412.3,529.8,390.1,538.5,366.7L538.5,366.7z M567.3,353.7c-3.3-3.3-27.7-25-34.7-31.5c-2.2,7.1-4.3,14.1-7.1,20.6l23.9,21.7
	l-8.1,52.1C550.5,397.6,560.2,375.9,567.3,353.7L567.3,353.7z M99.6,419.9l0.5,2.2l-1.6,1.1c-1.1-1.6-1.6-3.3-2.7-5.4
	c-1.1-1.6-2.2-3.3-3.3-5.4l1.6-0.5l1.6,1.6c1.6-1.6,4.3-3.8,5.4-6l-3.8-7.1l-7.6,1.6l0.5,2.2l-1.1,0.5c-0.5-1.6-1.6-2.7-2.2-4.3
	c-0.5-1.1-1.1-2.2-2.2-3.8l1.6-0.5l1.6,1.6c5.4,0,16.8-2.2,23.9-3.3c1.1,1.6,2.7,2.7,3.8,3.8l0.5,2.2l-7.1,8.7
	C105.6,412.8,101.3,418.3,99.6,419.9L99.6,419.9z M104,405.2l6.5-7.1l0,0l-9.8,2.2L104,405.2z M143.6,445.4l1.1-1.1
	c-1.1-1.1-1.6-2.2-2.7-3.8c-1.1-1.1-1.6-2.7-2.7-3.8l-1.6,1.1l1.1,2.2c-3.8,2.7-12.5,9.8-12.5,9.8l0,0c2.2-6.5,4.9-14.1,7.6-20.6
	c-1.1-1.1-1.6-2.2-2.7-3.3c-0.5-1.1-1.6-2.2-2.2-3.3l-1.1,1.1l1.1,2.2c-1.6,1.6-3.3,2.7-5.4,4.3l-6,4.3c-2.2,1.6-3.8,2.7-6,3.8
	l-1.6-1.6l-1.1,1.1c1.1,1.1,1.6,2.2,2.7,3.8c1.1,1.1,1.6,2.7,2.7,3.8l1.1-1.1l-1.6-2.7c3.8-2.7,8.7-6.5,13-9.8l0,0
	c-2.7,6.5-4.9,13.6-7.6,21.2c0.5,0.5,1.1,1.6,1.6,2.2c0.5,0.5,1.1,1.6,1.6,2.2c2.2-1.6,4.3-3.8,7.6-6l6-4.3c2.2-1.6,4.3-2.7,6-3.8
	L143.6,445.4z M145.8,465.5c-6,5.4-5.4,13.6-0.5,18.4c3.3,3.3,6.5,5.4,12.5,6l0.5-3.3c-3.3-0.5-6-1.6-7.6-3.8
	c-3.8-3.8-3.8-9.2,0.5-13.6c4.3-4.3,9.2-2.7,11.9,0.5c1.6,1.6,2.7,3.8,2.7,6l-1.1,2.2l1.1,1.6c1.6-1.1,3.8-2.7,5.4-3.3
	c-1.1-3.3-2.7-5.4-4.9-8.1C160.4,461.1,151.7,460,145.8,465.5L145.8,465.5z M198.4,515.4c-4.9,6-12.5,6.5-20.1,0.5
	c-7.1-6-8.1-13-2.7-20.1c4.9-6,13-6.5,20.1-0.5C202.7,501.3,203.8,508.9,198.4,515.4z M192.9,498.6c-3.8-3.3-8.7-1.6-12.5,2.2
	c-3.8,4.3-3.8,9.2,0,12.5c3.8,3.3,8.7,1.6,12.5-2.2C196.2,506.7,196.7,501.3,192.9,498.6L192.9,498.6z M236.3,533.3
	c-1.6,3.3-5.4,3.8-9.2,2.2c0.5,2.7,1.6,11.9,2.2,13.6l0.5,1.1l-1.1,1.6c-2.2-1.6-4.9-2.7-7.1-3.8c0-4.3-0.5-10.8-1.1-14.6l-1.6-1.1
	l-1.1,2.2c-1.6,2.2-2.7,4.3-3.3,6l1.6,1.6l-1.1,1.6c-1.6-1.1-3.3-2.2-4.9-3.3c-1.6-1.1-3.3-2.2-5.4-3.3l1.1-1.6l2.2,1.1
	c1.6-1.6,2.7-3.8,4.3-6l3.8-6.5c1.6-2.2,2.7-4.3,3.8-6l-1.6-1.6l1.1-1.6c1.1,1.1,2.7,1.6,3.8,2.7c1.6,1.1,3.3,1.6,4.9,2.7
	c1.6,1.1,3.3,1.6,4.9,2.7C238.5,526.2,238.5,530,236.3,533.3L236.3,533.3z M228.2,524.1c-1.6-1.1-2.2-1.1-3.3-1.6
	c-0.5,1.1-1.6,2.7-2.7,4.3l-1.1,1.6c0.5,0.5,1.1,1.1,1.6,1.6c3.3,2.2,6,2.2,7.6-0.5C231.5,527.3,230.9,525.7,228.2,524.1
	L228.2,524.1z M269.4,553.3c-0.5,4.9-1.1,11.9-1.1,14.6l1.6,1.1l-0.5,1.6c-1.6-1.1-3.8-1.6-5.4-2.7c-1.6-1.1-3.8-1.6-5.4-2.2
	l0.5-1.6l2.2,0.5c0.5-2.2,1.1-5.4,1.1-7.6l-7.6-3.3l-4.9,6l1.6,1.1l-0.5,1.6c-1.6-0.5-3.3-1.6-4.3-2.2c-1.1-0.5-2.7-1.1-3.8-1.6
	l0.5-1.6l2.2,0.5c4.3-3.3,11.9-11.4,17.4-17.4c2.2,0.5,3.8,0.5,5.4,1.1l2.2,1.6L269.4,553.3z M264,543.6L264,543.6l-6.5,7.6l5.4,2.7
	L264,543.6z M343.8,562.6c-1.1-2.2-2.2-3.8-3.3-6.5l-2.7-6.5c-1.1-2.7-2.2-4.3-2.7-6.5l2.2-1.1l-0.5-1.6c-1.6,1.1-3.8,1.6-5.4,2.7
	c-1.6,0.5-3.8,1.6-5.4,2.2l0.5,1.6l2.2-0.5c1.1,2.2,2.2,3.8,3.3,6.5l2.7,6.5c1.1,2.7,1.6,4.3,2.7,6.5l-2.2,1.1l0.5,1.6
	c1.6-1.1,3.8-1.6,5.4-2.7c1.6-0.5,3.8-1.6,5.4-2.2l-0.5-1.6L343.8,562.6z M390.4,537.6c-1.1-1.6-2.7-3.8-3.8-6l-3.8-6.5
	c-1.6-2.2-2.7-4.3-3.3-6l1.6-1.6l-1.1-1.6c-1.6,1.1-3.3,2.2-4.3,2.7c-1.6,1.1-3.3,1.6-4.9,2.7c1.1,3.3,3.3,16.3,3.8,19
	c-2.7-2.2-12.5-9.8-14.6-12.5c-1.6,1.1-3.3,2.2-4.3,2.7c-1.6,1.1-3.3,1.6-4.9,2.7l1.1,1.6l2.2-0.5l1.6,3.3c1.6,3.3,7.6,13,8.7,15.7
	l-1.6,1.6l1.1,1.6c1.1-0.5,2.7-1.6,3.8-2.2c1.1-0.5,2.7-1.6,3.8-2.2l-1.1-1.6l-2.2,1.1c-1.1-1.6-2.7-3.8-3.8-6l-2.2-3.8
	c-1.6-3.3-3.3-5.4-3.8-6.5l0,0c9.2,8.1,14.6,11.9,16.8,14.1l3.3-2.2l-4.3-21.7l0,0c0.5,1.1,2.2,3.3,3.8,6.5l2.2,3.8
	c1.6,2.2,2.2,4.3,3.3,6.5l-1.6,1.6l0.5,1.6c1.6-1.1,3.3-2.2,4.9-3.3c1.6-1.1,3.8-2.2,5.4-3.3l-0.5-1.6L390.4,537.6z M415.4,518.6
	c-1.6-1.6-3.3-3.3-4.9-5.4l-3.3-4.3c-1.6-1.6-3.3-3.8-4.3-6c0.5-0.5,1.1-1.6,2.2-2.2c2.7-2.2,4.9-1.6,6.5,0c1.6,2.2,2.2,4.9-0.5,6.5
	c-0.5,0.5-1.1,1.1-1.6,1.1l1.1,3.3c1.1-0.5,2.2-1.6,3.3-2.2c5.4-4.3,5.4-9.8,2.7-13.6c-2.7-3.3-7.1-3.8-11.4,0
	c-1.1,1.1-2.2,2.2-3.8,3.3c-1.6,1.6-3.3,2.7-4.3,3.8c-1.1,1.1-2.7,2.2-4.3,3.3l1.1,1.1l2.2-1.1c1.6,1.6,3.3,3.3,4.9,5.4l4.3,6
	c1.6,2.2,3.3,3.8,4.3,5.4l-1.6,1.6l1.1,1.1c1.6-1.1,3.3-2.7,4.9-3.8c1.6-1.1,3.3-2.2,5.4-4.3l-1.1-1.1L415.4,518.6z M458.2,479.6
	l1.1,1.1c-1.6,1.1-2.7,2.7-4.3,4.3c-1.6,1.6-2.7,3.3-4.3,4.3l-1.1-1.1l1.1-1.6c-1.6-1.1-4.9-2.7-7.1-3.8l-6,6l3.8,6.5l1.6-1.1
	l1.1,1.1c-1.1,1.1-2.2,2.2-3.3,3.3c-1.1,1.1-2.2,2.2-2.7,3.3l-1.1-1.1l1.1-1.6c-1.6-4.9-7.1-15.2-10.3-22.2c1.1-1.6,2.2-3.3,2.7-4.9
	l2.2-1.1l9.8,4.3c4.3,2.2,10.8,4.9,13,5.4L458.2,479.6z M441.4,481.2l-9.2-4.3l0,0l4.9,8.7L441.4,481.2z M485.9,444.3l1.1,1.1
	c-1.6,2.2-3.3,4.3-4.3,6.5c-4.9,0-11.4-0.5-15.2-0.5l-1.1,1.6l1.6,1.6c2.2,1.6,3.8,2.7,6,3.8l1.6-1.6l1.6,1.1
	c-1.1,1.6-2.7,3.3-3.8,4.9c-1.1,1.6-2.2,3.3-3.8,4.9l-1.6-1.1l1.1-2.2c-1.6-1.6-3.3-2.7-5.4-4.3l-6-4.3c-2.2-1.6-3.8-2.7-6-4.3
	l-1.6,1.6l-1.6-1.1c1.1-1.1,2.2-2.2,2.7-3.8c1.1-1.6,2.2-2.7,3.3-4.3c1.1-1.6,2.2-2.7,3.3-4.3c4.3-6,8.1-5.4,10.8-3.3
	c2.7,2.2,3.3,6,1.6,9.2c2.7,0,11.9-0.5,13.6-0.5L485.9,444.3z M465.8,442.1c-1.6-1.6-3.8-1.1-5.4,1.6c-1.1,1.1-1.6,2.2-2.2,2.7
	c1.1,0.5,2.2,2.2,4.3,3.3l1.6,1.1c0.5-0.5,1.1-1.1,1.6-1.6C468,446.5,468,444.3,465.8,442.1L465.8,442.1z M504.3,419.3
	c-4.9,8.1-11.9,10.3-19,6c-6.5-3.8-8.7-11.4-3.8-19.5c4.9-8.1,11.4-10.3,19-6C507.1,403.1,509.2,411.2,504.3,419.3L504.3,419.3z
	 M496.7,405.8c-4.9-2.7-9.8-2.2-12.5,1.6c-2.7,4.3-0.5,8.7,4.3,11.9c4.9,2.7,9.8,2.2,12.5-1.6C503.8,413.4,501.6,408.5,496.7,405.8z
	 M300.4,559.3c-2.7,0-5.4,2.7-5.4,6c0,3.3,2.7,6,5.4,6c3.3,0,6-2.7,6-6C306.3,562,303.6,559.3,300.4,559.3z M88.8,378.7
	c3.3,0,6-2.7,6-5.4c0-3.3-2.7-6-6-6c-3.3,0-5.4,2.7-5.4,6C83.4,375.9,86.1,378.7,88.8,378.7z M513,378.7c3.3,0,6-2.7,6-5.4
	c0-3.3-2.7-6-6-6c-2.7,0-5.4,2.7-5.4,6C507.1,375.9,509.8,378.7,513,378.7z"/>
</svg>
