<?xml version="1.0" encoding="utf-8"?>
<!-- Generator: Adobe Illustrator 25.1.0, SVG Export Plug-In . SVG Version: 6.00 Build 0)  -->
<svg version="1.1" id="Layer_1" xmlns="http://www.w3.org/2000/svg" xmlns:xlink="http://www.w3.org/1999/xlink" x="0px" y="0px"
	 viewBox="0 0 600 600" style="enable-background:new 0 0 600 600;" xml:space="preserve">
<style type="text/css">
	.st0{fill:#BB0000;}
	.st1{fill:none;stroke:#FFFFFF;stroke-width:30;stroke-miterlimit:10;}
	.st2{fill:#666666;}
</style>
<path class="st0" d="M494.8,133.2l-93.7-93.4H198.3l-94.1,94.1v333.5l94.1,94.2h202.7l93.7-93.2L494.8,133.2L494.8,133.2z
	 M200.5,174.4l37.9-37.9h122.7l37.9,37.9v252.5l-37.9,37.9H238.4l-37.9-37.9V174.4z"/>
<g>
	<path class="st1" d="M189.5,15L82.3,122.2v354.9L188.8,585h221.8l107.2-107.4V122.2L411.3,15H189.5L189.5,15z M406.9,24.7
		l100.2,100.5l0.3,348.3L406.2,574.7H193.9l-101.9-102V126.5L193.9,24.7H406.9L406.9,24.7z M245.3,151l-29.6,29.6v240.1l29,29.1
		h110.5l28.8-28.8V181.2L353.8,151H245.3z M249.6,160.7h100.7l24,24v232.1L351.1,440H248.6l-22.8-22.7V184.5L249.6,160.7z"/>
	<path class="st2" d="M189.5,15L82.3,122.2v354.9L188.8,585h221.8l107.2-107.4V122.2L411.3,15H189.5L189.5,15z M406.9,24.7
		l100.2,100.5l0.3,348.3L406.2,574.7H193.9l-101.9-102V126.5L193.9,24.7H406.9L406.9,24.7z M245.3,151l-29.6,29.6v240.1l29,29.1
		h110.5l28.8-28.8V181.2L353.8,151H245.3z M249.6,160.7h100.7l24,24v232.1L351.1,440H248.6l-22.8-22.7V184.5L249.6,160.7z"/>
</g>
</svg>
