<?xml version="1.0" encoding="utf-8"?>
<!-- Generator: Adobe Illustrator 25.1.0, SVG Export Plug-In . SVG Version: 6.00 Build 0)  -->
<svg version="1.1" id="Layer_1" xmlns="http://www.w3.org/2000/svg" xmlns:xlink="http://www.w3.org/1999/xlink" x="0px" y="0px"
	 viewBox="0 0 600 600" style="enable-background:new 0 0 600 600;" xml:space="preserve">
<style type="text/css">
	.st0{fill:#BB0000;}
	.st1{fill:#666666;}
</style>
<path class="st0" d="M497.2,124.4l-98.6-98.3H185.2l-99.1,99.1v351l99.1,99.2h213.4l98.6-98.1V124.4z M187.5,167.8l39.9-39.9h129.2
	l39.9,39.9v265.8l-39.9,39.9H227.4l-39.9-39.9L187.5,167.8z"/>
<path class="st1" d="M175.9,0L63,112.8v373.6L175.1,600h233.5l112.8-113V112.8L409.4,0H175.9L175.9,0z M404.7,10.2L510.2,116
	l0.3,366.6L404,589.2H180.5L73.2,481.8V117.4L180.5,10.2L404.7,10.2L404.7,10.2z M234.6,143.2l-31.2,31.2v252.7l30.5,30.6h116.3
	l30.3-30.3V174.9l-31.7-31.7L234.6,143.2z M239.1,153.4h106l25.3,25.3V423L346,447.4H238.1l-24-23.9V178.4L239.1,153.4z"/>
</svg>
