<svg id="svg" version="1.1" xmlns="http://www.w3.org/2000/svg" xmlns:xlink="http://www.w3.org/1999/xlink" width="400" height="400" viewBox="0, 0, 400,400"><g id="svgg"><path id="path0" d="M160.600 89.152 C 160.160 89.335,158.270 89.713,156.400 89.992 C 154.530 90.271,152.460 90.816,151.800 91.204 C 151.140 91.592,150.163 92.042,149.629 92.204 C 144.963 93.622,140.765 100.362,139.992 107.675 C 139.274 114.467,139.202 292.444,139.916 295.889 C 142.206 306.946,151.423 312.780,166.630 312.797 C 170.965 312.802,177.766 311.731,179.286 310.804 C 180.009 310.363,180.854 310.002,181.165 310.001 C 184.652 309.992,191.228 301.964,192.356 296.341 C 193.072 292.765,193.089 240.837,192.374 239.700 C 191.485 238.287,176.933 238.287,176.609 239.700 C 176.496 240.195,176.357 253.560,176.301 269.400 L 176.200 298.201 175.054 300.000 C 171.319 305.864,161.008 306.028,156.933 300.288 C 156.055 299.051,154.501 290.407,155.010 289.585 C 155.112 289.420,155.198 248.362,155.203 198.346 C 155.211 97.409,155.048 103.384,157.884 100.352 C 161.543 96.440,170.452 96.428,174.044 100.331 C 176.549 103.052,176.501 102.427,176.419 131.626 C 176.380 145.391,176.466 157.124,176.611 157.700 C 177.001 159.256,178.567 159.600,185.250 159.600 C 193.370 159.600,192.480 163.134,192.317 131.530 L 192.181 105.400 190.845 102.200 C 189.010 97.804,185.286 93.366,182.600 92.373 C 181.940 92.129,180.860 91.637,180.200 91.279 C 177.307 89.713,162.987 88.159,160.600 89.152 M236.709 89.025 C 236.585 89.148,234.800 89.519,232.742 89.849 C 223.507 91.330,217.635 96.571,215.715 105.046 C 213.941 112.872,214.937 146.483,217.177 154.400 C 217.582 155.830,218.031 157.810,218.176 158.800 C 218.322 159.790,218.698 160.994,219.013 161.475 C 219.328 161.956,219.773 163.216,220.002 164.275 C 220.353 165.898,221.956 169.748,223.220 172.000 C 223.405 172.330,224.378 174.220,225.381 176.200 C 226.384 178.180,228.160 181.600,229.326 183.800 C 235.499 195.444,237.217 198.731,240.096 204.400 C 241.827 207.810,243.398 210.870,243.587 211.200 C 243.775 211.530,244.370 212.790,244.907 214.000 C 245.445 215.210,246.292 217.100,246.789 218.200 C 247.285 219.300,247.948 221.180,248.261 222.377 C 248.574 223.574,248.991 224.748,249.187 224.985 C 249.384 225.221,249.752 226.672,250.006 228.207 C 250.259 229.743,250.857 232.350,251.333 234.000 C 252.189 236.961,252.200 237.401,252.200 267.800 L 252.200 298.600 250.731 300.600 C 248.384 303.796,247.403 304.200,241.989 304.200 C 235.435 304.200,233.151 302.499,231.336 296.265 L 230.386 293.000 230.435 266.025 C 230.482 240.186,230.453 239.028,229.742 238.499 C 228.820 237.814,215.907 237.931,215.208 238.631 C 214.404 239.437,214.886 291.049,215.737 295.286 C 217.146 302.297,221.761 308.859,226.105 310.028 C 227.037 310.279,228.318 310.752,228.951 311.079 C 234.922 314.164,254.572 312.609,260.407 308.590 C 268.289 303.160,268.846 300.453,269.093 266.400 C 269.322 234.746,268.175 225.201,262.769 213.774 C 262.346 212.879,262.000 211.917,262.000 211.635 C 262.000 211.354,261.664 210.646,261.252 210.062 C 260.841 209.478,260.366 208.550,260.195 208.000 C 259.807 206.748,253.567 194.460,252.666 193.173 C 252.300 192.650,252.000 191.973,252.000 191.669 C 252.000 191.364,251.550 190.581,251.000 189.927 C 250.450 189.273,250.000 188.417,250.000 188.023 C 250.000 187.630,249.665 186.879,249.255 186.354 C 248.845 185.829,248.371 184.950,248.201 184.400 C 248.031 183.850,247.138 182.050,246.216 180.400 C 233.278 157.232,230.027 144.284,230.597 118.200 C 230.897 104.456,231.408 101.734,234.075 99.684 C 238.094 96.595,246.897 96.914,250.079 100.264 C 252.658 102.979,252.570 101.943,252.699 131.000 C 252.806 155.114,252.874 157.443,253.485 157.900 C 254.771 158.863,267.256 158.580,268.347 157.563 L 269.245 156.727 269.066 139.063 C 268.879 120.581,268.294 105.838,267.668 103.800 C 265.554 96.918,259.080 91.028,252.725 90.207 C 251.556 90.056,249.584 89.678,248.342 89.366 C 246.160 88.819,237.178 88.555,236.709 89.025 M315.959 88.972 C 315.826 89.106,313.870 89.567,311.612 89.998 C 309.354 90.428,307.287 90.962,307.018 91.185 C 306.750 91.407,305.801 91.847,304.908 92.162 C 300.685 93.652,297.325 98.144,295.558 104.663 L 294.600 108.200 294.496 201.186 L 294.392 294.172 295.449 297.346 C 297.487 303.466,302.406 309.154,306.576 310.213 C 307.555 310.462,308.611 310.877,308.923 311.136 C 311.534 313.303,329.876 313.080,334.185 310.828 C 335.056 310.373,336.030 310.000,336.350 310.000 C 338.368 310.000,344.072 304.638,345.588 301.314 C 346.069 300.262,346.763 298.860,347.131 298.200 C 347.951 296.729,348.395 241.086,347.599 239.598 C 347.196 238.845,346.755 238.800,339.776 238.800 L 332.380 238.800 331.990 239.826 C 331.750 240.457,331.599 251.588,331.598 268.726 L 331.596 296.600 330.632 299.000 C 327.638 306.455,314.825 306.496,311.351 299.062 L 310.200 296.600 310.079 202.400 C 309.995 136.852,310.088 107.523,310.385 105.973 C 311.544 99.926,314.700 97.564,321.555 97.617 C 326.747 97.658,328.800 98.734,330.675 102.400 L 331.800 104.600 332.000 131.600 C 332.110 146.450,332.340 158.816,332.512 159.081 C 332.739 159.431,334.751 159.540,339.900 159.481 L 346.977 159.400 347.500 158.400 C 347.919 157.599,347.994 152.512,347.875 132.800 L 347.726 108.200 346.716 104.795 C 344.066 95.862,339.596 91.785,330.400 89.913 C 326.685 89.157,316.437 88.489,315.959 88.972 M57.900 90.832 C 56.917 91.405,56.816 289.148,57.796 294.688 C 59.001 301.498,65.819 310.000,70.076 310.000 C 70.381 310.000,71.344 310.373,72.215 310.828 C 73.342 311.417,75.464 311.839,79.554 312.287 C 93.900 313.859,105.535 309.956,109.314 302.304 C 109.668 301.587,110.417 299.976,110.979 298.725 L 112.000 296.450 112.000 193.848 C 112.000 119.682,111.878 91.172,111.560 90.975 C 111.031 90.648,96.763 90.704,96.432 91.035 C 96.304 91.162,96.110 137.107,96.000 193.133 L 95.800 295.000 94.835 297.726 C 92.007 305.717,80.270 307.027,75.332 299.903 L 74.200 298.268 74.098 194.656 C 74.017 112.545,73.892 90.979,73.498 90.728 C 72.757 90.258,58.725 90.352,57.900 90.832 " stroke="none" fill="#f9fafa" fill-rule="evenodd"></path><path id="path1" d="M0.000 200.000 L 0.000 400.000 200.000 400.000 L 400.000 400.000 400.000 200.000 L 400.000 0.000 200.000 0.000 L 0.000 0.000 0.000 200.000 M175.200 89.875 C 177.290 90.290,179.540 90.922,180.200 91.279 C 180.860 91.637,181.940 92.129,182.600 92.373 C 185.286 93.366,189.010 97.804,190.845 102.200 L 192.181 105.400 192.317 131.530 C 192.480 163.134,193.370 159.600,185.250 159.600 C 178.567 159.600,177.001 159.256,176.611 157.700 C 176.466 157.124,176.380 145.391,176.419 131.626 C 176.501 102.427,176.549 103.052,174.044 100.331 C 170.452 96.428,161.543 96.440,157.884 100.352 C 155.048 103.384,155.211 97.409,155.203 198.346 C 155.198 248.362,155.112 289.420,155.010 289.585 C 154.501 290.407,156.055 299.051,156.933 300.288 C 161.008 306.028,171.319 305.864,175.054 300.000 L 176.200 298.201 176.301 269.400 C 176.357 253.560,176.496 240.195,176.609 239.700 C 176.933 238.287,191.485 238.287,192.374 239.700 C 193.089 240.837,193.072 292.765,192.356 296.341 C 191.228 301.964,184.652 309.992,181.165 310.001 C 180.854 310.002,180.009 310.363,179.286 310.804 C 176.418 312.553,167.113 313.208,159.200 312.219 C 148.762 310.914,141.808 305.025,139.916 295.889 C 139.202 292.444,139.274 114.467,139.992 107.675 C 140.765 100.362,144.963 93.622,149.629 92.204 C 150.163 92.042,151.140 91.592,151.800 91.204 C 152.460 90.816,154.530 90.271,156.400 89.992 C 158.270 89.713,160.160 89.335,160.600 89.152 C 161.909 88.607,171.110 89.063,175.200 89.875 M248.342 89.366 C 249.584 89.678,251.556 90.056,252.725 90.207 C 259.080 91.028,265.554 96.918,267.668 103.800 C 268.294 105.838,268.879 120.581,269.066 139.063 L 269.245 156.727 268.347 157.563 C 267.256 158.580,254.771 158.863,253.485 157.900 C 252.874 157.443,252.806 155.114,252.699 131.000 C 252.570 101.943,252.658 102.979,250.079 100.264 C 246.897 96.914,238.094 96.595,234.075 99.684 C 228.467 103.994,229.240 140.792,235.282 157.200 C 237.176 162.343,242.822 174.322,246.216 180.400 C 247.138 182.050,248.031 183.850,248.201 184.400 C 248.371 184.950,248.845 185.829,249.255 186.354 C 249.665 186.879,250.000 187.630,250.000 188.023 C 250.000 188.417,250.450 189.273,251.000 189.927 C 251.550 190.581,252.000 191.364,252.000 191.669 C 252.000 191.973,252.300 192.650,252.666 193.173 C 253.567 194.460,259.807 206.748,260.195 208.000 C 260.366 208.550,260.841 209.478,261.252 210.062 C 261.664 210.646,262.000 211.354,262.000 211.635 C 262.000 211.917,262.346 212.879,262.769 213.774 C 268.175 225.201,269.322 234.746,269.093 266.400 C 268.846 300.453,268.289 303.160,260.407 308.590 C 254.572 312.609,234.922 314.164,228.951 311.079 C 228.318 310.752,227.037 310.279,226.105 310.028 C 221.761 308.859,217.146 302.297,215.737 295.286 C 214.886 291.049,214.404 239.437,215.208 238.631 C 215.907 237.931,228.820 237.814,229.742 238.499 C 230.453 239.028,230.482 240.186,230.435 266.025 L 230.386 293.000 231.336 296.265 C 233.151 302.499,235.435 304.200,241.989 304.200 C 247.403 304.200,248.384 303.796,250.731 300.600 L 252.200 298.600 252.200 267.800 C 252.200 237.401,252.189 236.961,251.333 234.000 C 250.857 232.350,250.259 229.743,250.006 228.207 C 249.752 226.672,249.384 225.221,249.187 224.985 C 248.991 224.748,248.574 223.574,248.261 222.377 C 247.948 221.180,247.285 219.300,246.789 218.200 C 246.292 217.100,245.445 215.210,244.907 214.000 C 244.370 212.790,243.775 211.530,243.587 211.200 C 243.398 210.870,241.827 207.810,240.096 204.400 C 237.217 198.731,235.499 195.444,229.326 183.800 C 228.160 181.600,226.384 178.180,225.381 176.200 C 224.378 174.220,223.405 172.330,223.220 172.000 C 221.956 169.748,220.353 165.898,220.002 164.275 C 219.773 163.216,219.328 161.956,219.013 161.475 C 218.698 160.994,218.322 159.790,218.176 158.800 C 218.031 157.810,217.582 155.830,217.177 154.400 C 214.937 146.483,213.941 112.872,215.715 105.046 C 217.635 96.571,223.507 91.330,232.742 89.849 C 234.800 89.519,236.585 89.148,236.709 89.025 C 237.178 88.555,246.160 88.819,248.342 89.366 M330.400 89.913 C 339.596 91.785,344.066 95.862,346.716 104.795 L 347.726 108.200 347.875 132.800 C 347.994 152.512,347.919 157.599,347.500 158.400 L 346.977 159.400 339.900 159.481 C 334.751 159.540,332.739 159.431,332.512 159.081 C 332.340 158.816,332.110 146.450,332.000 131.600 L 331.800 104.600 330.675 102.400 C 328.800 98.734,326.747 97.658,321.555 97.617 C 314.700 97.564,311.544 99.926,310.385 105.973 C 310.088 107.523,309.995 136.852,310.079 202.400 L 310.200 296.600 311.351 299.062 C 314.825 306.496,327.638 306.455,330.632 299.000 L 331.596 296.600 331.598 268.726 C 331.599 251.588,331.750 240.457,331.990 239.826 L 332.380 238.800 339.776 238.800 C 346.755 238.800,347.196 238.845,347.599 239.598 C 348.395 241.086,347.951 296.729,347.131 298.200 C 346.763 298.860,346.069 300.262,345.588 301.314 C 344.072 304.638,338.368 310.000,336.350 310.000 C 336.030 310.000,335.056 310.373,334.185 310.828 C 329.876 313.080,311.534 313.303,308.923 311.136 C 308.611 310.877,307.555 310.462,306.576 310.213 C 302.406 309.154,297.487 303.466,295.449 297.346 L 294.392 294.172 294.496 201.186 L 294.600 108.200 295.558 104.663 C 297.325 98.144,300.685 93.652,304.908 92.162 C 305.801 91.847,306.750 91.407,307.018 91.185 C 307.287 90.962,309.354 90.428,311.612 89.998 C 313.870 89.567,315.826 89.106,315.959 88.972 C 316.437 88.489,326.685 89.157,330.400 89.913 M73.498 90.728 C 73.892 90.979,74.017 112.545,74.098 194.656 L 74.200 298.268 75.332 299.903 C 80.270 307.027,92.007 305.717,94.835 297.726 L 95.800 295.000 96.000 193.133 C 96.110 137.107,96.304 91.162,96.432 91.035 C 96.763 90.704,111.031 90.648,111.560 90.975 C 111.878 91.172,112.000 119.682,112.000 193.848 L 112.000 296.450 110.979 298.725 C 109.191 302.708,108.700 303.573,107.289 305.221 C 102.373 310.964,91.881 313.637,79.554 312.287 C 75.464 311.839,73.342 311.417,72.215 310.828 C 71.344 310.373,70.381 310.000,70.076 310.000 C 65.819 310.000,59.001 301.498,57.796 294.688 C 56.816 289.148,56.917 91.405,57.900 90.832 C 58.725 90.352,72.757 90.258,73.498 90.728 " stroke="none" fill="#143c6b" fill-rule="evenodd"></path></g></svg>