<?xml version="1.0" encoding="utf-8"?>
<!-- Generator: Adobe Illustrator 25.1.0, SVG Export Plug-In . SVG Version: 6.00 Build 0)  -->
<svg version="1.1" id="Layer_1" xmlns="http://www.w3.org/2000/svg" xmlns:xlink="http://www.w3.org/1999/xlink" x="0px" y="0px"
	 viewBox="0 0 600 600" style="enable-background:new 0 0 600 600;" xml:space="preserve">
<style type="text/css">
	.st0{fill:#FFFFFF;}
	.st1{fill:#003C6C;}
	.st2{stroke:#003C6C;}
	.st3{fill:#FFFFFF;stroke:#003C6C;}
	.st4{fill:none;stroke:#003C6C;}
	.st5{fill:#FFFFFF;stroke:#FFFFFF;stroke-width:4;}
	.st6{fill:#FFFFFF;stroke:#003C6C;stroke-width:0.75;stroke-miterlimit:60;}
	.st7{fill:none;stroke:#003C6C;stroke-width:2.6;}
	.st8{fill:none;stroke:#003C6C;stroke-width:1.43;stroke-miterlimit:2.2;}
</style>
<desc>This is the seal of the University of California, Santa Cruz (UCSC) ;
 it contains the following text:
 THE UNIVERSITY OF CALIFORNIA
 1868
 LET THERE BE LIGHT ;
 see
 http://commons.wikimedia.org/wiki/File:The_University_of_California_1868_UCSC.svg
 for more information.
	</desc>
<circle class="st0" cx="299.9" cy="300" r="293.8"/>
<circle class="st1" cx="299.9" cy="593.8" r="6.2"/>
<circle class="st1" cx="285.2" cy="593.5" r="6.2"/>
<circle class="st1" cx="270.7" cy="592.4" r="6.2"/>
<circle class="st1" cx="256.1" cy="590.5" r="6.2"/>
<circle class="st1" cx="241.7" cy="588" r="6.2"/>
<circle class="st1" cx="227.4" cy="584.7" r="6.2"/>
<circle class="st1" cx="213.3" cy="580.8" r="6.2"/>
<circle class="st1" cx="199.4" cy="576.1" r="6.2"/>
<circle class="st1" cx="185.8" cy="570.8" r="6.2"/>
<circle class="st1" cx="172.4" cy="564.7" r="6.2"/>
<circle class="st1" cx="159.4" cy="558.1" r="6.2"/>
<circle class="st1" cx="146.7" cy="550.7" r="6.2"/>
<circle class="st1" cx="134.4" cy="542.8" r="6.2"/>
<circle class="st1" cx="122.5" cy="534.2" r="6.2"/>
<circle class="st1" cx="111" cy="525.1" r="6.2"/>
<circle class="st1" cx="100" cy="515.4" r="6.2"/>
<circle class="st1" cx="89.6" cy="505.2" r="6.2"/>
<circle class="st1" cx="79.6" cy="494.4" r="6.2"/>
<circle class="st1" cx="70.2" cy="483.2" r="6.2"/>
<circle class="st1" cx="61.3" cy="471.5" r="6.2"/>
<circle class="st1" cx="53.1" cy="459.4" r="6.2"/>
<circle class="st1" cx="45.4" cy="446.9" r="6.2"/>
<circle class="st1" cx="38.4" cy="434" r="6.2"/>
<circle class="st1" cx="32.1" cy="420.9" r="6.2"/>
<circle class="st1" cx="26.4" cy="407.4" r="6.2"/>
<circle class="st1" cx="21.4" cy="393.6" r="6.2"/>
<circle class="st1" cx="17.1" cy="379.6" r="6.2"/>
<circle class="st1" cx="13.4" cy="365.4" r="6.2"/>
<circle class="st1" cx="10.5" cy="351" r="6.2"/>
<circle class="st1" cx="8.4" cy="336.5" r="6.2"/>
<circle class="st1" cx="6.9" cy="322" r="6.2"/>
<circle class="st1" cx="6.2" cy="307.3" r="6.2"/>
<circle class="st1" cx="6.2" cy="292.7" r="6.2"/>
<circle class="st1" cx="6.9" cy="278" r="6.2"/>
<circle class="st1" cx="8.4" cy="263.5" r="6.2"/>
<circle class="st1" cx="10.5" cy="249" r="6.2"/>
<circle class="st1" cx="13.4" cy="234.6" r="6.2"/>
<circle class="st1" cx="17.1" cy="220.4" r="6.2"/>
<circle class="st1" cx="21.4" cy="206.4" r="6.2"/>
<circle class="st1" cx="26.4" cy="192.6" r="6.2"/>
<circle class="st1" cx="32.1" cy="179.1" r="6.2"/>
<circle class="st1" cx="38.4" cy="166" r="6.2"/>
<circle class="st1" cx="45.4" cy="153.1" r="6.2"/>
<circle class="st1" cx="53.1" cy="140.6" r="6.2"/>
<circle class="st1" cx="61.3" cy="128.5" r="6.2"/>
<circle class="st1" cx="70.2" cy="116.8" r="6.2"/>
<circle class="st1" cx="79.6" cy="105.6" r="6.2"/>
<circle class="st1" cx="89.6" cy="94.8" r="6.2"/>
<circle class="st1" cx="100" cy="84.6" r="6.2"/>
<circle class="st1" cx="111" cy="74.9" r="6.2"/>
<circle class="st1" cx="122.5" cy="65.8" r="6.2"/>
<circle class="st1" cx="134.4" cy="57.2" r="6.2"/>
<circle class="st1" cx="146.7" cy="49.3" r="6.2"/>
<circle class="st1" cx="159.4" cy="41.9" r="6.2"/>
<circle class="st1" cx="172.4" cy="35.3" r="6.2"/>
<circle class="st1" cx="185.8" cy="29.2" r="6.2"/>
<circle class="st1" cx="199.4" cy="23.9" r="6.2"/>
<circle class="st1" cx="213.3" cy="19.2" r="6.2"/>
<circle class="st1" cx="227.4" cy="15.3" r="6.2"/>
<circle class="st1" cx="241.7" cy="12" r="6.2"/>
<circle class="st1" cx="256.1" cy="9.5" r="6.2"/>
<circle class="st1" cx="270.7" cy="7.6" r="6.2"/>
<circle class="st1" cx="285.2" cy="6.5" r="6.2"/>
<circle class="st1" cx="299.9" cy="6.2" r="6.2"/>
<circle class="st1" cx="314.6" cy="6.5" r="6.2"/>
<circle class="st1" cx="329.1" cy="7.6" r="6.2"/>
<circle class="st1" cx="343.7" cy="9.5" r="6.2"/>
<circle class="st1" cx="358.1" cy="12" r="6.2"/>
<circle class="st1" cx="372.4" cy="15.3" r="6.2"/>
<circle class="st1" cx="386.5" cy="19.2" r="6.2"/>
<circle class="st1" cx="400.4" cy="23.9" r="6.2"/>
<circle class="st1" cx="414.1" cy="29.2" r="6.2"/>
<circle class="st1" cx="427.4" cy="35.3" r="6.2"/>
<circle class="st1" cx="440.4" cy="41.9" r="6.2"/>
<circle class="st1" cx="453.1" cy="49.3" r="6.2"/>
<circle class="st1" cx="465.4" cy="57.2" r="6.2"/>
<circle class="st1" cx="477.3" cy="65.8" r="6.2"/>
<circle class="st1" cx="488.8" cy="74.9" r="6.2"/>
<circle class="st1" cx="499.8" cy="84.6" r="6.2"/>
<circle class="st1" cx="510.2" cy="94.8" r="6.2"/>
<circle class="st1" cx="520.2" cy="105.6" r="6.2"/>
<circle class="st1" cx="529.6" cy="116.8" r="6.2"/>
<circle class="st1" cx="538.5" cy="128.5" r="6.2"/>
<circle class="st1" cx="546.7" cy="140.6" r="6.2"/>
<circle class="st1" cx="554.4" cy="153.1" r="6.2"/>
<circle class="st1" cx="561.4" cy="166" r="6.2"/>
<circle class="st1" cx="567.7" cy="179.1" r="6.2"/>
<circle class="st1" cx="573.4" cy="192.6" r="6.2"/>
<circle class="st1" cx="578.4" cy="206.4" r="6.2"/>
<circle class="st1" cx="582.8" cy="220.4" r="6.2"/>
<circle class="st1" cx="586.4" cy="234.6" r="6.2"/>
<circle class="st1" cx="589.3" cy="249" r="6.2"/>
<circle class="st1" cx="591.5" cy="263.5" r="6.2"/>
<circle class="st1" cx="592.9" cy="278" r="6.2"/>
<circle class="st1" cx="593.6" cy="292.7" r="6.2"/>
<circle class="st1" cx="593.6" cy="307.3" r="6.2"/>
<circle class="st1" cx="592.9" cy="322" r="6.2"/>
<circle class="st1" cx="591.5" cy="336.5" r="6.2"/>
<circle class="st1" cx="589.3" cy="351" r="6.2"/>
<circle class="st1" cx="586.4" cy="365.4" r="6.2"/>
<circle class="st1" cx="582.8" cy="379.6" r="6.2"/>
<circle class="st1" cx="578.4" cy="393.6" r="6.2"/>
<circle class="st1" cx="573.4" cy="407.4" r="6.2"/>
<circle class="st1" cx="567.7" cy="420.9" r="6.2"/>
<circle class="st1" cx="561.4" cy="434" r="6.2"/>
<circle class="st1" cx="554.4" cy="446.9" r="6.2"/>
<circle class="st1" cx="546.7" cy="459.4" r="6.2"/>
<circle class="st1" cx="538.5" cy="471.5" r="6.2"/>
<circle class="st1" cx="529.6" cy="483.2" r="6.2"/>
<circle class="st1" cx="520.2" cy="494.4" r="6.2"/>
<circle class="st1" cx="510.2" cy="505.2" r="6.2"/>
<circle class="st1" cx="499.8" cy="515.4" r="6.2"/>
<circle class="st1" cx="488.8" cy="525.1" r="6.2"/>
<circle class="st1" cx="477.3" cy="534.2" r="6.2"/>
<circle class="st1" cx="465.4" cy="542.8" r="6.2"/>
<circle class="st1" cx="453.1" cy="550.7" r="6.2"/>
<circle class="st1" cx="440.4" cy="558.1" r="6.2"/>
<circle class="st1" cx="427.4" cy="564.7" r="6.2"/>
<circle class="st1" cx="414.1" cy="570.8" r="6.2"/>
<circle class="st1" cx="400.4" cy="576.1" r="6.2"/>
<circle class="st1" cx="386.5" cy="580.8" r="6.2"/>
<circle class="st1" cx="372.4" cy="584.7" r="6.2"/>
<circle class="st1" cx="358.1" cy="588" r="6.2"/>
<circle class="st1" cx="343.7" cy="590.5" r="6.2"/>
<circle class="st1" cx="329.1" cy="592.4" r="6.2"/>
<circle class="st1" cx="314.6" cy="593.5" r="6.2"/>
<path class="st2" d="M255.8,114.9l-50,1.5"/>
<path class="st2" d="M261.7,120.8L153,153.1"/>
<path class="st2" d="M267.6,126.6L111.9,232.4"/>
<path class="st2" d="M270.5,135.5L94.2,295.6"/>
<path class="st2" d="M270.5,148.7L103,338.2"/>
<path class="st2" d="M276.4,156L116.3,388.1"/>
<path class="st2" d="M279.3,167.8L164.7,461.6"/>
<path class="st2" d="M289.6,156l-92.6,326.2"/>
<path class="st2" d="M297,151.6l-64.6,324.7"/>
<path class="st2" d="M273.5,461.6l-5.9,45.5"/>
<path class="st2" d="M339.6,120.8l54.4,4.4"/>
<path class="st2" d="M335.2,126.6l123.4,50"/>
<path class="st2" d="M335.2,135.5l158.7,97"/>
<path class="st2" d="M335.2,144.3l167.5,138.1"/>
<path class="st2" d="M329.3,153.1l170.4,188.1"/>
<path class="st2" d="M341,182.5l149.9,196.9"/>
<path class="st2" d="M370.4,241.2l99.9,173.4"/>
<path class="st2" d="M317.5,153.1L438,455.7"/>
<path class="st2" d="M304.3,151.6l88.1,320.3"/>
<path class="st2" d="M345.5,461.6l1.5,36.7"/>
<path class="st2" d="M305.8,461.6l1.5,47"/>
<path class="st3" d="M147.1,382.3c-8.8,8.8-16.2,11.8-16.2,26.4c0,14.7,16.2,14.7,19.1,14.7c2.9,0,14.7-2.9,14.7,13.2
	c0,16.2,23.5,20.6,23.5,36.7c1.5,8.8,2.9-14.7-2.9-20.6c2.9-2.9,1.5-2.9,4.4-8.8c2.9,2.9,23.5,20.6,26.4,20.6
	c8.8,0,4.4-19.1-5.9-8.8c-4.4-4.4-4.4-13.2-10.3-13.2s-5.9-5.9-5.9-11.8c0-5.9,0-25-41.1-25c-8.8,0-8.8,0-8.8-5.9
	c0-5.9,2.9-11.8,2.9-14.7V382.3z"/>
<path class="st3" d="M160.3,166.3h121.9c8.8,0,14.7,11.8,17.6,14.7c2.9-2.9,8.8-14.7,17.6-14.7h121.9v261.5H311.7
	c0,5.9-23.5,5.9-23.5,0H160.3V166.3z"/>
<path class="st4" d="M195.6,166.3v240.9h86.7c8.8,0,14.7,11.8,17.6,14.7c2.9-2.9,8.8-14.7,17.6-14.7h86.7V166.3"/>
<path class="st4" d="M186.8,166.3v246.1h95.5c8.8,0,14.7,11.8,17.6,14.7c2.9-2.9,8.8-14.7,17.6-14.7H413V166.3"/>
<path class="st4" d="M178,166.3v251.2h104.3c8.8,0,14.7,7.3,17.6,10.3c2.9-2.9,8.8-10.3,17.6-10.3h104.3V166.3"/>
<path class="st4" d="M169.2,166.3v256.4h113.1c8.8,0,14.7,2.2,17.6,5.1c2.9-2.9,8.8-5.1,17.6-5.1h113.1V166.3"/>
<path class="st2" d="M299.9,181v240.9"/>
<path class="st3" d="M288.2,427.8c0-17.6,23.5-17.6,23.5,0C311.7,433.7,288.2,433.7,288.2,427.8z"/>
<path class="st4" d="M317.5,178.5h8.8 M335.2,178.5h5.9 M344,178.5h8.8 M361.6,178.5h20.6 M385.1,178.5h11.8 M317.5,187.9h2.9
	 M323.4,187.9h38.2 M370.4,187.9h26.4 M317.5,197.3h11.8 M332.2,197.3h8.8 M349.9,197.3h20.6 M373.4,197.3h11.8 M388.1,197.3h8.8
	 M317.5,206.7h79.3 M317.5,216.1h2.9 M323.4,216.1h26.4 M352.8,216.1h14.7 M370.4,216.1h26.4 M317.5,225.5h14.7 M335.2,225.5h20.6
	 M358.7,225.5h20.6 M388.1,225.5h8.8 M317.5,234.9h2.9 M329.3,234.9H344 M346.9,234.9h8.8 M364.6,234.9h20.6 M388.1,234.9h8.8
	 M317.5,244.3h11.8 M338.1,244.3h17.6 M358.7,244.3h11.8 M379.2,244.3h17.6 M317.5,253.7h2.9 M323.4,253.7h26.4 M352.8,253.7h14.7
	 M370.4,253.7h26.4 M317.5,263.1h5.9 M326.4,263.1h8.8 M344,263.1h2.9 M349.9,263.1h8.8 M367.5,263.1h2.9 M373.4,263.1h8.8
	 M391,263.1h5.9 M317.5,272.5h5.9 M326.4,272.5H341 M344,272.5h8.8 M361.6,272.5h17.6 M382.2,272.5h14.7 M317.5,281.9h29.4
	 M349.9,281.9h47 M317.5,291.3h5.9 M326.4,291.3h35.3 M370.4,291.3h26.4 M317.5,300.7h11.8 M332.2,300.7h14.7 M355.7,300.7h20.6
	 M379.2,300.7h17.6 M317.5,310.1h79.3 M317.5,319.5H344 M352.8,319.5h44.1 M317.5,328.9h8.8 M329.3,328.9h5.9 M338.1,328.9h17.6
	 M358.7,328.9h11.8 M373.4,328.9h23.5 M317.5,338.3h29.4 M349.9,338.3h47 M317.5,347.7h79.3 M317.5,357.1H344 M352.8,357.1h44.1
	 M317.5,366.6h4.4 M324.9,366.6h56.4 M390.1,366.6h1.8 M394.8,366.6h2.1 M317.5,376h1.5 M321.9,376h74.9 M317.5,385.4h3.5
	 M324,385.4h72.9 M317.5,394.8h79.3 M202.9,178.5h8.8 M220.6,178.5h11.8 M235.3,178.5H250 M252.9,178.5h14.7 M270.5,178.5h11.8
	 M202.9,187.9h52.9 M258.8,187.9h23.5 M202.9,197.3H247 M250,197.3h14.7 M273.5,197.3h8.8 M202.9,206.7h52.9 M264.6,206.7h17.6
	 M202.9,216.1h79.3 M202.7,225.5h8.8 M220.3,225.5H232 M235,225.5h11.8 M255.5,225.5h20.6 M279,225.5h2.9 M202.7,234.9h14.7
	 M220.3,234.9h44.1 M273.2,234.9h8.8 M202.7,244.3h11.8 M217.3,244.3h8.8 M235,244.3h20.6 M258.5,244.3h14.7 M276.1,244.3h5.9
	 M202.7,253.7h5.9 M211.5,253.7h8.8 M229.1,253.7h4.4 M236.4,253.7h8.8 M254.1,253.7h2.9 M259.9,253.7h11.8 M280.5,253.7h1.5
	 M202.7,263.1H282 M202.7,272.5h17.6 M229.1,272.5h23.5 M261.4,272.5h14.7 M279,272.5h2.9 M202.7,281.9h5.9 M217.3,281.9h20.6
	 M246.7,281.9h17.6 M273.2,281.9h8.8 M202.7,291.3H282 M202.7,300.7h14.7 M220.3,300.7h26.4 M249.7,300.7h23.5 M276.1,300.7h5.9
	 M202.7,310.1H235 M243.8,310.1H282 M202.7,319.5H232 M235,319.5h23.5 M267.3,319.5H282 M202.7,328.9h14.7 M226.2,328.9h50
	 M279,328.9h2.9 M202.7,338.3h5.9 M211.5,338.3h14.7 M229.1,338.3h8.8 M246.7,338.3h23.5 M273.2,338.3h8.8 M202.7,347.7h8.8
	 M220.3,347.7h23.5 M252.6,347.7h14.7 M276.1,347.7h5.9 M202.7,357.1h20.6 M226.2,357.1h14.7 M249.7,357.1h20.6 M273.2,357.1h8.8
	 M202.7,366.6h26.4 M237.9,366.6h14.7 M255.5,366.6h20.6 M279,366.6h2.9 M202.7,376h27.9 M233.5,376h2.9 M245.3,376h2.9 M251.1,376
	h2.9 M262.9,376h2.9 M268.8,376h2.9 M280.5,376h1.5 M202.7,385.4H282 M202.7,394.8H282 M280.5,178.5h1.5c8.8,0,14.7,11.8,17.6,14.7
	c2.9-2.9,8.8-14.7,17.6-14.7h1.5 M280.5,187.9h1.5c8.8,0,14.7,11.8,17.6,14.7c2.9-2.9,8.8-14.7,17.6-14.7h1.5 M280.5,197.3h1.5
	c8.8,0,14.7,11.8,17.6,14.7c2.9-2.9,8.8-14.7,17.6-14.7h1.5 M280.5,206.7h1.5c8.8,0,14.7,11.8,17.6,14.7c2.9-2.9,8.8-14.7,17.6-14.7
	h1.5 M280.5,216.1h1.5c8.8,0,14.7,11.8,17.6,14.7c2.9-2.9,8.8-14.7,17.6-14.7h1.5 M280.5,225.5h1.5c8.8,0,14.7,11.8,17.6,14.7
	c2.9-2.9,8.8-14.7,17.6-14.7h1.5 M280.5,234.9h1.5c8.8,0,14.7,11.8,17.6,14.7c2.9-2.9,8.8-14.7,17.6-14.7h1.5 M280.5,244.3h1.5
	c8.8,0,14.7,11.8,17.6,14.7c2.9-2.9,8.8-14.7,17.6-14.7h1.5 M280.5,253.7h1.5c8.8,0,14.7,11.8,17.6,14.7c2.9-2.9,8.8-14.7,17.6-14.7
	h1.5 M280.5,263.1h1.5c8.8,0,14.7,11.8,17.6,14.7c2.9-2.9,8.8-14.7,17.6-14.7h1.5 M280.5,272.5h1.5c8.8,0,14.7,11.8,17.6,14.7
	c2.9-2.9,8.8-14.7,17.6-14.7h1.5 M280.5,281.9h1.5c8.8,0,14.7,11.8,17.6,14.7c2.9-2.9,8.8-14.7,17.6-14.7h1.5 M280.5,291.3h1.5
	c8.8,0,14.7,11.8,17.6,14.7c2.9-2.9,8.8-14.7,17.6-14.7h1.5 M280.5,300.7h1.5c8.8,0,14.7,11.8,17.6,14.7c2.9-2.9,8.8-14.7,17.6-14.7
	h1.5 M280.5,310.1h1.5c8.8,0,14.7,11.8,17.6,14.7c2.9-2.9,8.8-14.7,17.6-14.7h1.5 M280.5,319.5h1.5c8.8,0,14.7,11.8,17.6,14.7
	c2.9-2.9,8.8-14.7,17.6-14.7h1.5 M280.5,328.9h1.5c8.8,0,14.7,11.8,17.6,14.7c2.9-2.9,8.8-14.7,17.6-14.7h1.5 M280.5,338.3h1.5
	c8.8,0,14.7,11.8,17.6,14.7c2.9-2.9,8.8-14.7,17.6-14.7h1.5 M280.5,347.7h1.5c8.8,0,14.7,11.8,17.6,14.7c2.9-2.9,8.8-14.7,17.6-14.7
	h1.5 M280.5,357.1h1.5c8.8,0,14.7,11.8,17.6,14.7c2.9-2.9,8.8-14.7,17.6-14.7h1.5 M280.5,366.6h1.5c8.8,0,14.7,11.8,17.6,14.7
	c2.9-2.9,8.8-14.7,17.6-14.7h1.5 M280.5,376h1.5c8.8,0,14.7,11.8,17.6,14.7c2.9-2.9,8.8-14.7,17.6-14.7h1.5 M280.5,385.4h1.5
	c8.8,0,14.7,11.8,17.6,14.7c2.9-2.9,8.8-14.7,17.6-14.7h1.5 M280.5,394.8h1.5c8.8,0,14.7,11.8,17.6,14.7c2.9-2.9,8.8-14.7,17.6-14.7
	h1.5"/>
<g>
	<path class="st5" d="M204.4,187.9v28.2h28.2v-28.2H204.4z"/>
	<path class="st4" d="M204.4,187.9v28.2h28.2v-28.2H204.4z M208.8,212.9l9.7-19.4l9.7,19.4 M213.7,203.2h9.7"/>
</g>
<path class="st3" d="M361.6,432.2C341,417.5,344,397,364.6,394l-20.6-5.9c-44.1,17.6-26.4,42.6,11.8,44.1H361.6z"/>
<path class="st3" d="M191.2,355.8c14.7,0,20.6,8.8,29.4,17.6c8.8,8.8,10.3,7.3,20.6,14.7c10.3,7.3,13.2,17.6,26.4,35.3
	c13.2,17.6,38.2,20.6,44.1,20.6s23.5,1.5,29.4-2.9s5.9-13.2,16.2-13.2s13.2,14.7,13.2,20.6s-5.9,41.1-64.6,39.7
	s-73.5-38.2-83.7-52.9c-10.3-14.7-5.9-47-79.3-47c0-5.9,1.5-8.8,1.5-14.7s0-11.8,20.6-14.7C185.3,355.8,176.5,355.8,191.2,355.8z"/>
<path class="st3" d="M327.8,382.3c0,5.9,2.9,8.8,2.9,11.8c0,2.9,8.8,1.5,11.8,4.4s58.8,17.6,88.1,17.6s38.2-11.8,51.4-41.1
	c3.2-7.3,0-16.2-8.8-26.4c-8.8-10.3-16.2-16.2-23.5-16.2c-7.3,0-26.4,5.9-29.4,7.3s-29.4,8.8-32.3-10.3c-2.9-19.1,22-20.6,29.4-14.7
	c7.3,5.9,16.2,8.8,25,8.8c8.8,0,17.6-7.3,23.5-13.2s19.1-8.8,19.1-19.1c0-10.3-5.9-11.8-5.9-20.6c-2.9-5.9,2.9,16.2-8.8,19.1
	c-11.8,2.9-10.3,5.9-10.3,5.9c-1.5-8.8,5.9-22-13.2-27.9c11.8-14.7-14.7-14.7-8.8,0l7.3,8.8c1.5,2.9,2.9,2.9,4.4,13.2
	c-4.4,2.9-4.4,4.4-7.3,10.3c-2.9,5.9-20.6-1.5-29.4,2.9c-8.8,4.4-8.8-8.8,1.5-10.3c10.3-1.5,7.3,0,10.3-4.4s-8.8,0-11.8-2.9
	s-8.8,1.5-11.8,2.9s-22,14.7-20.6,35.3c1.5,20.6,4.4,39.7,29.4,38.2c25-1.5,33.8-26.4,48.5-11.8c4.4,4.4,0,27.9-11.8,27.9
	c-73.5,0-58.8-14.7-102.8-14.7c-17.6,0-16.2,8.8-16.2,14.7V382.3z"/>
<path class="st2" d="M473.3,348.5l-14.7,1.5"/>
<path class="st3" d="M196.7,501.2c12.7-38.8,14.4-33.2,23-22.5c4.5,5.6,13.3-1.1,13,4.9c-0.4,9.4-8.4,13.6-10.7,39.8
	C207.6,530.9,198.4,524.9,196.7,501.2L196.7,501.2z"/>
<path class="st3" d="M399.3,527.6c-65.9,15.5-30-0.6-32-12.8c-7.1-43.6-2.6-30.4,13.2-37.1c8.2-3.5,17.3-7,19.3-1.4
	C416.1,540.6,417.3,523.8,399.3,527.6L399.3,527.6z"/>
<path class="st3" d="M199.3,538c-74.3-16.8,12.1-33.8,9.8-43.6c-7.6-32.4,4-26.4,10.5-18.8c4.7,5.4,13.3,2,13,8
	c-0.4,9.4-15.4,1.9-13.8,12.8C222,533.5,237.3,550,199.3,538z"/>
<path class="st3" d="M402.9,536.5c-65.9,15.5-13.1-28.4-29.7-41c-18.7-14.3-6.7-15.2,7.9-18.8c8.7-2.1,16.5-5.9,18.5-0.3
	c2.7,7.5-6,4.4-10.2,15.6C386.5,499.9,476.1,512.9,402.9,536.5L402.9,536.5z"/>
<path class="st3" d="M202.5,540.5c0.1-9.8,16.7-29,15.3-31.6c-8.6-16.5,5.1-10.4,21.1-7.8c10.2,1.6,45,11.6,61.2,10.4
	c4.1-0.3,15,1.8,28.5-5c24.5-12.2,26.4-0.9,40-8.2c15.3-8.2,14.8,1.5,15.1,9.1c0.5,10.8-1.6,0.5,1.8,13.7
	c1.9,7.1,13.2,9.4,11.4,21.7c-1.9,12.9-12.2,15-43.8,21.4c-28.3,5.8-17.9,7.9-51.1,8.1c-25.9,0.1-17.6-7.4-68.6-8.1
	C212.7,564,202.4,556,202.5,540.5L202.5,540.5z"/>
<path class="st3" d="M506.9,138.2c4.6,12.5,13.4,14.6,21.1,25.3c7.7,10.7,16.6,35.7,20.1,47c7.6,24.2,17.5,37.6,17.5,60.6
	c-0.1,27.2,1.4,60.1-1.9,69.9c-3.3,9.7-12.3,33.7-16.5,61.3c-4,25.7-26.3,46.9-29.4,50.5s-12.3,28.6-36.5,47.5
	c-10.6,8.3-25.9,18.6-38.9,28c-11.7,8.5-17.3,16.7-24.2,15.7c-6.9-1-11.6-9.3-12.9-19.9c-0.9-6.6-2.1-11.5-11.2-22.3
	c-7.8-9.3-10-12.2,7-14.2c12.2-1.4,29.1-25.6,39-28.7c9.9-3.1,30-33.5,48.7-73.8c13.6-29.3,21.4-70.4,13.7-124
	c-7.3-50.5-17.1-54.6-33.2-78.9c-13-19.6-22.1-34.1-39.7-43.5c-2.8-1.5-10.6-3.3-20.5-12.5c-5.7-5.3-14.2-8.7-21.6-13
	c-7.4-4.3-58.3-23-86.2-23.8c-22.9-0.6-56.4,4.2-109.2,32.8c-18,9.8-35.2,24.3-57.6,49.6c-9.2,10.4-12,23.3-17.3,34.5
	c-2.9,6.2-8.4,11.2-11.9,16.7c-13.3,20.9-16,58.8-16,76c-0.1,28.8,10.6,49.5,10.9,63.2c0.5,21.1,12.4,35.4,27.2,60.7
	c8.8,15,27,32.1,37.4,39c11,7.3,16.3,16.5,31.2,23.7c24.7,11.8,5.5,15.4,1.4,27.8c-2.2,6.8-4.6,38.9-23.6,26.8
	c-9.2-5.9-24.7-13.6-39.2-25.5c-4.4-3.6-28.2-18.8-37.8-39.3c-2.9-6.2-17-21-29.2-40.2c-11-17.2-16.9-35.4-26-57.4
	c-9.3-22.3-8.6-55.8-10.8-78.7c-4.8-51.6,13.6-68.6,13.6-72.8c0-14.7,14.5-50,19.5-56.6c4.9-6.6,7.7-14.3,22.1-34.8
	c3.3-4.7,31.5-29.5,44.8-42.2c21.2-20.2,85.9-49.8,98.5-50c20-0.3,32.9-9.3,63.1-10.9c19.6-1.1,65.5,11.8,87,16.2
	c39.1,8,35.3,17,70.4,36.1C485,103.1,499.6,118.6,506.9,138.2L506.9,138.2z"/>
<g transform="translate(0, -62) scale(15)">
	<polygon class="st6" points="20,9.1 20.9,10.8 22.8,11.1 21.4,12.4 21.7,14.4 20,13.5 18.3,14.4 18.6,12.4 17.2,11.1 19.1,10.8 	
		"/>
	<polygon class="st1" points="20,12 20,9.1 20.9,10.8 	"/>
	<polygon class="st1" points="20,12 22.8,11.1 22.1,11.8 	"/>
	<polygon class="st1" points="20,12 21.4,12.4 21.7,14.4 	"/>
	<polygon class="st1" points="20,12 20,13.5 18.3,14.4 	"/>
	<polygon class="st1" points="20,12 17.2,11.1 19.1,10.8 	"/>
</g>
<circle class="st1" cx="226.4" cy="526.4" r="6.2"/>
<circle class="st1" cx="373.5" cy="526.4" r="6.2"/>
<circle class="st1" cx="155" cy="488.8" r="6.2"/>
<circle class="st1" cx="444.8" cy="488.8" r="6.2"/>
<circle class="st1" cx="63.9" cy="331.1" r="6.2"/>
<circle class="st1" cx="436.4" cy="105" r="6.2"/>
<circle class="st1" cx="314.4" cy="62.4" r="6.2"/>
<g transform="rotate(-129.8) translate(0, -81)">
	<polygon class="st1" points="-426.3,-102.5 -427.7,-101.6 -427.7,-101 -417.2,-101 -417.2,-101.6 -418.6,-102.5 -418.6,-128.6 
		-407.8,-128.6 -406.9,-127.1 -406.3,-127.1 -406.3,-136.3 -438.6,-136.3 -438.6,-127.1 -438,-127.1 -437.2,-128.6 -426.3,-128.6 	
		"/>
</g>
<g transform="rotate(-119.3) translate(0, -81)">
	<polygon class="st1" points="-424.6,-26.1 -426,-25.2 -426,-24.6 -415.4,-24.6 -415.4,-25.2 -416.9,-26.1 -416.9,-58.4 
		-415.4,-59.3 -415.4,-59.9 -426,-59.9 -426,-59.3 -424.6,-58.4 	"/>
	<polygon class="st1" points="-392.2,-26.1 -390.8,-25.2 -390.8,-24.6 -401.3,-24.6 -401.3,-25.2 -399.9,-26.1 -399.9,-58.4 
		-401.3,-59.3 -401.3,-59.9 -390.8,-59.9 -390.8,-59.3 -392.2,-58.4 	"/>
	<polygon class="st1" points="-423.1,-46.1 -423.1,-38.5 -393.7,-38.5 -393.7,-46.1 	"/>
</g>
<g transform="rotate(-108.2) translate(0, -81)">
	<polygon class="st1" points="-391.9,50.4 -393.4,51.2 -393.4,51.8 -365.4,51.8 -365.4,42.7 -366,42.7 -366.9,44.2 -384.2,44.2 
		-384.2,38 -371.3,38 -371.3,30.4 -384.2,30.4 -384.2,24.2 -366.9,24.2 -366,25.7 -365.4,25.7 -365.4,16.6 -393.4,16.6 -393.4,17.2 
		-391.9,18 	"/>
</g>
<g transform="rotate(-87.3) translate(0, -81)">
	<path class="st7" d="M-297.9,139.1v17.6c0,18.5,24.7,18.5,24.7,0v-17.6"/>
	<polygon class="st1" points="-301.7,140.5 -303.2,139.7 -303.2,139.1 -292.6,139.1 -292.6,139.7 -294.1,140.5 	"/>
	<polygon class="st1" points="-269.4,140.5 -267.9,139.7 -267.9,139.1 -278.5,139.1 -278.5,139.7 -277,140.5 	"/>
</g>
<g transform="rotate(-76.5) translate(0, -81)">
	<polygon class="st1" points="-237.9,220.8 -239.3,221.7 -239.3,222.3 -230.2,222.3 -230.2,187 -239.3,187 -239.3,187.6 
		-237.9,188.5 	"/>
	<polygon class="st1" points="-205.5,220.8 -204.1,221.7 -204.1,222.3 -213.2,222.3 -213.2,187 -204.1,187 -204.1,187.6 
		-205.5,188.5 	"/>
	<polygon class="st1" points="-237.9,187 -213.2,222.3 -205.5,222.3 -230.2,187 	"/>
</g>
<g transform="rotate(-68.2) translate(0, -81)">
	<polygon class="st1" points="-171,249 -172.5,249.9 -172.5,250.5 -161.9,250.5 -161.9,249.9 -163.3,249 -163.3,216.7 -161.9,215.8 
		-161.9,215.2 -172.5,215.2 -172.5,215.8 -171,216.7 	"/>
</g>
<g transform="rotate(-60.6) translate(0, -81)">
	<polygon class="st1" points="-134.7,233.9 -118,269.2 -110.3,269.2 -93.6,233.9 -101.2,233.9 -118,269.2 -110.3,269.2 
		-127.1,233.9 	"/>
</g>
<g transform="rotate(-50) translate(0, -81)">
	<polygon class="st1" points="-50.3,281.7 -51.7,282.6 -51.7,283.2 -23.8,283.2 -23.8,274.1 -24.4,274.1 -25.3,275.6 -42.6,275.6 
		-42.6,269.4 -29.7,269.4 -29.7,261.8 -42.6,261.8 -42.6,255.6 -25.3,255.6 -24.4,257.1 -23.8,257.1 -23.8,247.9 -51.7,247.9 
		-51.7,248.5 -50.3,249.4 	"/>
</g>
<g transform="rotate(-40) translate(0, -81)">
	<path class="st7" d="M24.6,283.2l0-31.4l12.3,0c16.2,0,16.2,13.8,0,13.8H24.6 M35.4,265.6l12.3,13.8"/>
	<circle class="st1" cx="47.8" cy="279.4" r="3.8"/>
	<polygon class="st1" points="20.7,281.7 19.3,282.6 19.3,283.2 29.9,283.2 29.9,282.6 28.4,281.7 	"/>
</g>
<g transform="rotate(-30.2) translate(0, -81)">
	<path class="st7" d="M97.4,262.8c0,0-3.8,4.1,10.9,4.1s14.7-13.8,0-13.8s-14.7-13.8,0-13.8s10.9,4.1,10.9,4.1"/>
	<circle class="st1" cx="97.4" cy="262.8" r="3.8"/>
	<circle class="st1" cx="119.2" cy="243.4" r="3.8"/>
</g>
<g transform="rotate(-23) translate(0, -81)">
	<polygon class="st1" points="155,252.5 153.6,253.4 153.6,254 164.1,254 164.1,253.4 162.7,252.5 162.7,220.2 164.1,219.3 
		164.1,218.7 153.6,218.7 153.6,219.3 155,220.2 	"/>
</g>
<g transform="rotate(-15.7) translate(0, -81)">
	<polygon class="st1" points="203.7,229.1 202.3,230 202.3,230.6 212.8,230.6 212.8,230 211.4,229.1 211.4,203 222.2,203 
		223.1,204.4 223.7,204.4 223.7,195.3 191.4,195.3 191.4,204.4 192,204.4 192.8,203 203.7,203 	"/>
</g>
<g transform="rotate(-6) translate(0, -81)">
	<polygon class="st1" points="249.3,155.1 249.3,155.7 252.2,157.4 250.7,155.1 263.1,177.1 270.7,177.1 258.4,155.1 258.4,156.5 
		259.9,155.7 259.9,155.1 	"/>
	<polygon class="st1" points="284.5,155.1 284.5,155.7 281.6,157.4 283.1,155.1 270.7,177.1 263.1,177.1 275.4,155.1 275.4,156.5 
		274,155.7 274,155.1 	"/>
	<polygon class="st1" points="263.1,176.8 263.1,188.9 261.6,189.7 261.6,190.3 272.2,190.3 272.2,189.7 270.7,188.9 270.7,176.8 	
		"/>
</g>
<g transform="rotate(14.4) translate(0, -81)">
	<circle class="st7" cx="365.1" cy="59" r="13.8"/>
</g>
<g transform="rotate(25.2) translate(0, -81)">
	<polygon class="st1" points="385.9,2.9 384.4,3.8 384.4,4.4 395,4.4 395,3.8 393.5,2.9 393.5,-8 409.4,-8 409.4,-15.6 393.5,-15.6 
		393.5,-23.2 410.9,-23.2 411.7,-21.8 412.3,-21.8 412.3,-30.9 384.4,-30.9 384.4,-30.3 385.9,-29.4 	"/>
</g>
<g transform="rotate(45.4) translate(0, -81)">
	<circle class="st7" cx="424.2" cy="-159.9" r="13.8"/>
	
		<rect x="427.9" y="-169.4" transform="matrix(2.512580e-06 1 -1 2.512580e-06 273.8392 -593.6373)" class="st0" width="11.8" height="19.1"/>
</g>
<g transform="rotate(55.7) translate(0, -81)">
	<polygon class="st1" points="399.2,-218.1 400.7,-220.4 397.7,-218.7 397.7,-218.1 408.3,-218.1 408.3,-218.7 405.4,-220.4 
		406.8,-218.1 409.5,-227.8 417.1,-227.8 417.1,-235.4 412.6,-235.4 418.6,-253.3 409.5,-253.3 409.5,-252.7 412.4,-251 411,-253.3 
			"/>
	<polygon class="st1" points="434.5,-218.1 433,-220.4 435.9,-218.7 435.9,-218.1 425.4,-218.1 425.4,-218.7 428.3,-220.4 
		426.8,-218.1 424.2,-227.8 416.5,-227.8 416.5,-235.4 421,-235.4 415.1,-253.3 424.2,-253.3 424.2,-252.7 421.2,-251 422.7,-253.3 
			"/>
</g>
<g transform="rotate(66.8) translate(0, -81)">
	<polygon class="st1" points="379.2,-298.3 377.7,-297.4 377.7,-296.8 408.6,-296.8 408.6,-306 408,-306 407.1,-304.5 386.8,-304.5 
		386.8,-332.1 377.7,-332.1 377.7,-331.5 379.2,-330.6 	"/>
</g>
<g transform="rotate(73.7) translate(0, -81)">
	<polygon class="st1" points="368.3,-344.5 366.8,-343.6 366.8,-343 377.4,-343 377.4,-343.6 375.9,-344.5 375.9,-376.8 
		377.4,-377.7 377.4,-378.3 366.8,-378.3 366.8,-377.7 368.3,-376.8 	"/>
</g>
<g transform="rotate(81.5) translate(0, -81)">
	<polygon class="st1" points="327.8,-393.1 326.3,-392.2 326.3,-391.6 336.9,-391.6 336.9,-392.2 335.5,-393.1 335.5,-404 
		351.3,-404 351.3,-411.6 335.5,-411.6 335.5,-419.3 352.8,-419.3 353.7,-417.8 354.3,-417.8 354.3,-426.9 326.3,-426.9 
		326.3,-426.3 327.8,-425.4 	"/>
</g>
<g transform="rotate(91.2) translate(0, -81)">
	<circle class="st7" cx="293.7" cy="-463.1" r="13.8"/>
</g>
<g transform="rotate(102.8) translate(0, -81)">
	<path class="st7" d="M213.8-498.3l0-31.4h12.3c16.2,0,16.2,13.8,0,13.8h-12.3 M224.6-515.9l12.3,13.8"/>
	<circle class="st1" cx="237" cy="-502.1" r="3.8"/>
	<polygon class="st1" points="209.9,-499.8 208.5,-498.9 208.5,-498.3 219,-498.3 219,-498.9 217.6,-499.8 	"/>
</g>
<g transform="rotate(114.6) translate(0, -81)">
	<polygon class="st1" points="131.8,-538.4 130.3,-537.5 130.3,-536.9 139.4,-536.9 139.4,-572.2 130.3,-572.2 130.3,-571.6 
		131.8,-570.7 	"/>
	<polygon class="st1" points="164.1,-538.4 165.6,-537.5 165.6,-536.9 156.4,-536.9 156.4,-572.2 165.6,-572.2 165.6,-571.6 
		164.1,-570.7 	"/>
	<polygon class="st1" points="131.8,-572.2 156.4,-536.9 164.1,-536.9 139.4,-572.2 	"/>
</g>
<g transform="rotate(123) translate(0, -81)">
	<polygon class="st1" points="84.4,-555.8 83,-554.9 83,-554.3 93.5,-554.3 93.5,-554.9 92.1,-555.8 92.1,-588.1 93.5,-589 
		93.5,-589.5 83,-589.5 83,-589 84.4,-588.1 	"/>
</g>
<g transform="rotate(131.2) translate(0, -81)">
	<polygon class="st1" points="10.5,-562.6 12,-565 9.1,-563.2 9.1,-562.6 19.7,-562.6 19.7,-563.2 16.7,-565 18.2,-562.6 
		20.8,-572.3 28.5,-572.3 28.5,-580 24,-580 29.9,-597.9 20.8,-597.9 20.8,-597.3 23.8,-595.5 22.3,-597.9 	"/>
	<polygon class="st1" points="45.8,-562.6 44.3,-565 47.3,-563.2 47.3,-562.6 36.7,-562.6 36.7,-563.2 39.6,-565 38.2,-562.6 
		35.5,-572.3 27.9,-572.3 27.9,-580 32.4,-580 26.4,-597.9 35.5,-597.9 35.5,-597.3 32.6,-595.5 34.1,-597.9 	"/>
</g>
<g transform="rotate(13) translate(0, 81)">
	<polygon class="st1" points="355.9,398 354.4,398.9 354.4,399.5 365,399.5 365,398.9 363.5,398 363.5,364.2 354.1,373.6 
		355.9,373.6 	"/>
</g>
<g transform="rotate(6.5) translate(0, 81)">
	
		<ellipse transform="matrix(2.310059e-06 1 -1 2.310059e-06 745.718 81.8347)" class="st7" cx="331.9" cy="413.8" rx="6.5" ry="7.3"/>
	
		<ellipse transform="matrix(2.310060e-06 1 -1 2.310060e-06 759.528 95.6447)" class="st7" cx="331.9" cy="427.6" rx="7.3" ry="10.3"/>
</g>
<g transform="rotate(-2.1) translate(0, 81)">
	
		<ellipse transform="matrix(-1 2.227904e-06 -2.227904e-06 -1 577.429 948.5089)" class="st7" cx="288.7" cy="474.3" rx="10.3" ry="7.3"/>
	<path class="st7" d="M278.4,474.3c0-24.1,16.2-22.6,22-16.7"/>
</g>
<g transform="rotate(-10.8) translate(0, 81)">
	
		<ellipse transform="matrix(-1 2.799161e-06 -2.799161e-06 -1 476.7657 1001.0788)" class="st7" cx="238.4" cy="500.5" rx="7.3" ry="6.5"/>
	
		<ellipse transform="matrix(-1 2.799160e-06 -2.799160e-06 -1 476.7657 1028.6987)" class="st7" cx="238.4" cy="514.3" rx="10.3" ry="7.3"/>
</g>
<g transform="translate(-36.5, 26) rotate(23) scale(0.55)">
	<polygon class="st1" points="617.8,439.8 616.3,440.7 616.3,441.3 647.2,441.3 647.2,432.2 646.6,432.2 645.7,433.6 625.4,433.6 
		625.4,406 616.3,406 616.3,406.6 617.8,407.5 	"/>
</g>
<g transform="translate(-30.5, 29.3) rotate(37) scale(0.55)">
	<polygon class="st1" points="726.8,270.8 725.4,271.7 725.4,272.2 753.3,272.2 753.3,263.1 752.7,263.1 751.8,264.6 734.5,264.6 
		734.5,258.4 747.4,258.4 747.4,250.8 734.5,250.8 734.5,244.6 751.8,244.6 752.7,246.1 753.3,246.1 753.3,237 725.4,237 
		725.4,237.6 726.8,238.4 	"/>
</g>
<g transform="translate(-26, 34) rotate(54) scale(0.55)">
	<polygon class="st1" points="801.1,40.2 799.6,41.1 799.6,41.7 810.2,41.7 810.2,41.1 808.7,40.2 808.7,14 819.6,14 820.4,15.5 
		821,15.5 821,6.4 788.7,6.4 788.7,15.5 789.3,15.5 790.2,14 801.1,14 	"/>
</g>
<g transform="translate(-20.5, 42.5) rotate(55) scale(0.55)">
	<polygon class="st1" points="837,27.4 835.5,28.3 835.5,28.9 846.1,28.9 846.1,28.3 844.6,27.4 844.6,1.3 855.5,1.3 856.4,2.8 
		857,2.8 857,-6.4 824.7,-6.4 824.7,2.8 825.3,2.8 826.1,1.3 837,1.3 	"/>
</g>
<g transform="translate(-16.5, 48.2) rotate(50) scale(0.55)">
	<polygon class="st1" points="844.9,102.8 843.5,103.7 843.5,104.3 854,104.3 854,103.7 852.6,102.8 852.6,70.5 854,69.6 854,69 
		843.5,69 843.5,69.6 844.9,70.5 	"/>
	<polygon class="st1" points="877.3,102.8 878.7,103.7 878.7,104.3 868.1,104.3 868.1,103.7 869.6,102.8 869.6,70.5 868.1,69.6 
		868.1,69 878.7,69 878.7,69.6 877.3,70.5 	"/>
	<polygon class="st1" points="846.4,82.8 846.4,90.4 875.8,90.4 875.8,82.8 	"/>
</g>
<g transform="translate(-10.7, 53.3) rotate(32) scale(0.55)">
	<polygon class="st1" points="805.8,369.1 804.3,369.9 804.3,370.5 832.3,370.5 832.3,361.4 831.7,361.4 830.8,362.9 813.5,362.9 
		813.5,356.7 826.4,356.7 826.4,349.1 813.5,349.1 813.5,342.9 830.8,342.9 831.7,344.4 832.3,344.4 832.3,335.3 804.3,335.3 
		804.3,335.8 805.8,336.7 	"/>
</g>
<g transform="translate(-4, 56) rotate(15) scale(0.55)">
	<path class="st8" d="M693,597.6l0-31.4h12.3c16.2,0,16.2,13.8,0,13.8H693 M703.9,580l12.3,13.8"/>
	<circle class="st1" cx="716.2" cy="593.8" r="3.8"/>
	<polygon class="st1" points="689.2,596.2 687.7,597.1 687.7,597.6 698.3,597.6 698.3,597.1 696.8,596.2 	"/>
</g>
<g transform="translate(2.5, 57) rotate(5) scale(0.55)">
	<polygon class="st1" points="603.8,711.4 602.3,712.2 602.3,712.8 630.3,712.8 630.3,703.7 629.7,703.7 628.8,705.2 611.5,705.2 
		611.5,699 624.4,699 624.4,691.4 611.5,691.4 611.5,685.2 628.8,685.2 629.7,686.7 630.3,686.7 630.3,677.6 602.3,677.6 
		602.3,678.2 603.8,679 	"/>
</g>
<g transform="translate(11.9, 55.5) rotate(-22) scale(0.55)">
	<path class="st8" d="M254.5,910.9l0-17.6h12.3c16.2,0,16.2,13.8,0,13.8h-12.3 M254.5,903.2v17.6l12.3,0c16.2,0,16.2-13.8,0-13.8
		h-12.3"/>
	<polygon class="st1" points="250.7,923.2 249.2,924.1 249.2,924.7 254.5,924.7 	"/>
	<polygon class="st1" points="250.7,890.9 249.2,890 249.2,889.4 254.5,889.4 	"/>
</g>
<g transform="translate(18, 52.3) rotate(-32) scale(0.55)">
	<polygon class="st1" points="116.3,957.6 114.8,958.5 114.8,959.1 142.7,959.1 142.7,950 142.1,950 141.3,951.4 123.9,951.4 
		123.9,945.3 136.9,945.3 136.9,937.6 123.9,937.6 123.9,931.5 141.3,931.5 142.1,932.9 142.7,932.9 142.7,923.8 114.8,923.8 
		114.8,924.4 116.3,925.3 	"/>
</g>
<g transform="translate(25, 30) rotate(8) scale(0.55)">
	<polygon class="st1" points="703.2,572.9 701.7,573.7 701.7,574.3 732.5,574.3 732.5,565.2 732,565.2 731.1,566.7 710.8,566.7 
		710.8,539.1 701.7,539.1 701.7,539.6 703.2,540.5 	"/>
</g>
<g transform="translate(30, 30.7) rotate(10) scale(0.55)">
	<polygon class="st1" points="750.8,546.8 749.3,547.7 749.3,548.3 759.9,548.3 759.9,547.7 758.4,546.8 758.4,514.5 759.9,513.6 
		759.9,513 749.3,513 749.3,513.6 750.8,514.5 	"/>
</g>
<g transform="translate(35.4, 32.3) rotate(8) scale(0.55)">
	<path class="st8" d="M767,549.3c-20.6-16.2-32.3,24.1-11.8,24.1h10.3v-13.8"/>
	<polygon class="st1" points="761.7,561.1 760.3,560.2 760.3,559.6 770.9,559.6 770.9,560.2 769.4,561.1 	"/>
</g>
<g transform="translate(43.3, 33) rotate(0) scale(0.55)">
	<polygon class="st1" points="681.7,677.9 680.3,678.8 680.3,679.4 690.8,679.4 690.8,678.8 689.4,677.9 689.4,645.6 690.8,644.7 
		690.8,644.1 680.3,644.1 680.3,644.7 681.7,645.6 	"/>
	<polygon class="st1" points="714,677.9 715.5,678.8 715.5,679.4 704.9,679.4 704.9,678.8 706.4,677.9 706.4,645.6 704.9,644.7 
		704.9,644.1 715.5,644.1 715.5,644.7 714,645.6 	"/>
	<polygon class="st1" points="683.2,657.9 683.2,665.6 712.6,665.6 712.6,657.9 	"/>
</g>
<g transform="translate(50.5, 32.5) rotate(-5) scale(0.55)">
	<polygon class="st1" points="659.2,736.7 657.7,737.6 657.7,738.1 668.3,738.1 668.3,737.6 666.8,736.7 666.8,710.5 677.7,710.5 
		678.6,712 679.1,712 679.1,702.9 646.8,702.9 646.8,712 647.4,712 648.3,710.5 659.2,710.5 	"/>
</g>
</svg>
