<?xml version="1.0" encoding="utf-8"?>
<!-- Generator: Adobe Illustrator 25.1.0, SVG Export Plug-In . SVG Version: 6.00 Build 0)  -->
<svg version="1.1" id="Layer_1" xmlns="http://www.w3.org/2000/svg" xmlns:xlink="http://www.w3.org/1999/xlink" x="0px" y="0px"
	 viewBox="0 0 600 600" style="enable-background:new 0 0 600 600;" xml:space="preserve">
<style type="text/css">
	.st0{fill:#FFFFFF;stroke:#000000;stroke-miterlimit:10;}
	.st1{fill:#840404;}
</style>
<circle class="st0" cx="300" cy="300" r="300"/>
<g transform="translate(0.000000,1197.000000) scale(0.100000,-0.100000)">
	<path class="st1" d="M2837,11866.1c-160.4-9.3-380.4-42.9-550.5-84.8c-292.1-71.7-606.1-209.7-863.6-378.4
		c-188.7-124.4-309.2-222.3-468.6-381.4c-157-157.5-254-275-368.7-446.7C179.9,9965.3,19.9,9215.7,140.8,8487.6
		c100-604.7,376.4-1141.1,811.4-1575.1c254.6-254,523.7-440.3,859.3-594.4C2145,6165,2498.1,6083,2894.1,6066.5
		c438.9-18.6,887,66.3,1277.6,241.8c521.3,234.1,942.2,589.6,1252.3,1057.7c270.6,408.1,424.7,856.3,471,1370.3
		c10.2,113.6,7.8,389.1-4.8,512c-62.4,613.9-303.3,1171.8-704.7,1631.2c-329.7,377.4-749.5,660.8-1231.8,832.4
		c-220.9,78.6-502.2,134.1-769.5,152.7C3117,11869,2905.3,11870,2837,11866.1z M3030.6,11678.4c6.9-5.4,6.4-11.2-1-29.3
		c-2.4-6.4-0.5-7.8,12.2-7.3c20,1,28.3-10.2,21.9-28.8c-6.9-18.6-19.5-25.3-31.7-17.6c-9.3,5.4-9.8,4.8-9.8-10.7
		c0-30.7,31.2-56.5,68.3-56.5c23.9,0,43.9,9.8,58.1,27.3c13.6,17.6,12.7,21.5-4.3,21.5c-20.5,0-29.3,18.6-17.6,37.1
		c7.8,11.2,10.7,12.2,25.8,9.3c15.7-2.9,17.1-1.9,13.6,5.9c-7.8,19-8.3,26.4-1.9,33.6c12.2,14.6,58.1,0.5,58.1-18.1
		c0-1.4-5.4-8.8-12.2-15.1l-12.2-12.7l17.1-2.9c19-3.9,21-10.2,9.3-33.1c-6.9-13.1-9.3-14.6-24.3-12.2c-15.7,2.4-16.6,1.9-16.6-11.2
		c0-8.8,5.4-20.5,13.6-29.3c22.9-26.4,71.2-24.8,100.5,2.4c14.6,13.6,16.6,23.9,3.4,19.5c-11.2-3.4-21,8.3-17.1,20
		c12.7,35.1,39,47.8,44.3,21.5c3.4-18.6,6.9-18.6,17.1,0c6.9,11.7,11.7,14.6,25.8,14.6c9.3,0,17.1-2.4,17.1-5.4
		c0-3-7.8-14.6-17.6-25.3c-24.3-28.8-47.3-78.6-67.8-149.7c-10.2-33.6-19-61.9-19.5-62.9c-1-0.5-15.7,2.9-32.7,8.3
		c-64.8,21-83.4,22.9-242.8,22.9c-159.9,0-192.2-2.9-250.6-22.4c-15.7-5.4-29.8-8.8-30.7-7.3c-1.4,1.4-10.2,27.8-19,59
		c-20,67.8-39,109.3-68.3,148.7c-11.7,16.1-21.4,30.2-21.4,31.7s7.3,2.4,16.6,2.4c13.1,0,19.5-3.4,29.3-15.7l12.2-16.1l3.4,16.1
		c3.9,20.5,16.6,20.5,33.6,0.5c16.1-19.5,15.7-41.5-1-40c-13.6,1.4-14.6-8.3-2.4-19.5c41.5-37.6,113.1-22.9,113.1,23.4
		c0,17.6-3.9,21-13.1,11.7c-7.8-7.8-30.7,16.1-30.7,32.2c0,10.2,2.4,12.2,14.6,12.2c17.1,0,18.6,4.8,4.8,17.1
		c-12.7,11.7-12.2,24.3,1,33.6c14.1,9.8,35.1,9.8,44.8,0c9.3-8.8,9.3-8.3,1.9-23.9c-6.9-15.7-2.9-19.5,11.2-11.7
		c9.8,4.8,12.2,4.3,20-5.4c17.1-21,8.8-43.9-16.6-43.9c-18.6,0-17.1-5.4,5.9-26.4c22.4-20.5,36-24.3,67.2-21
		c28.3,2.9,54.6,28.3,54.6,52.7c0,13.6-1,14.6-13.6,11.7c-18.6-3.9-31.7,10.2-29.3,32.7c1.4,14.6,2.9,16.1,17.6,15.1
		c15.7-0.5,15.7,0,12.7,15.7c-2.4,13.1-1,17.6,8.8,23.9C2996.5,11690.1,3018.4,11688.6,3030.6,11678.4z M2264.5,11496.9
		c9.8-20,16.6-40,15.1-43.9c-4.3-11.2-21.9-9.8-28.8,2.4c-23.4,37.6-91.7,42.4-125.3,8.8c-12.2-12.2-15.1-19-15.1-36.6
		c0-26.9,6.4-40,21.9-45.8c6.9-2.4,44.8-10.2,84.8-16.6c81-13.6,94.1-18.6,116.5-43.9c44.8-51.2,22.9-134.6-44.3-169.2
		c-25.8-13.6-87.7-28.8-116-28.8c-22.4,0-24.3,1-38.6,21.9c-19,27.3-30.7,55.1-27.3,63.9c5.4,13.6,25.3,7.3,41.9-13.1
		c26.9-33.6,69.3-42.9,110.7-23.9c27.8,12.2,41.5,34.6,39,62.4c-3.9,38.6-24.3,50.7-101.9,61.9c-63.4,8.8-79.5,13.6-106.8,31.2
		c-26.9,16.6-38.6,39-38.6,74.1c0,45.8,25.3,75.6,88.8,104.4c25.3,11.7,76.5,25.3,97.5,26.4
		C2243.5,11533,2252.3,11521.3,2264.5,11496.9z M3886.9,11499.3c52.7-21,76.5-37.1,76-50.7c0-5.9-3.9-23.9-8.3-40
		c-7.3-25.8-9.8-29.3-20.5-29.3c-11.2,0-12.7,2.4-15.1,25.3c-3.9,32.2-20,57.6-43.9,69.8c-24.8,12.7-58.1,12.7-74.1,0
		c-15.1-11.7-24.3-38.1-20-55.6c1.4-6.9,24.8-36,51.2-64.8c26.9-28.8,52.7-61.5,58.1-72.2c18.1-37.6,9.8-81.5-21-113.6
		c-19.5-20.5-26.9-24.3-56-30.2c-45.3-8.3-114.1,13.6-161,52.2l-21.4,17.6l3.4,27.3c3.9,30.7,15.7,63.9,22.9,63.9
		c2.4,0,8.8-2.4,14.1-4.8c7.3-4.3,9.3-10.7,9.3-34.6c0-34.6,8.3-52.7,32.2-70.7c12.2-9.8,24.8-14.1,43.9-15.7
		c46.3-3.9,70.2,15.1,70.2,56c0,23.9-9.3,38.1-57.6,91.2c-42.4,46.3-59.5,74.6-59.5,99.5c0,31.7,22.9,68.3,56,89.8
		C3787.4,11523.3,3837.7,11519.3,3886.9,11499.3z M4297.5,11303.3c11.2-12.2,1.9-26.4-12.2-19c-4.8,2.9-17.1,4.8-26.4,4.8
		c-22.9,0-33.6-15.1-94.1-131.2c-57-109.3-61-127.3-34.1-149.7c15.7-12.7,16.6-15.1,10.7-23.4c-6.4-8.3-10.7-6.9-84.8,31.7
		c-54.1,28.3-78.6,43.4-78.6,49.3c0,12.7,6.4,14.1,34.6,8.8c25.3-4.8,26.9-4.8,36.6,7.3c5.4,7.3,33.6,58.6,61.9,114.1
		c43.9,85.3,52.2,104.8,52.2,123.9c0,19-1.9,23.9-15.1,34.1s-14.6,13.1-9.8,22.4c5.9,10.2,6.9,9.8,78.6-26.4
		C4256.5,11329.7,4293.1,11308.7,4297.5,11303.3z M1855.9,11365.2c1-5.4-4.3-14.6-13.1-22.9c-24.8-22.4-21.9-35.6,35.1-146.3
		c27.3-53.6,56-105.3,63.9-115.1c12.7-15.1,16.1-16.6,34.1-15.1c11.2,1.4,22.9,2.9,26.4,4.3c3.9,1,9.3-1.9,12.2-6.9
		c6.9-10.2,13.1-5.9-83.9-58.6c-63.9-34.6-70.7-37.6-77.5-30.7c-7.3,6.9-6.4,9.3,10.7,26.9c17.1,17.6,18.6,21,16.1,39.5
		c-2.4,20-95.1,198.5-117,225.8c-11.7,14.6-23.4,17.1-50.7,10.7c-12.7-2.9-16.6-1.9-19,4.8c-1.9,4.3-0.5,11.2,3.4,14.6
		c10.2,9.8,147.3,80.5,153.1,78.6C1852.5,11374.5,1855.4,11369.7,1855.9,11365.2z M3154,11328.2c85.3-13.6,121.9-42.4,121.9-95.6
		v-18.1l-11.2,10.2c-37.6,35.1-118.5,33.6-201.4-3.9c-16.6-7.3-31.7-16.1-33.6-19.5c-1.9-2.9,2.4-48.8,10.2-101.9
		c7.3-52.7,12.2-99.5,10.2-103.9c-1.4-4.3-11.7-10.7-21.9-14.1c-16.1-4.3-23.4-4.3-43.9,2.4c-21.4,7.3-26.4,7.3-41,1.4
		c-18.1-7.8-52.7-35.6-52.7-42.9c0-2.4,8.3-4.3,18.6-4.3c9.8,0,31.2-3.4,47.3-7.3c42.9-10.2,76.5-9.3,91.7,2.4
		c14.6,11.7,30.2,12.2,87.2,2.9c86.3-14.1,140.5-51.7,140.5-98c0-30.7-4.3-34.1-31.7-24.3c-13.1,4.3-62.4,14.6-109.3,22.4
		c-86.3,15.1-102.9,20.5-112.7,38.6c-8.3,15.7-28.8,12.2-49.3-7.8c-17.1-16.6-20-17.6-82.9-26.9c-61-9.3-122.9-22.4-141.9-30.7
		c-6.4-2.9-8.8-0.5-11.2,13.6c-4.3,22.4,3.9,45.8,24.3,70.2c9.8,11.2,17.1,24.8,17.1,32.2c0,6.9-7.8,35.6-17.1,63.4
		c-20,60-21.4,87.7-6.4,130.7c10.2,29.8,10.2,31.2,2.4,72.7c-12.7,63.4-11.2,85.3,5.9,101.9c15.7,15.7,49.8,26.9,100.5,33.6
		C2912.1,11333.5,3115.9,11334,3154,11328.2z M1545.7,11163.9c29.3-30.7,35.1-42.4,25.8-50.2c-6.4-5.4-11.7-3.9-31.2,6.9
		c-38.1,20.5-66.8,16.1-99-15.7c-31.2-29.8-29.8-70.2,3.4-85.8c19.5-9.8,32.7-9.8,82.9-0.5c60,10.7,103.4,9.8,128.7-3.4
		c49.8-25.8,67.8-85.3,42.4-137.5c-16.1-33.1-53.6-67.8-93.1-86.3c-56-26.9-72.2-23.9-110.2,22.9l-20,23.4l10.2,8.3
		c9.8,8.3,11.7,7.8,42.4-8.3c49.3-25.8,81.5-20.5,116.5,18.1c13.1,14.6,17.1,23.4,17.1,37.6c0,20.5-14.1,46.3-29.8,54.6
		c-12.2,6.9-70.2,4.3-129.2-4.8c-50.7-8.3-75.6-2.4-103.9,25.8c-46.3,45.8-40.5,103.4,16.6,153.1c17.6,16.1,97,64.8,104.8,64.8
		C1521.8,11186.8,1533,11176.5,1545.7,11163.9z M3263.7,11171.2c8.3-8.8,17.1-47.8,17.1-76.5c0-14.6-5.9-39.5-14.6-63.9
		c-7.8-21.9-14.6-44.8-14.6-51.2v-11.2l-38.6,16.6c-21.4,9.3-49.8,18.1-63.4,20c-13.6,1.4-26.9,5.4-28.8,8.3
		c-7.8,10.2-35.1,82.4-32.2,85.3c1.4,1.4,37.6,2.9,80.5,2.9c71.2,0,77.5,0.5,77.5,8.8c0,17.1-13.6,41-32.2,56.5l-19,16.1l31.2-2.4
		C3243.7,11179,3260.2,11175.1,3263.7,11171.2z M4550.6,11135.5c50.7-13.1,91.7-39,147.7-92.2l52.2-49.8l-29.3-44.4
		c-15.7-24.8-30.2-44.8-31.7-44.8c-1.4-0.5-6.4,2.4-10.7,5.9c-7.3,5.4-7.3,7.8-0.5,32.2c15.7,52.7-8.3,102.4-63.4,131.2
		c-20.5,10.7-31.7,13.1-61.5,13.1c-31.7,0-41-1.9-69.3-16.1c-39-19-67.2-49.3-88.3-93.1c-12.7-26.9-15.1-37.1-14.6-68.3
		c0-42.9,7.8-64.3,34.6-94.1c20.5-22.9,57-47.8,70.2-47.8c10.7,0,44.3,32.7,55.1,53.6c8.8,16.6,9.8,13.6-24.3,61.9
		c-3.4,4.8-2.4,8.8,3.9,13.6c8.3,5.9,15.7,1.4,73.1-44.8c35.6-28.3,64.8-54.1,65.8-57.6c2.4-10.2-11.7-18.6-22.9-12.7
		c-5.4,2.9-14.1,5.4-19.5,5.4c-13.1,0-42.9-27.3-63.9-58.6c-20-28.8-19.5-28.8-71.2,0.5c-116.5,66.8-168.2,141.5-161.5,232.1
		c6.4,82.9,67.2,159.4,141.9,177.5C4488.2,11144.3,4520.9,11143.4,4550.6,11135.5z M1215.1,10935.2c7.3-6.9,6.9-8.8-1.9-20
		c-5.4-6.9-9.8-20-9.8-28.8c0-19.5,8.3-29.3,129.7-156.5c49.3-51.7,89.8-96,89.8-98.5c0-2.4-2.4-6.4-5.9-8.3
		c-3.4-1.9-100.5-4.8-216-6.4l-209.7-2.9l61.5-49.3c127.3-101.9,148.7-112.7,178.5-87.7c14.1,11.7,16.1,12.2,22.9,4.8
		c7.3-6.9,7.3-8.8-1.4-20.5c-29.3-40-82.4-101-89.3-102.4c-11.2-1.9-14.6,12.7-6.4,24.8c20.5,29.3,4.8,53.1-74.1,114.6
		c-34.1,26.9-76.5,60-93.6,73.6c-34.6,27.8-52.7,31.7-73.6,15.1c-14.1-11.2-21.5-12.2-28.3-3.4c-3.4,4.3,5.9,19,33.6,54.6l38.6,48.8
		l183.9-1.9l183.4-1.4l-14.6,18.6c-33.1,41.5-141.5,143.4-152.2,143.4c-5.9,0-18.6-5.4-28.3-12.2c-13.6-8.8-20-10.7-26.9-6.9
		c-4.8,2.4-8.8,6.4-8.8,8.3c0,2.9,107.7,108.2,110.7,108.2C1207.3,10943,1211.2,10939.5,1215.1,10935.2z M4960.2,10785.5
		c63.9-68.8,73.1-81.5,64.4-90.2c-5.9-6.4-8.8-5.9-21.5,3.4c-19.5,13.6-39.5,13.1-61.5-1.9c-33.6-22.9-172.2-153.6-178.5-168.2
		c-5.4-12.7-4.3-17.1,4.3-35.1c7.3-15.7,8.8-21.9,4.3-26.9c-2.9-3.9-7.8-6.4-10.7-5.4c-4.3,1-47.3,46.9-112.2,120
		c-8.8,10.2-9.3,11.7-1.9,18.6c7.3,7.3,9.3,7.3,21.9-1.4c37.1-26.4,49.3-19.5,158.5,87.2c89.3,87.2,95.6,97,77.5,121.5
		c-8.8,11.7-9.8,16.1-5.4,21.9c3.4,3.9,7.8,6.9,9.8,6.9C4911.9,10835.6,4934.4,10813.2,4960.2,10785.5z M3146.6,10774.8
		c92.7-10.7,95.1-11.7,101-26.4c29.3-75.6,53.1-316.4,38.6-386.7c-11.2-52.7-44.8-71.7-135.6-75.6c-101-4.8-101-4.8-116,164.4
		c-4.3,46.9-9.3,86.8-11.7,89.3s-11.2,3.4-20.5,2.4c-20-1.9-21-5.9-28.8-106.3c-7.3-94.6-13.6-130.7-25.8-142.9
		c-8.8-8.8-13.6-9.3-59-6.9c-49.3,2.9-100.5,15.1-122.4,29.8c-17.6,11.2-25.8,30.7-34.1,78.6c-13.1,77-6.4,181.9,21,319.4l8.3,41.5
		l24.3,5.9C2869.7,10781.5,3035,10787.9,3146.6,10774.8z M1812,10732.2c3.4-3.4,5.9-10.7,5.9-17.1c0-6.4,2.9-11.2,6.9-11.2
		c13.1,0,22.4-14.6,22.4-35.1c0-20.5-10.2-38.1-22.9-38.1c-4.3,0-6.4-6.4-6.4-19c0-37.1,18.6-63.9,43.4-63.9
		c13.6,0,14.6,1.4,20,28.3c15.1,77,30.7,108.2,53.1,108.2c20,0,34.6-16.6,34.6-39.5c0-20.5-14.6-41.9-30.7-44.3
		c-13.6-1.9-16.6-21-21-133.1l-2.9-82.9l-20-19.5l-19.5-19.5l18.1-92.7c9.8-50.7,29.3-161.9,43.9-246.3
		c50.7-295.5,49.8-277,17.6-289.7c-33.1-13.1-62.9-8.8-70.2,10.2c-7.8,20.5-56,383.3-72.2,547.7l-6.4,61l-17.1,7.8
		c-26.4,12.7-32.2,21.5-58.6,94.6c-34.6,96.5-42.9,111.2-61.9,115.1c-23.9,4.8-39,16.6-45.3,36c-4.8,14.6-4.3,19.5,1.9,29.3
		c11.2,17.1,29.8,20.5,45.8,8.8c7.3-5.4,24.3-26.9,38.6-48.3c39-59,37.6-57,48.8-53.6c16.6,5.4,27.3,43.9,21.4,78.6
		c-2.9,17.6-4.3,19.5-16.1,18.1c-26.4-2.9-44.3,49.3-22.9,64.3c7.8,5.4,9.8,10.2,7.3,19.5s0,14.1,9.8,21.9
		C1772,10739.1,1802.7,10741.5,1812,10732.2z M2648.7,10710.8c4.3-3.9,7.8-8.8,7.8-10.2c0-1.5-7.8-24.8-17.1-52.2
		c-30.2-88.8-32.7-118.5-35.1-432.1c-1.4-172.7-0.5-326.2,2.9-399.9c6.4-130.7,23.4-436,26.9-476.4l1.9-25.3l-24.8,2.9
		c-55.1,5.9-105.8,42.4-128.7,92.2c-11.2,24.3-41.5,139.4-93.6,355.5c-28.3,118-41.9,143.9-120.5,227.3
		c-84.8,89.8-103.9,113.1-133.1,164.4c-72.2,125.8-109.8,257.5-86.3,302.3c18.1,35.1,240.9,145.8,407.6,202.3
		c63.4,21.5,174.6,56.5,181.4,57C2640,10718.6,2644.9,10715.2,2648.7,10710.8z M3464.1,10694.8c167.3-47.3,327.3-113.1,466.2-191.6
		c76.5-42.9,83.9-54.6,72.7-118.5c-8.8-52.7-42.9-160.9-63.9-201.8c-25.3-50.7-41-69.3-156.5-188.2
		c-132.2-136.5-129.2-130.2-180.4-358.5c-46.9-209.2-60-248.2-95.6-277.5c-32.2-26.4-102.9-52.7-113.1-41.5
		c-2.4,2.4-2.4,29.3,0,60.5c24.8,340.9,36.6,733.9,29.3,967c-5.9,184.4-12.7,237.5-37.1,302.8c-19,51.2-19.5,52.2-11.2,60.5
		C3383.2,10716.7,3390,10715.7,3464.1,10694.8z M4318,10623.5c15.1-10.2,14.6-24.3-3.9-85.3c-7.8-27.8-14.1-56-13.1-62.9
		c1.4-10.7,3.9-12.7,20-14.1c10.2-1,33.6,1.9,52.2,5.9c42.4,9.8,68.3,9.8,81.9,0c8.8-5.9,10.7-12.2,10.7-33.6
		c0-22.4-1.9-27.3-12.7-36c-7.3-5.9-17.1-10.2-21.9-10.2c-4.3,0-33.1,8.8-63.4,19.5c-32.7,11.7-58.6,18.6-64.4,16.6
		c-8.8-2.9-9.3-5.9-6.4-33.1c11.7-108.7,9.8-130.2-14.6-139.4c-15.7-5.9-16.6-31.2-1.4-39c24.8-13.6,29.3-58.1,16.6-178.5
		c-4.3-39-6.4-72.7-4.8-75.6c1.9-2.4,6.4-4.3,10.7-4.3c17.1,0,73.6-33.6,102.9-60.5c46.3-43.9,79-120.5,79-186.8
		c0-14.6-0.5-14.6-30.7-17.1c-39.5-3.4-72.7-18.1-84.4-37.1l-8.8-15.1l-11.2,16.1c-23.4,34.6-84.4,47.8-104.8,22.9
		c-9.8-12.7-9.3-12.7-31.2,1.9c-13.1,8.8-24.3,12.2-42.4,12.2c-21.9,0-26.4-1.9-41.9-18.6c-17.1-18.1-18.6-18.6-33.1-12.2
		c-8.8,3.4-22.4,4.8-30.7,3.4c-15.7-3.4-39-26.9-39-39.5c0-6.4-1-6.4-7.8-1c-4.3,3.4-18.1,7.8-30.7,9.3l-22.4,2.4l-3.9,26.9
		c-5.9,38.6-0.5,106.8,11.2,137.5c28.3,74.6,121.9,155.1,190.2,163.4c27.8,3.4,29.3,6.4,29.3,57.6c0,47.8,8.8,146.8,14.6,168.7
		c3.9,13.6,8.8,19.5,19.5,23.4c12.2,3.9,14.6,7.3,14.6,21.5c0,11.2-3.9,20-12.2,27.8c-16.1,15.1-15.7,33.6,2.4,97
		c16.6,57.6,17.6,67.8,7.3,71.7c-3.9,1.9-33.1-1.9-64.8-7.8c-31.7-6.4-63.4-9.8-70.2-8.3c-16.1,4.3-29.8,31.7-25.3,50.7
		c4.8,19.5,21,35.6,36.6,35.6c6.9,0,34.1-7.8,60-17.1c25.8-9.3,53.6-17.1,61.5-17.1c14.1,0,14.6,1,14.6,21c0,11.2-3.4,42.4-7.3,69.3
		c-6.9,45.8-6.9,49.3,1.9,61C4260.5,10636.2,4293.1,10639.7,4318,10623.5z M5199.2,10489c22.9-34.1,41.9-65.3,41.9-69.3
		c0-13.6-15.6-14.1-29.3-1c-14.6,14.1-32.7,15.7-55.1,4.3c-21.4-11.2-174.6-116.5-190.6-131.2c-16.1-15.1-16.1-32.2,0-63.4
		c30.2-58.1,76-82.9,121-66.3c13.1,5.4,25.3-3.9,21-15.7c-1.9-5.9-86.3-37.6-99.5-37.6c-2.9,0-17.1,19-31.2,42.9
		c-33.1,54.6-87.7,137-115.6,173.1c-17.6,22.9-20.5,29.3-15.7,35.1c8.3,10.2,14.1,9.3,27.3-4.8c21.9-23.4,40.5-16.1,154.6,63.9
		c109.3,76.5,119.5,88.2,102.9,120c-7.3,14.6-7.3,15.7,1,21.9C5143.6,10569.4,5145.5,10567,5199.2,10489z M819.6,10425.6
		c44.8-25.3,45.3-25.8,38.6-41c-4.8-10.7-7.3-11.2-18.1-7.3c-7.3,2.9-22.9,4.8-35.1,4.8c-20,0-24.3-2.4-40-19
		c-25.8-28.3-58.1-90.7-51.7-100.5c6.4-10.7,104.4-66.8,109.8-63.4c2.4,1.4,13.1,18.6,23.9,38.1c30.2,54.6,30.2,54.6,43.9,43.9
		l11.2-9.3l-25.3-45.3c-15.1-25.8-23.9-46.9-21.4-49.3c13.6-12.7,93.6-53.6,105.3-53.6c24.3,0,63.9,64.3,64.3,105.3
		c0.5,21-1.9,28.8-16.1,48.3l-16.6,22.9l10.2,9.8l10.2,10.2l28.3-24.3c15.7-13.6,33.1-30.2,39.5-37.1l11.2-12.2l-26.4-40.5
		c-32.7-51.2-79.5-132.2-102.4-178.5c-20-39-25.8-44.8-35.6-35.1c-5.4,5.4-5.4,10.7-1.4,24.3c7.3,22.9-1,41-27.3,58.6
		c-24.8,16.1-181.4,100.5-200.9,107.7c-19.5,7.3-39.5,1.4-46.3-13.1c-5.9-13.1-11.7-14.6-23.4-7.3c-6.4,3.9-3.4,12.2,18.1,54.6
		c34.6,68.8,130.2,228.2,136.5,228.2C783.6,10445.6,800.1,10436.8,819.6,10425.6z M1469.2,10373.9c1.4-6.9,28.3-65.3,59-129.7
		c48.8-102.4,55.1-118,48.8-124.4c-5.9-6.4-8.8-3.9-21.4,19c-8.3,14.1-32.2,61.5-52.7,105.3c-21,43.9-40.5,79.5-43.4,79.5
		s-18.1-15.7-33.6-34.6c-28.3-33.6-28.3-35.1-25.8-58.6c1.9-17.6,1.4-23.9-3.4-23.9c-5.4,0-36,39-38.6,49.3
		c-1.4,6.9,95.1,130.2,101.9,130.7C1463.3,10387,1467.2,10381.2,1469.2,10373.9z M4646.2,10261.7c31.2-39,40.5-55.6,30.7-55.1
		c-2.4,0-8.3,3.4-13.1,7.3c-19.5,14.6-34.1,9.3-91.2-35.1c-30.2-23.9-59-48.8-64.3-56c-8.8-11.7-8.8-13.6-1.9-27.8
		c7.3-14.6,2.9-26.9-6.4-17.1c-17.1,19-68.3,86.3-68.3,89.8c0,7.3,12.7,5.9,19.5-2.4c12.7-15.1,31.7-8.3,77.5,26.9
		c62.4,48.8,85.3,71.2,81.9,81.5c-8.8,27.8-9.3,30.7-3.9,30.7C4609.1,10304.1,4627.2,10285.1,4646.2,10261.7z M1325.8,10143.7
		c8.3-8.3,14.1-19.5,14.1-26.9c0-17.1,7.8-20,22.4-8.3c52.2,41,118.5-41.5,100-123.9c-8.3-36-31.7-63.9-50.2-59.5
		c-25.8,6.9-21.9,30.2,6.4,37.6c29.3,7.8,36,30.2,21,68.3c-12.7,31.7-45.3,48.8-73.6,38.6c-17.1-5.9-25.8-21.9-25.8-46.3
		c0-15.1-1.4-17.1-10.7-15.7c-10.7,1.4-11.2,2.9-9.3,44.3c1.4,39.5,0.5,44.3-9.8,55.1c-22.9,24.8-48.8,8.3-53.1-33.6
		c-1.9-18.1-4.3-25.3-9.8-25.3s-7.8,6.9-8.8,26.4c-1.9,32.2,4.8,49.8,26.9,68.8C1287.2,10162.8,1306.8,10162.8,1325.8,10143.7z
		 M5401.1,10147.1c7.8-9.8,64.8-136,67.8-150.1c3.9-21.5-10.2-22.4-29.3-1.9c-14.6,16.6-17.1,17.6-38.1,15.1
		c-23.4-2.9-211.1-83.4-233.6-100.5c-18.1-13.6-16.1-43.9,5.4-86.3c20-41,39.5-55.6,72.2-55.6c33.6,0,44.3-4.3,44.3-17.1
		c0-10.2-3.4-11.7-41.5-17.1c-22.4-3.4-48.3-6.4-56.5-6.9l-15.1-0.5l-40.5,100c-21.9,55.1-48.3,116.5-58.1,136.5
		c-17.6,36-17.6,36.6-7.3,41.5c8.8,3.4,12.7,1.9,23.9-11.7c12.2-15.1,14.6-16.6,35.1-14.1c27.3,2.9,228.2,93.1,243.3,109.3
		c8.8,9.3,10.2,15.1,8.3,33.1C5378.1,10148.1,5388.8,10161.8,5401.1,10147.1z M4729.1,10040.8c57.6-8.3,108.7-16.1,113.6-17.6
		c10.2-3.4,11.2-15.7,1.4-19.5c-3.9-1.4-49.3,3.4-100,10.7c-51.2,7.3-94.6,12.2-96,10.2c-3.4-3.4,23.9-53.1,34.1-61.5
		c4.8-4.3,11.7-2.4,27.8,6.9c27.3,15.7,30.7,15.1,42.9-1.9l10.2-14.1l-27.3-15.7c-28.8-16.6-28.3-16.6-19-47.3
		c4.8-15.7-9.8-15.1-20,1c-9.8,15.1-21.9,15.7-38.6,1c-11.7-9.8-12.2-12.2-7.3-24.8c3.4-9.8,3.4-16.1,0.5-19
		c-2.9-2.9-5.9-4.3-6.9-2.9c-8.3,11.2-52.2,92.2-52.2,96.5c0,8.3,7.3,6.4,17.1-4.3c4.8-5.4,13.6-9.8,19-9.8
		c13.1,0,32.2,13.1,32.2,21.9c0,3.9-12.2,26.9-27.3,51.2c-25.3,41-29.3,53.6-15.1,53.6
		C4621.8,10055.4,4671.5,10048.7,4729.1,10040.8z M558.2,9996c1.9-3.4,3.9-17.1,3.9-29.8c0-36,3.4-38.1,169.2-99
		c39.5-14.6,79.5-26.4,89.3-26.4c17.1,0,32.2,10.7,43.9,31.2c4.3,7.3,5.9,7.3,14.1,1.4c8.8-6.4,7.8-10.2-21.9-87.7
		c-26.4-69.8-32.7-81.5-41.5-81.5c-14.6,0-15.7,2.9-10.2,24.3c9.3,34.6-8.8,46.9-151.2,98c-111.7,40.5-131.2,41.9-144.4,9.8
		c-4.8-11.7-7.8-13.1-17.1-9.8s-10.2,6.4-7.8,17.6c3.4,15.1,48.8,135.1,56,149.2C546.1,10003.2,552.9,10004.2,558.2,9996z
		 M1177.1,9970.1c5.4-8.3,3.9-16.6-9.3-57.6l-15.1-47.8l10.7-10.7l10.7-10.7l26.9,30.2c29.8,33.1,50.7,43.4,81,39
		c24.3-3.4,45.3-18.6,60.5-44.3c10.2-17.6,12.2-26.9,12.2-61c0-41.9-9.8-76-20.5-72.2c-3.4,1-5.9,7.3-4.8,13.6
		c7.3,61.9,6.9,71.7-4.3,91.7c-28.8,51.7-82.9,41-118-23.4l-8.3-16.1l-28.3,24.3c-15.1,13.6-33.1,29.8-39.5,36.6l-11.2,12.7
		l18.1,54.1C1156.1,9984.7,1162.9,9991.5,1177.1,9970.1z M4927.5,9797c32.2-75.1,36.6-91.2,22.4-85.3c-4.8,1.4-67.2,5.4-138.9,8.8
		c-71.7,2.9-133.1,6.9-136,8.8c-3.4,1.9-4.3,7.3-2.4,11.7c2.9,7.8,11.7,8.3,120.5,4.8l117.5-3.4l-3.4,11.7
		c-1.9,5.9-11.2,27.8-21.5,47.8c-16.1,33.6-19,37.1-35.6,40.5c-10.2,2.4-18.6,7.3-18.6,11.2c0,3.4,7.8,7.8,18.6,9.3
		c9.8,1.9,21.5,3.9,25.3,4.8C4893.4,9871.6,4897.8,9865.3,4927.5,9797z M5562.4,9735c27.8-90.7,34.1-122.4,26.9-128.7
		c-8.3-6.9-14.6-2.4-23.9,15.7c-12.2,22.9-26.4,19-104.8-30.7c-39-24.3-89.8-56.5-113.6-71.2c-23.4-15.1-41.5-27.8-40.5-28.8
		c2.9-2.9,168.7-30.2,217.5-35.6c22.9-2.4,48.3-2.9,56-1c12.7,3.4,15.1,6.9,17.1,25.8c1.9,15.1,4.8,21.9,10.7,22.9
		c11.7,2.4,15.7-9.8,28.3-84.3c8.3-49.8,9.3-62.9,4.3-66.3c-9.8-5.9-23.9,4.3-23.9,17.1c0,14.1-12.2,25.3-38.1,34.1
		c-15.7,5.9-209.7,39.5-311.6,54.6c-12.2,1.9-19.5,7.8-30.7,24.3c-24.8,35.6-37.6,22.9,149.7,141c55.1,35.1,110.2,72.7,122.4,83.9
		c21,20,21.9,21,19.5,44.8c-2.4,23.9,0,28.3,14.1,29.3C5545.4,9782.4,5554.1,9761.4,5562.4,9735z M1085.4,9757
		c-3.4-21.9-1-27.3,19.5-37.6c39.5-20,139.4-54.6,149.7-52.2c5.9,1.4,13.1,8.3,17.1,15.1c6.9,12.7,22.4,17.6,18.1,5.4
		c-1.4-3.4-11.2-29.8-21.4-58.6c-10.2-28.3-20.5-50.7-23.4-50.2c-2.4,1-5.4,10.7-6.4,21.5c-1,11.2-4.3,22.4-7.8,25.3
		c-7.3,6.4-127.3,52.2-146.8,56c-16.6,3.4-22.9,0-31.2-15.1c-2.9-5.9-8.3-9.8-12.2-8.3c-5.4,1.9-2.9,12.2,10.2,47.3
		C1073.2,9766.7,1090.7,9792.6,1085.4,9757z M2078.8,9702.4c21.4-9.3,28.8-22.9,24.3-49.8c-2.9-19.5-1.9-21.9,8.3-25.8
		c28.3-10.7,35.6-44.3,16.6-79.5c-11.7-22.4-11.7-22.9-2.4-25.8c25.3-8.3,30.2-58.6,7.3-80c-11.2-10.7-11.7-12.2-4.8-28.3
		c10.2-23.9,1.9-44.8-27.8-71.7c-40-35.6-105.3-55.1-169.2-49.8c-46.9,3.9-68.3,12.7-71.7,30.7c-1.9,7.3-3.9,18.6-5.4,24.8
		c-1.4,6.4-7.8,19.5-14.1,29.3c-7.3,11.7-12.7,29.3-15.1,49.3c-2.4,20.5-7.3,37.6-14.6,48.3c-10.2,15.1-11.2,20.5-8.8,49.3
		c2.4,27.3,1.4,35.1-7.8,53.1c-13.6,25.8-13.6,52.2-0.5,78.6c13.6,26.9,25.3,28.8,72.2,12.7c62.4-21.9,118-12.2,154.6,26.4
		C2035.8,9711.2,2051.9,9713.1,2078.8,9702.4z M451.9,9680.4c4.8-2.9,5.9-9.8,3.9-22.9c-5.9-34.1,1-37.1,205.8-89.3
		c62.9-16.1,117-32.2,121-36c8.8-8.8,10.7-7.3-157-113.1c-170.6-107.2-192.7-121.5-192.7-125.3c0-4.8,18.6-7.3,103.4-16.1
		c132.7-13.6,160.4-9.8,167.3,22.4c3.4,16.1,14.6,23.4,22.9,15.1c6.4-6.4-7.8-141.5-15.1-148.7c-8.8-8.8-19,1-22.4,21.9
		c-4.3,26.4-8.8,31.7-31.7,38.1c-28.8,7.8-183.4,24.3-227.3,24.3c-42.9,0-48.3-2.9-55.1-27.8c-2.4-9.3-7.3-14.1-15.1-15.1
		c-11.2-1.9-11.2-1.9-8.3,39c6.4,79.5,8.3,86.3,24.8,95.1C413,9360.5,667,9521.4,667,9526.3c0,6.9-175.6,51.7-199.9,51.2
		c-21.9,0-25.8-2.9-38.6-27.8c-10.2-20.5-22.9-27.3-27.8-14.6c-2.4,6.9,24.8,126.8,32.7,141C438.8,9685.8,442.2,9686.8,451.9,9680.4
		z M4513.5,9632.7c21-22.9,11.2-88.8-14.6-97c-60.5-19-113.1,46.3-73.1,91.2C4448.7,9652.1,4492.6,9655.6,4513.5,9632.7z
		 M4230.7,9611.7l20-14.6l13.1,12.2c27.8,25.8,62.4,12.2,85.8-34.1c20-39.5,37.6-60,61-71.7l23.4-11.7l-3.4-22.9
		c-3.4-26.9-13.1-43.4-30.7-55.1c-12.2-7.8-42.9-10.2-61-4.3c-6.9,1.9-15.7-1.4-27.8-11.7c-23.4-19.5-48.8-20-79-2.4l-21.9,12.2
		l-23.9-13.1c-28.3-15.1-45.8-13.6-72.2,7.8c-16.1,12.7-20.5,14.1-42.4,11.2c-22.4-2.4-25.8-1.4-36.6,10.2
		c-28.3,30.2-41.9,80-30.7,107.7c8.3,20,23.4,27.3,43.9,21.5c18.1-5.4,22.4-2.4,22.4,15.1c0,16.6,19.5,34.1,37.6,34.1
		c6.4,0,18.6-3.4,27.3-7.8c10.7-5.9,15.7-6.4,17.1-2.4c1,2.9,7.3,12.2,14.1,20C4182.9,9631.2,4203.9,9631.2,4230.7,9611.7z
		 M4984.6,9590.2c33.1-13.6,53.1-64.3,41.9-105.3c-7.8-28.3-35.1-54.6-65.8-63.4c-29.3-8.3-72.2-8.3-97.5,0
		c-29.3,9.3-68.3,41.5-90.2,74.1c-21,31.2-23.9,42.9-12.2,42.9c3.9,0,7.3-1.5,7.3-3.9c0-10.2,47.8-56.5,70.2-67.8
		c69.3-35.1,171.1-4.3,171.1,52.2c0,25.3-13.1,39-37.6,39c-21.5,0-41-8.8-55.1-24.3c-6.9-7.8-9.3-16.6-8.3-34.1
		c1.4-30.2-9.3-28.8-21.5,2.9c-14.1,37.1-1.4,69.3,33.6,85.3C4945.1,9598.5,4962.6,9599.5,4984.6,9590.2z M1185.4,9440.5
		c9.8-5.4,18.1-9.8,18.1-10.7c-2.9-24.8-38.6-181.4-41.9-181.4c-2.4,0-5.4,6.4-6.9,14.6c-2.9,18.1-19,26.9-49.8,26.9H1082l-2.9-27.8
		c-5.9-51.7-5.9-52.7,20-66.8c27.3-15.7,43.9-16.6,47.3-2.9c1.4,5.4,5.4,9.8,8.3,9.8c4.8,0,5.4-9.3,2.9-37.6
		c-1.9-21-5.4-40-7.8-42.4c-5.9-5.9-14.6,1-14.6,11.2c0,12.2-14.1,23.9-85.3,68.8c-71.7,45.3-96,58.6-107.7,58.6
		c-5.9,0-7.3,2.9-5.4,12.7c1,7.3,9.8,50.2,18.6,95.6l16.6,82.4l28.8-1.4c35.1-1.9,40-10.2,11.7-19c-24.3-7.8-35.6-25.8-41-66.3
		l-2.9-24.8l25.8-3.4c14.6-1.9,35.1-2.4,45.8-1.4c18.1,1.4,19.5,2.4,22.9,21c7.3,37.6,8.8,41.5,17.1,41.5c6.4,0,7.3-3.9,4.8-21.9
		c-1.9-12.2-4.3-27.3-6.4-34.1l-2.9-12.2h38.1c21.4,0,41,1.9,43.9,3.9c7.8,4.8,16.6,38.1,16.6,61.5c0,15.1-3.4,21.5-17.6,34.6
		C1127.3,9455.7,1142.4,9462,1185.4,9440.5z M2114.8,9226.4c1-63.4-40-108.7-104.4-115.6c-66.8-6.9-121.9,41.9-132.2,117.5
		l-3.4,22.9l18.6-12.2c21.9-15.1,43.9-20,82.9-19.5c43.4,0.5,77.5,13.6,104.4,40.5l22.4,22.4l5.9-17.1
		C2111.9,9256.2,2114.8,9238.7,2114.8,9226.4z M5320.1,9210.8c9.3-30.7,25.3-36.6,114.6-43.4c40.5-2.9,98.5-4.3,128.2-3.4
		c50.2,1.4,55.1,2.4,63.9,13.1c4.8,6.4,9.3,17.6,9.3,24.8c0,16.6,12.2,28.8,21,20c5.9-5.9,12.2-60,12.7-111.2
		c0.5-24.8-1-30.7-7.3-30.7c-23.4,0-255.6-105.8-255.6-117c0-5.9,164.4-86.3,223.4-108.7l41-15.7l-3.4-46.3
		c-5.4-84.3-7.3-92.7-20-92.7c-9.3,0-11.7,3.4-14.1,21.9c-1.9,11.7-6.4,24.3-10.2,27.3c-9.8,7.8-137,11.2-215.1,5.4
		c-72.2-5.4-84.8-10.2-92.2-36c-5.4-18.6-26.4-26.9-26.4-10.2c-0.5,28.8,12.2,151.2,15.7,155.6c2.4,3.4,8.8,4.8,13.6,3.4
		c7.3-1.9,9.8-6.9,9.8-19c0-11.2,2.9-18.1,9.3-21.5c11.2-5.9,248.2-6.9,257.5-1c3.9,2.4-50.7,30.7-142.9,74.1
		c-81.9,39-151.2,74.6-153.6,79.5c-3.9,6.4-2.4,9.3,6.4,13.1c6.4,2.4,59.5,25.8,118.5,52.7c59,26.4,121.9,54.1,139.9,61.9
		c18,7.8,31.2,15.7,29.3,17.6s-55.1,4.8-118.5,6.9c-100.5,3.4-116.5,2.9-129.7-4.3c-13.1-6.4-15.7-10.7-17.1-28.3
		c-1-17.6-3.4-21.5-12.2-22.4c-13.1-1.9-13.6,0-20.5,83.9c-4.3,50.2-4.3,63.9,0.5,67.2C5307.9,9234.7,5313.3,9230.8,5320.1,9210.8z
		 M5076.7,9214.7c5.4-13.6,14.6-188.7,10.2-192.7c-2.4-2.4-18.1-5.4-34.6-6.9c-23.4-1.9-30.7-1-32.7,4.3
		c-1.9,4.8,3.9,10.2,18.6,16.6c27.3,11.2,32.2,21,32.2,59.5c0,45.8-4.3,49.8-50.2,45.3l-37.6-3.4V9104c0-30.2-1-33.6-9.8-33.6
		c-8.3,0-9.8,3.4-9.8,23.9c0,36.6-2.4,39.5-29.8,39.5c-13.1,0-31.7-3.4-41-6.9c-15.1-6.4-17.1-9.3-17.1-24.8
		c0-14.1-1.4-17.6-8.3-16.1c-7.3,1.5-9.3,8.8-11.7,38.1c-1.9,20-3.9,45.3-4.8,56c-2.4,22.9,6.9,26.9,16.6,7.3
		c4.3-8.3,10.7-12.7,21.5-13.6c21.9-1.9,151.2,12.7,161.9,18.6c4.8,2.4,10.7,10.2,12.2,17.1C5066,9223,5072.9,9225.4,5076.7,9214.7z
		 M3065.3,9131.8c8.8-4.3,18.6-13.6,21.4-20.5c5.4-10.7,3.9-16.1-8.3-39c-7.8-14.1-12.7-27.3-10.7-29.3c1.4-1.9,10.7,0.5,20,4.8
		c21.9,10.2,33.1,9.8,48.3-1.9c35.6-28.3,21-100-24.3-117.5c-17.6-6.4-22.4-5.9-42.4,7.8c-29.8,20-33.6,9.8-17.1-43.9
		c12.2-40,34.1-65.3,71.7-83.9c25.8-12.7,32.2-13.6,86.3-13.6c52.7,0,61,1.4,85.3,12.7c14.6,6.9,34.1,19,43.4,26.9
		c16.1,13.6,44.3,53.1,44.3,61.9c0,2.4-14.1,2.4-32.2,1c-28.8-3.4-32.7-2.4-43.4,7.3c-15.7,14.6-20,38.6-12.2,65.8
		c12.7,45.3,43.4,58.6,79,34.1c30.2-20.5,38.1-12.7,16.1,17.1c-15.7,21-16.6,52.2-2.4,67.2c28.8,30.7,104.8,24.3,136-11.2
		c8.3-9.8,15.1-21,15.1-24.8c0-18.6-30.2-55.6-44.8-55.6c-5.4,0-8.8-3.4-8.8-8.8c0-7.8,3.4-8.8,29.3-6.9
		c52.7,3.9,64.8-15.7,41.9-65.3c-19.5-41.5-49.3-58.6-79-43.9c-26.9,12.7-31.2,10.7-31.2-14.1c0-28.3,9.3-49.8,29.8-69.3
		c45.8-43.4,136-50.7,206.8-16.1c35.6,17.1,65.8,43.9,65.8,58.1c0,8.8-1.9,9.8-13.1,6.9c-35.1-9.3-58.1,4.3-52.7,32.2
		c7.8,40.5,38.1,81.5,70.7,94.6c29.8,12.2,44.3,1,51.2-39c1.9-11.7,5.9-21,9.3-21c2.9,0,9.8,9.3,15.1,20.5
		c14.1,29.8,30.7,40,69.8,41.9c33.1,1.9,59.5-4.3,59.5-13.6c0-2.9-23.4-29.8-51.7-60c-77.5-81.9-136-174.1-199.9-316
		c-15.1-33.1-27.8-61-28.3-61.5c-0.5-1-19.5,1.9-42.4,5.9c-161.9,28.8-498.9,49.8-709,44.3c-219.4-5.4-480.3-27.8-581.3-49.3
		c-9.8-2.4-16.1,7.8-64.4,105.8c-65.3,133.1-106.8,196-176.5,269.7c-29.3,30.7-53.1,58.1-53.1,61c0,15.7,64.4,19.5,95.1,5.4
		c21.4-9.8,31.7-20,41.9-41.5c11.2-23.4,19-21.5,19,4.3c0,25.8,5.9,39,20,46.3c30.2,16.6,88.8-41.5,99.5-98.5
		c2.9-14.1,1.4-19.5-6.9-27.8c-9.3-9.3-14.1-10.2-34.6-7.3c-31.7,4.3-32.2-3.9-2.9-31.2c38.6-35.6,80-50.2,141-50.2
		c67.2-0.5,113.1,23.9,132.2,69.8c8.8,20,10.2,55.6,3.4,60c-2.4,1.4-12.7-1.9-22.4-7.8c-15.7-9.3-20-9.8-36.6-4.8
		c-46.3,13.6-76,90.7-42.4,108.7c5.9,2.9,21.9,3.9,38.6,2.4c24.8-1.9,28.3-1.4,28.3,6.4c0,4.8-4.8,9.8-11.7,11.7
		c-16.6,3.9-41.9,34.6-41.9,50.7c0,27.3,23.4,46.3,69.8,55.1c71.7,13.6,116.5-32.2,79-81.5c-7.3-9.8-11.7-20.5-10.2-24.3
		c2.4-6.9,6.4-5.9,24.3,4.8c40,23.4,63.4,13.6,79-32.7c10.2-29.8,5.9-53.1-11.7-67.2c-11.7-8.8-17.1-9.8-43.4-7.3
		c-33.6,3.4-37.1,0-22.4-21.5c38.1-57,88.8-82.9,162.9-82.9c95.6,0,158.9,49.3,164.4,127.3c1,16.1,0.5,28.8-1,28.8
		c-1.9,0-9.8-4.8-18.1-10.7c-17.1-12.7-42.9-13.1-60.5-1.9c-16.1,10.7-31.7,42.4-31.7,63.9c0,41.9,27.3,61.5,66.8,48.3
		c11.7-4.3,22.9-6.4,24.3-4.8c1.4,1.4-3.4,14.6-10.7,28.8c-12.7,23.9-13.1,27.8-7.8,41.5c8.8,21.4,36,30.2,85.8,28.8
		C3035,9141.1,3055,9137.2,3065.3,9131.8z M988.9,9127.5c0-3.9-8.3-8.8-18.1-11.2c-21.9-5.4-30.7-19.5-30.7-51.7v-23.4h89.3
		c48.8,0,91.2,1.9,93.6,3.9c2.9,1.9,7.8,9.3,10.7,17.1c11.7,25.8,16.1,14.1,16.1-43.4c0-51.2-1-56-8.3-54.6
		c-4.8,1-9.3,6.4-10.2,12.7c-1,5.9-5.4,12.7-9.8,15.1c-4.3,2.4-47.3,5.9-94.6,7.8l-86.8,3.9v-30.2c0-25.3,1.9-32.2,12.2-41.9
		c6.4-6.9,15.1-12.2,19.5-12.2c3.9,0,7.3-3.4,7.3-7.8c0-6.4-2.9-7.3-15.7-4.8c-8.8,1.9-23.4,4.8-32.2,6.4l-15.7,2.9l2.9,98
		c1.4,53.6,3.4,102.9,4.8,109.3c1.9,9.8,4.8,10.7,33.6,10.7C980.1,9133.8,988.9,9131.8,988.9,9127.5z M470,9073.4
		c3.9-16.6,0-21-22.4-24.8c-26.4-4.3-62.9-29.8-71.2-49.3c-6.9-16.6-9.8-101-3.9-116c3.4-8.8,35.6-10.2,101-4.8l37.6,3.4v52.7v53.1
		h14.1c12.7,0,14.1-1.4,17.1-22.4c1.4-12.7,2.9-36,2.9-51.7v-29.3l54.1,1.9c51.7,1.4,54.6,1.9,65.3,14.6
		c6.4,7.3,13.1,23.4,14.6,35.6c2.9,18.6,5.4,21.9,14.6,21.9c10.7,0,11.7-2.4,14.1-35.1c1.4-19.5,3.4-62.9,3.9-96.5
		c1.4-56,1-61-7.8-62.4c-11.2-2.4-17.6,6.9-17.6,24.3c0,22.9-12.7,25.8-104.8,24.3c-93.6-1-178.5-8.3-192.7-15.7
		c-8.8-4.8-10.7-8.8-16.6-35.1c-3.9-16.1-15.1-17.6-22.9-3.4c-5.4,10.7-7.8,51.7-11.2,218l-2.4,98.5l27.8,0.5
		c15.1,0.5,40,1.9,54.6,4.3C464.6,9086.5,466.5,9086,470,9073.4z M5090,8892.9c0-66.8-11.2-106.3-19.5-70.7
		c-2.4,10.2-5.9,11.7-22.9,11.2c-26.9-0.5-157.5-31.7-154.6-37.1c1.4-2.4,33.1-19.5,70.7-38.1c71.2-36,94.1-41.5,99.5-23.9
		c5.4,16.6,14.6,7.8,13.1-13.1c-1.9-23.4-10.2-66.3-12.7-69.3c-4.8-4.3-12.7,5.4-12.7,16.1c0,18.1-13.1,27.3-110.2,78.1
		c-61.5,32.2-89.8,49.8-89.8,55.1c0,4.3-1.4,12.7-2.9,18.6c-2.4,9.8,3.4,11.7,98.5,35.6c55.6,13.6,105.3,27.3,110.2,30.2
		c5.4,2.9,12.7,12.7,16.6,21.9C5083.1,8930.5,5090,8924.1,5090,8892.9z M1152.2,8855.4c1.9-26.9,1.9-50.2,0-52.2
		c-1.4-1.4-7.8,3.4-14.1,10.7l-10.7,14.1l-23.9-10.7l-23.4-10.2l2.9-42.4c1.9-22.9,4.8-43.9,7.3-46.3c2.5-2.4,15.7-5.4,29.3-7.3
		c23.9-2.4,25.3-2.4,30.2,10.7c7.3,19.5,12.7,10.7,19-31.2c6.4-41,1.4-55.1-11.2-30.7c-9.3,18.1-22.9,23.4-134.1,54.6
		c-82.4,23.4-102.9,33.1-102.9,49.8c0,2.4,36.6,22.4,81.9,43.9c105.8,51.2,127.7,64.8,127.7,79c0,12.2,3.9,17.6,12.2,17.6
		C1146.8,8904.6,1149.7,8888.5,1152.2,8855.4z M726.9,8669.6c1.4-6.4,7.3-41.5,13.6-78.6c8.8-55.6,9.8-68.3,4.3-71.7
		c-9.8-5.9-18.6-0.5-23.9,15.1c-6.9,19-20.5,18.6-56.5-3.4c-16.1-9.3-29.8-18.1-30.7-18.6c-2.4-2.9,26.9-125.3,31.2-129.7
		c2.9-2.9,22.4-5.4,43.4-5.9l39-1.4l2.4,19.5c1.9,15.7,4.8,20,13.1,21c9.3,1.4,11.7-2.4,21-34.1c5.9-19.5,13.6-46.3,18.1-59
		c3.9-12.7,6.4-26.4,4.8-29.8c-3.9-9.8-22.9-13.6-22.9-4.3c0,13.1-27.3,34.6-54.1,42.4c-14.6,3.9-92.2,17.6-172.7,29.8l-146.3,22.4
		l-16.1,17.6c-8.8,10.2-15.1,21-14.6,24.8c1,3.4,68.3,46.9,150.1,96c158.9,95.6,170.6,105.3,170.6,139.4c0,16.6,1.4,19,11.7,19
		C720.7,8680.3,725,8676.8,726.9,8669.6z M1181.4,8620.8c6.9-29.8,17.1-83.4,17.1-89.8c0-11.2-9.3-7.8-15.7,5.4
		c-2.9,6.9-9.8,12.2-14.6,12.2c-9.8,0-104.4-29.8-133.6-41.9c-9.8-3.9-16.6-8.8-15.1-9.8c1.4-1.4,45.8-10.2,98.5-19
		c53.1-8.8,98-18.1,100.5-20.5c2.9-2.9-24.8-30.2-71.7-69.8c-42.4-36-74.1-66.3-71.2-67.2c10.2-3.4,139.4,28.8,148.7,37.1
		c6.4,5.4,7.8,11.7,5.9,21.5c-3.4,15.7,4.3,18.6,11.7,4.3c10.2-18.6,29.3-75.6,26.9-79.5c-4.3-6.9-10.2-3.9-15.7,8.3
		c-4.8,10.7-8.8,12.2-31.2,12.2c-33.6,0-137.5-21.5-152.7-31.2c-9.3-5.9-12.2-12.2-12.2-25.3c0-27.3-10.7-18.1-25.3,22.9
		c-7.3,20-13.1,37.1-13.1,38.6c-0.5,1.4,14.1,13.6,32.7,27.3c18.1,13.6,50.2,40,71.2,58.1c32.7,28.3,37.1,33.6,29.3,36.6
		c-9.3,3.4-132.7,22.9-160.4,25.3c-14.1,1.4-15.1,2.9-23.9,41.9c-9.8,43.9-7.3,54.6,7.8,33.6c13.1-18.1,25.8-17.1,99.5,8.3
		c70.2,24.8,85.3,33.6,91.7,56C1171.2,8633.9,1177.6,8636,1181.4,8620.8z M4836.3,8582.7c0-9.8,3.9-16.6,11.2-21.5
		c14.1-9.3,121-33.1,152.2-34.1c21-0.5,24.8,1,29.3,10.7c4.3,9.8,17.1,15.1,17.1,7.3c0-2.4-3.4-19.5-7.8-38.6l-8.3-34.6l-99.5-47.8
		c-54.6-26.4-98.5-50.2-97.5-53.1c3.9-11.2,119.5-48.3,134.1-42.9c3.4,1,8.3,7.3,10.7,13.6c2.4,6.4,7.3,11.7,10.2,11.7
		c7.8,0,2.9-25.8-11.2-61c-12.7-32.7-24.3-41.5-22.4-17.1c1.9,22.4-9.8,29.8-107.7,64.8c-46.9,16.6-84.8,32.7-85.3,35.1
		c0,2.9,50.2,31.2,111.7,63.4c61.9,32.2,112.2,61,112.2,63.4c0,6.9-95.6,25.8-130.7,26.4c-25.3,0.5-28.8-0.5-33.6-11.7
		c-6.4-14.6-13.6-16.1-13.6-2.9c0,9.3,12.7,68.8,17.1,82.4C4828,8607.2,4836.3,8597.9,4836.3,8582.7z M3269,8465.7
		c106.8-6.4,207.7-16.1,312.6-30.2l79.5-10.7v-24.8c0-73.1-33.1-870.5-39-950.9c-17.6-217.5-60.5-343.8-150.1-437.4
		c-66.3-69.3-133.1-103.9-249.7-129.2c-48.3-10.7-72.2-12.7-174.6-14.6c-78.6-1.9-134.6-0.5-165.8,3.4
		c-146.8,18.6-274.5,76.5-342.8,156.5c-82.9,97-127.3,211.6-145.8,375c-7.3,64.8-37.1,770.5-40,950.9l-1.4,70.7l75.6,10.7
		c92.2,12.7,214.1,25.3,302.3,30.2C2828.7,8471.1,3170.6,8471.1,3269,8465.7z M5609.8,8405.7c2.9-7.8-35.6-164.4-41.9-170.6
		c-1.9-2.4-8.3-2.9-13.6-1.4c-8.3,2.9-9.8,6.4-7.8,19c4.3,29.8,2.4,30.2-99,28.8c-50.2-1-114.6-3.4-142.9-4.8l-51.2-3.4l66.3-53.6
		c143.9-116,158.9-125.8,174.1-116.5c4.3,2.9,11.2,11.2,14.6,18.1c6.9,14.1,9.3,15.1,20.5,8.3c6.4-3.9,4.8-11.2-9.3-52.2
		c-26.9-76.5-33.6-90.2-42.9-88.3c-6.9,1.4-8.8,6.9-8.8,26.4c0,15.1-3.4,29.3-8.8,37.6c-9.3,14.6-166.3,146.8-228.2,192.7
		l-38.1,27.8v32.7l-0.5,32.7l21,2.4c11.2,1.4,81,4.8,154.6,7.8c73.6,3,144.8,6.9,157.5,8.3c26.9,3.4,53.6,19,56.5,33.1
		C5585.3,8409.7,5603.9,8419.9,5609.8,8405.7z M1293.6,8251.1l11.2-26.4l-29.8-59.5l-29.8-59.5l-17.1,12.7
		c-35.1,26.9-80,11.7-86.3-29.3c-3.4-19.5,12.7-62.4,23.4-62.4c3.4,0.5,40.5,18.6,81.9,40.5l75.6,40.5l1.4,21.5
		c1,12.2,3.4,23.9,5.4,25.8c3.9,3.9,54.1-84.8,54.1-94.6c0-6.9-13.1-4.8-19.5,2.9c-3.4,3.9-11.7,7.3-18.6,7.3
		c-13.1,0-115.1-51.7-141.5-71.7c-14.6-11.2-16.1-14.1-13.1-29.3c5.4-30.2-7.8-16.1-40,42.9c-40.5,74.1-46.9,104.4-27.3,134.6
		c10.7,16.1,40.5,26.4,61.5,20.5c9.3-2.4,19.5-7.8,22.9-11.7c10.2-12.2,16.6-8.3,32.7,21c18.6,34.1,32.7,80.5,28.3,94.1
		c-2.4,7.8-1.4,9.8,4.8,8.3C1278.4,8278.9,1287.2,8266.3,1293.6,8251.1z M4721.7,8211.2v-20.5l70.7-33.1
		c75.1-35.1,98.5-40,107.2-23.4c6.4,11.7,14.6,12.7,14.6,1.4c0-10.7-59.5-131.7-73.1-149.2c-25.3-32.2-76.5-52.2-110.7-42.9
		c-53.6,14.6-89.3,59-89.3,112.2c0,24.8,3.9,38.1,22.4,79.5c33.1,74.6,45.3,96.5,52.2,96.5
		C4719.3,8231.7,4721.7,8224.3,4721.7,8211.2z M869.4,8126.8c28.8-71.7,30.7-78.6,22.9-84.4c-7.3-5.4-10.2-3.9-22.9,10.7
		c-12.2,14.6-18.1,17.6-33.1,17.6c-20.5,0-110.7-32.7-113.6-41.5c-3.9-9.8,76.5-178,84.8-178c10.2,0,92.2,43.9,102.4,55.1
		c7.8,8.8,10.2,36.6,5.4,57c-1.4,4.3,2.4,7.8,8.8,8.8c9.3,1.4,14.1-4.8,32.7-41.5c11.7-23.4,29.3-57,39-73.6
		c20.5-36,21-38.6,7.8-42.4c-7.3-2.4-13.1,1-22.9,12.2c-11.7,14.1-15.1,15.7-32.7,13.1c-17.1-1.9-161.5-74.6-220.4-111.2
		c-20.5-12.2-27.8-31.2-21.4-52.7c4.8-18.1,0-26.4-14.1-23.4c-7.8,1-78.6,133.1-78.6,146.3c0,14.1,13.6,15.7,26.4,1.9
		c21-22.9,37.6-21.9,88.8,4.3c25.3,13.1,45.8,26.4,45.8,28.8c0,6.4-77.5,173.6-82.9,179.4c-5.4,5.9-86.3-27.8-101-41.5
		c-8.8-8.3-11.2-15.7-11.2-33.6c0-28.8-10.2-40-21.4-22.9c-3.9,6.4-20,42.9-35.1,81.5c-26.9,67.8-27.8,70.2-18.6,77
		c8.3,6.4,10.7,5.4,22.9-10.7c21-25.3,35.6-23.4,141,17.6c98,38.1,134.6,55.1,144.4,67.2c3.9,4.8,5.4,16.6,4.3,30.7
		c-1.9,22.9,1.4,28.8,15.1,26.9C835.2,8205.3,852.2,8169.8,869.4,8126.8z M5123.6,8039.5c3.9-4.8,3.9-10.2,0-21.9
		c-7.3-21-0.5-35.6,23.9-51.7c32.2-21.5,217-104.8,231.6-104.8c9.3,0,19,4.8,28.3,15.1c15.1,16.1,32.2,17.6,29.8,2.4
		c-1-4.8-11.7-31.2-24.3-59c-22.9-50.2-22.9-50.7-42.4-53.6c-41.5-6.9-331.6-72.2-336-75.6c-3.4-3.9,96-73.1,148.7-103.9
		c30.2-18.1,52.2-17.6,70.2,1.4c15.1,15.6,21.9,17.6,30.2,9.3c4.3-4.3-5.4-21.9-36-68.3c-23.4-34.6-44.8-62.9-47.8-62.9
		c-12.2,0-16.6,11.7-9.8,24.3c9.3,16.1,8.8,29.8-0.5,43.4c-7.8,10.7-252.6,176-261.4,176c-1.9,0-3.9,5.4-3.9,11.7
		c0,10.7,3.9,12.7,64.8,26.9c35.1,8.3,126.8,29.8,203.4,47.8c76.5,17.6,141,34.1,143.4,36c2.4,2.4-12.7,11.7-34.1,21.9
		c-109.3,50.2-168.7,75.1-186.3,78.1c-17.1,2.9-21.5,1.4-38.6-14.1c-14.1-13.1-21-16.1-26.9-12.7c-7.3,3.9-4.3,12.7,24.3,72.7
		c18.1,37.1,35.1,67.8,38.1,68.3C5115.3,8046.4,5120.7,8043.4,5123.6,8039.5z M1436.5,7960.5c39-19.5,66.8-56.5,79.5-105.8
		c17.1-67.8-45.3-141.5-119.5-141c-37.1,0-61,10.2-90.7,38.1c-46.9,43.9-60.5,109.8-31.7,155.6
		C1311.7,7967.3,1378.4,7989.3,1436.5,7960.5z M4554,7907.8c-1-21,2.4-28.8,50.2-112.2c77-133.1,76.5-133.1-49.3-92.2
		c-113.6,36.6-128.7,39.5-144.8,28.8c-22.9-14.6-18.6,1.9,9.3,36.6c31.2,37.6,34.6,40.5,41.5,36c2.9-1.9,2.4-6.4-1-12.2
		c-7.8-12.2,0-21,25.8-28.8c23.4-6.9,26.4-5.4,58.6,37.1l20.5,25.8l-13.1,20c-15.1,22.4-24.3,27.3-35.1,19
		c-4.3-4.3-8.8-4.8-11.7-1.9c-5.9,5.9,38.1,71.2,45.8,68.8C4553.5,7931.8,4555,7921,4554,7907.8z M1678.4,7672.3
		c36-38.6,46.3-59.5,19.5-42.4c-8.3,5.9-15.1,6.9-21.4,3.9c-15.1-7.3-99-86.8-113.6-107.7c-12.2-17.6-12.7-21-7.8-32.7
		c16.6-35.6-16.1-8.8-98.5,81c-27.8,30.2-38.1,44.3-35.1,49.3c1.9,3.9,13.6,15.1,25.3,24.8c25.3,21,35.6,17.6,20.5-7.3
		c-11.7-19-12.7-31.2-3.9-46.9c9.3-16.6,42.4-50.2,49.3-50.2c3.4,0,19,11.7,35.1,26.4l28.8,25.8l-22.9,27.3
		c-18.6,21-21.9,27.8-17.1,32.2c4.8,3.9,11.7,0,27.8-16.6c11.7-12.2,23.9-21.9,27.3-21.9c8.8,0,50.7,47.3,50.7,57
		c0,4.8-3.4,14.1-7.8,20c-6.9,9.8-5.4,22.9,2.4,19.5C1638.8,7712.8,1657.4,7694.3,1678.4,7672.3z M4315.5,7635.7
		c-16.1-16.1-6.9-31.2,69.3-111.7l47.8-50.7l19.5,21.9c18.6,21,19.5,22.9,17.1,47.3c-1.4,13.6-1.4,26.4,0.5,27.8
		c1.4,1.9,10.2-8.3,19-22.4l16.1-25.3l-20.5-21.5c-11.7-12.2-47.3-45.8-79.5-75.1l-58.6-53.6l-20.5,23.4
		c-21.5,24.3-21.9,39.5-1,24.3c6.4-4.3,17.1-7.8,23.9-7.8c14.1,0,48.8,26.4,48.8,37.1c0,4.3-27.3,35.1-60.5,68.8
		c-62.9,63.9-63.9,64.4-91.7,52.7c-6.4-2.4-8.8-1.4-8.8,3.9c0,10.7,74.6,77,80.5,71.2C4319.4,7643.1,4319.4,7639.7,4315.5,7635.7z
		 M1800.8,7558.7c12.2-10.2,43.9-36,70.7-56.5c26.9-20.5,47.3-39,46.3-41c-1.4-2.4-10.7-2.9-21-1.4c-22.4,2.9-27.3-1.4-81.5-73.6
		c-42.4-56-49.3-73.6-34.1-85.8c4.8-4.3,5.9-8.3,2.9-11.2c-4.8-4.8-17.1,2.4-60,36c-57,44.3-96.5,79.5-96.5,84.8
		c0,2.9,7.3,14.1,16.6,24.8c21,23.9,29.3,19,21-12.2l-5.9-21l28.8-26.9c19-17.6,31.7-25.8,38.6-24.8c10.7,1.4,52.2,48.8,52.2,59
		c-0.5,3.4-11.2,14.6-24.3,24.8c-19,15.1-22.9,20.5-19,25.3c4.3,5.4,9.3,3.9,24.8-9.3c34.1-27.3,32.2-27.3,50.7-5.9
		c9.3,10.7,20.5,25.8,24.3,33.1c6.9,12.7,6.9,15.1,0,25.3c-21,31.7-58.1,44.8-88.3,30.7c-13.1-5.9-24.3-0.5-18.1,8.3
		c6.4,8.8,40.5,36.6,44.8,36.6C1776.3,7578.2,1788.1,7569.4,1800.8,7558.7z M4835.4,7557.3c4.3-4.8,2.9-11.7-4.3-26.9
		c-8.8-18.1-9.8-22.4-4.3-35.1c5.4-13.1,108.2-103.9,176.5-155.1c30.2-22.9,50.7-26.4,64.8-10.7c4.8,5.4,13.1,9.8,18.1,9.8
		c16.6,0,15.7-14.1-2.9-38.1c-32.2-41.5-92.7-108.2-98-108.2c-13.1,0-15.7,10.7-6.9,28.3c5.4,9.8,9.3,21.5,9.3,26.4
		c0,12.7-24.8,38.6-95.1,99c-115.1,98.5-123.4,102.9-153.6,77.5c-13.6-11.7-16.1-12.2-22.9-5.9c-4.8,4.8-5.9,10.2-3.4,14.6
		c10.7,18.1,107.2,130.2,112.2,130.7C4827.5,7563.5,4832.5,7560.6,4835.4,7557.3z M1201.9,7541.6c49.3-24.8,115.1-113.6,106.8-145.3
		c-1.4-6.4-14.6-24.3-29.3-40.5L1253,7327l-10.7,10.2l-10.7,10.2l12.7,24.8c16.6,33.1,17.6,70.7,1.4,94.1
		c-17.1,24.8-40,38.6-66.3,38.6c-53.1-0.5-66.8-43.9-41.9-134.1c19-68.8,15.7-105.8-14.1-138c-22.9-25.3-62.4-37.6-95.6-29.3
		c-17.1,4.3-29.3,13.1-54.1,37.6c-29.8,29.8-72.7,88.3-72.7,99c0,5.9,53.6,62.4,59,62.4c2.4,0,6.4-3.9,8.8-9.3
		c3.9-6.4,2.4-13.6-4.3-27.8c-19-37.1-9.3-74.6,25.8-101.5c22.4-17.6,55.1-17.6,73.6-0.5c17.1,15.7,16.6,38.1-2.4,120.5
		c-17.6,76-16.6,96,6.9,126.8C1101,7553.3,1153.6,7565.5,1201.9,7541.6z M4168.3,7512.3c0-1.4-3.4-8.3-7.8-14.6
		c-6.4-9.8-7.3-18.1-4.3-40c7.3-59.5,31.7-178.5,38.6-189.2c6.9-10.7,6.4-11.7-20.5-27.8c-15.1-9.3-52.2-31.7-82.4-49.8l-54.1-33.1
		l-15.1,16.1c-15.1,16.6-22.9,32.2-18.6,36.6c1.4,1.4,9.8-1.9,18.6-7.3c22.4-13.6,36.6-12.7,66.8,4.3c17.6,10.2,25.3,18.1,25.3,24.8
		c0,10.2-41.5,67.8-48.8,67.8c-2.4,0-15.7-6.9-29.3-15.7c-17.6-10.7-26.4-13.6-29.8-10.2c-3.9,3.9,1.4,10.2,19.5,21.9
		c13.6,8.8,24.8,19,24.8,22.4c0,10.7-44.3,54.6-55.6,54.6c-11.2,0-49.8-22.4-60-34.6c-2.9-3.9-6.4-18.1-7.3-31.2
		c-1-13.6-3.4-24.3-6.4-23.9c-6.9,0.5-20.5,25.3-23.9,43.4c-2.9,13.6-1.4,15.7,22.4,28.8c14.1,7.8,49.3,29.3,78.1,47.3
		c61.9,40,75.1,43.9,52.7,15.7c-6.4-8.3-8.8-16.1-6.9-22.9c3.9-12.2,30.2-46.9,36-46.9c1.9,0,17.6,10.2,34.1,22.4
		c33.1,24.3,32.7,21.9,19,71.2c-4.3,17.1-6.4,18.6-21.4,18.6c-9.3,0-17.1,1.4-17.1,3.9c0.5,5.4,60,49.8,67.2,49.8
		C4165.4,7514.9,4168.3,7513.8,4168.3,7512.3z M1974.4,7426.5c13.1-8.3,24.3-18.6,25.8-22.9c3.9-12.7,11.7-63.4,15.1-98l3.4-30.7
		l-19.5,3.4c-38.6,6.4-69.3-24.8-62.4-62.9c2.4-13.1,8.3-21.5,23.4-32.2c11.2-8.3,23.9-14.6,28.8-14.6c5.9,0,20,21.5,47.8,72.2
		c41.9,76,47.8,97,30.2,109.3c-5.9,4.3-8.3,9.3-5.9,13.1c2.9,4.3,12.2,1.4,37.6-12.2c44.3-23.9,61-36,58.1-41
		c-1.4-2.4-9.8-2.9-18.6-1.4c-11.2,1.4-18.1,0-23.4-6.9c-10.7-11.7-77.5-139.4-77.5-147.7c0-3.9,4.3-11.7,10.2-17.6
		c5.9-5.9,8.8-13.6,6.9-16.6c-7.3-11.7-138.9,68.8-151.2,92.7c-20,38.6,3.9,81.5,47.8,86.3l22.9,2.9v27.3
		c0,30.7-10.2,73.6-21.4,90.7c-8.3,12.2-10.2,21.9-4.3,21.9C1949.5,7441.6,1961.7,7434.8,1974.4,7426.5z M1491.1,7244.7
		c80.5-69.3,74.1-62.9,66.8-73.1c-5.9-8.3-7.3-8.3-29.3,2.4c-22.9,11.2-23.4,11.2-40,2.4c-16.1-8.8-133.1-140.5-160.4-180.4
		c-15.7-22.9-16.6-48.3-2.9-60c11.7-10.2,12.2-17.6,2.4-25.8c-5.9-4.8-14.1-0.5-47.3,28.3c-22.4,19-53.6,46.9-69.8,61.9
		c-27.8,25.8-28.8,27.8-20,34.1c8.3,6.4,11.2,5.9,25.8-2.9c20.5-12.7,34.6-9.8,59.5,12.7c23.4,21.5,142.4,155.6,150.1,169.7
		c9.3,16.1,7.3,39.5-3.4,53.6c-11.2,14.1-11.7,19-3.9,26.9C1426.3,7301.7,1425.3,7302.2,1491.1,7244.7z M4642.8,7179.8
		c73.1-41.9,141.5-80,152.2-84.8c25.3-11.7,44.8-11.7,65.3,1c17.1,10.2,29.8,9.3,29.8-2.4c0-8.3-121-124.8-129.7-124.8
		c-10.2,0-13.1,19.5-4.8,28.8c13.6,15.1,9.3,28.3-15.1,46.9c-30.7,21.9-211.6,125.3-214.6,122.4c-4.3-4.3,77.5-241.8,87.2-254
		c10.7-14.1,26.4-15.7,41.9-4.3c12.2,8.3,20.5,5.4,20.5-6.9c0-10.2-104.8-93.6-117.5-93.6c-9.8,0-7.8,17.6,3.4,30.7
		c11.7,13.6,12.7,18.1,10.2,44.8c-1.4,18.6-20.5,83.4-50.7,175.6l-48.3,146.3l10.2,17.6c10.2,18.6,21.9,33.6,25.3,33.6
		C4509.2,7256.4,4570.1,7222.2,4642.8,7179.8z M1807.5,7012c39-24.8,71.7-45.3,72.7-45.8c1-1-0.5-6.4-3.4-11.7
		c-4.8-8.3-7.8-9.3-18.1-5.4c-25.8,9.8-39.5,6.4-57-15.6c-27.8-35.1-136-218.5-133.1-225.8c1.4-3.9,16.1-14.1,33.1-22.4
		c41.5-21,65.3-21,91.7,0c16.1,13.1,21.4,14.6,26.9,10.2c3.9-3.4,7.3-8.3,7.3-10.7c0-8.8-60-67.2-68.8-67.2
		c-15.1,0-170.2,91.7-260.9,154.1c-39,27.3-39,17.6,0.5,79c27.3,43.4,42.9,40,31.7-6.9c-5.4-21-5.4-28.8,0-41
		c7.3-17.1,59-55.1,71.7-52.7c8.8,1.4,134.1,199.4,142.9,225.3c5.9,18.6,0.5,37.6-15.7,55.1c-8.3,9.3-9.3,12.2-3.9,18.6
		c3.4,3.9,7.3,7.3,8.3,7.3C1734.9,7056.4,1768.1,7036.4,1807.5,7012z M4275.5,7034.9c0-3.4-5.4-11.2-12.2-17.6
		c-14.1-13.1-16.1-35.1-5.4-60.5c10.2-24.3,102.9-179.4,117.5-197c16.6-19.5,27.3-22.4,48.3-13.6c16.1,6.9,18.1,6.9,22.4-1.9
		c2.4-4.8,4.8-10.2,4.8-11.7c0-7.3-259.9-154.1-273.5-154.1c-3.9,0-16.1,14.6-26.9,33.1c-26.4,43.4-28.3,48.3-16.6,54.6
		c7.8,4.3,14.1,1.9,34.6-14.6c13.6-10.7,30.2-19.5,36.6-19.5c15.7,0,40,10.2,83.9,35.6c32.2,18.1,35.6,21.5,33.1,32.7
		c-2.4,13.6-49.8,101-57,105.3c-2.9,1.4-24.3-8.3-48.3-21.9c-24.3-13.6-45.8-24.8-47.8-24.8c-2.4,0-6.9,5.4-9.8,11.7
		c-6.4,14.1-6.9,14.1,43.9,41.9c21,11.2,39,22.4,40.5,24.8c3.4,4.8-38.1,80-52.7,96c-13.1,14.1-31.7,13.6-61.5-1
		c-51.2-26.4-70.7-52.2-68.3-92.7c1.9-29.3-1.4-37.1-17.1-37.1c-9.8,0-12.7,4.8-21.9,34.1c-5.9,18.6-11.7,41-13.1,49.8l-2.4,16.1
		l81,43.9c44.8,24.3,102.4,57,128.2,73.6C4261.9,7049.1,4275.5,7052.5,4275.5,7034.9z M2069.5,6873.6c33.6-14.6,62.4-26.9,64.3-26.9
		s6.4-1.9,10.2-4.3c4.8-3.4,5.4-6.4,0.5-14.6c-4.3-8.8-8.3-10.2-21.4-7.8c-21.4,4.3-25.8-2.4-29.8-46.9l-3.4-37.1l52.7-20.5
		c78.6-30.7,74.6-30.7,101.5,1.9c12.2,15.1,22.4,31.2,22.4,35.6c0,3.9-6.9,13.1-15.1,20c-12.7,10.7-13.6,13.6-8.3,20.5
		c5.9,7.3,11.7,6.4,67.2-12.2c51.2-16.6,61-21.5,61-29.8c0-8.3-3.9-10.2-24.3-12.2c-38.1-3.9-48.8-13.6-194.1-176
		c-42.4-47.3-81.9-87.7-87.7-89.3c-5.9-1.4-18.6-2.9-27.8-2.9h-17.1l1,40c1,22.4,3.9,101.5,6.4,175.6c3.9,95.6,3.9,141,0,154.6
		c-4.3,17.6-20.5,35.6-35.6,41c-6.9,1.9,3.9,18.1,12.2,18.1C2007.1,6900.3,2036.2,6888.2,2069.5,6873.6z M3879.6,6829.7
		c1-6.9-3.4-12.7-13.1-18.6c-17.6-10.2-21.9-22.4-17.6-46.3c4.8-27.8,75.6-214.1,87.2-231.6c10.2-14.1,13.1-15.7,35.1-14.6
		c22.9,1,30.7-3.4,31.2-16.1c0-5.9-95.1-43.4-161-62.9c-60.5-18.1-98.5-23.4-123.4-16.6c-50.2,13.1-81,78.6-60,127.7
		c3.4,8.8,14.6,24.3,24.3,35.1c21,21.9,22.9,18.6-33.6,58.6c-55.6,39.5-92.2,57-126.8,60.5c-24.3,2.4-29.3,4.3-30.7,12.7
		c-1,8.8,4.3,11.2,49.8,21l51.2,11.7l55.1-35.6c101.5-64.8,125.3-82.4,122.9-88.8c-1-3.4-9.3-10.2-18.1-14.6
		c-23.4-12.7-32.7-31.2-32.7-65.3c0-69.3,46.9-99,120-77c40,12.2,40,12.2,27.8,47.3c-5.9,17.1-25.8,73.1-43.9,125.3
		c-38.6,110.7-47.3,123.9-81,121.9c-11.2-1-23.9,0.5-26.9,2.4c-15.7,9.8-0.5,19.5,69.3,44.8c40,14.6,74.1,27.8,75.6,28.8
		C3866,6845.3,3878.1,6838.9,3879.6,6829.7z M2557.1,6719.9c101.5-20.5,94.6-18.1,94.6-31.7c0-11.2-1.9-12.2-21-12.2
		c-36.6,0-37.6-2.4-71.7-179.4c-15.7-80.5-19.5-110.2-15.7-114.1c2.9-2.9,22.9-6.4,43.9-7.8c46.3-2.4,68.3,5.9,81.9,31.2
		c4.8,8.8,12.2,16.6,16.6,16.6c18.6-0.5,18.1-7.3-1.4-49.8c-19-42.4-19.5-42.9-37.1-42.9c-45.8,0-317.5,56.5-324.3,67.8
		c-2.9,4.8,14.6,88.3,20,93.6c8.3,8.3,21-1,21-14.6c0-22.9,9.8-48.8,22.4-58.6c11.7-9.3,77.5-24.3,82.4-19
		c4.3,4.3,51.2,243.8,51.2,261.4c0,22.4-7.8,34.6-27.3,42.9c-15.7,6.4-21.9,19.5-13.1,27.8C2483.5,6735.5,2472.8,6737,2557.1,6719.9
		z M3392.9,6694.1c8.8-4.3,15.1-15.1,22.9-37.6c14.1-40,13.1-55.6-3.4-57.6c-10.2-1-14.6,3.4-26.9,24.3
		c-20,34.6-40.5,47.8-74.1,47.8c-49.8,0-79.5-22.9-79.5-61.5c0-31.7,19.5-51.2,67.2-67.8c63.9-22.9,103.4-42.4,118-59
		c38.6-44.3,29.3-108.2-21-141.9c-29.8-20-62.9-26.4-125.3-24.8l-50.2,1.4l-6.9,19.5c-3.4,10.7-7.3,29.3-7.8,41.5
		c-1,18.6,0.5,21.9,8.8,23.4c6.9,1,13.1-4.3,21.9-18.6c36.6-59.5,141.5-47.3,141.5,16.6c0,32.2-16.1,44.8-91.7,71.2
		c-56,20-92.7,41.5-104.4,61.9c-12.2,20.5-16.1,57.6-8.8,84.4c7.3,27.3,43.4,63.9,73.6,74.6
		C3274.5,6701.9,3374.8,6703.3,3392.9,6694.1z M3026.2,6673.7c11.7-3.9,6.4-21.5-7.3-24.3c-7.8-1.9-20.5-5.9-28.8-9.8
		c-20-8.8-21.4-17.1-21.4-163.9c0-133.1,0-134.1,32.2-143.4c13.6-3.9,19-7.8,19-14.6c0-9.3-3.4-9.8-89.3-9.3
		c-61.9,0-90.7,1.9-94.6,5.9c-8.3,8.3,2.4,18.1,27.8,26.4c27.3,8.8,31.2,24.8,37.1,145.3c6.4,140.5,2.9,155.6-35.6,165.8
		c-15.1,4.3-18.6,7.3-18.6,17.6v12.2l86.8-2.9C2980.8,6676.6,3022.9,6674.6,3026.2,6673.7z"/>
	<path class="st1" d="M2829.7,11245.8c-14.1-5.9-41.5-35.1-41.5-44.8c0-5.9,7.8-9.8,29.3-14.1c16.1-3.4,29.3-7.3,29.3-9.3
		c0-1.4-8.8-6.4-19-10.7c-13.6-5.9-22.4-14.1-29.3-28.3c-17.6-33.6-18.6-32.7,61.9-36.6c39.5-1.4,78.6-4.3,86.8-5.9l14.6-2.9
		l11.2,52.2c7.3,36.6,9.3,53.6,5.9,58.1c-9.3,11.2-51.7,31.7-81,39.5C2866.2,11250.6,2844.8,11251.7,2829.7,11245.8z"/>
	<path class="st1" d="M2900.4,10713.3c0-19.5,21.4-41,48.8-48.3c29.8-7.8,100.5-4.3,121.9,6.4c18.6,9.3,34.1,30.2,34.1,46.9
		c0,9.8-1.9,9.8-30.2,6.4c-17.1-1.9-49.3-3.4-72.2-3.4c-22.9,0-55.1,1.4-71.7,3.4l-30.7,3.9V10713.3z"/>
	<path class="st1" d="M2402.5,10574.3c-13.6-16.6-11.7-117,2.4-136c10.7-15.1,32.2-1.9,55.6,33.6c23.4,35.6,30.2,51.7,30.2,71.2
		c0,27.8-18.6,23.9-37.1-7.8c-15.7-26.9-26.4-28.3-26.9-2.9C2425.4,10574.3,2416.2,10590.4,2402.5,10574.3z"/>
	<path class="st1" d="M2188.4,10372.4c-16.1-9.8,1-120.5,21.9-145.3c17.1-19.5,31.7-10.2,54.1,35.6c15.1,31.2,18.6,41.9,18.6,69.8
		c0.5,26.9-1,32.7-7.8,34.1c-9.8,1.9-26.9-22.4-31.7-44.3c-3.9-18.1-22.9-17.1-24.8,1.4
		C2214.8,10362.2,2203.1,10381.2,2188.4,10372.4z"/>
	<path class="st1" d="M2403.5,10202.7c-20.5-38.1-1.9-165.8,24.3-170.6c17.1-2.9,64.4,61.9,80.5,111.2c9.3,27.8,5.9,48.8-6.9,48.8
		c-11.7,0-33.6-23.4-40.5-42.9c-3.4-9.8-8.8-15.7-14.1-15.7c-10.7,0-14.6,9.3-14.6,34.1
		C2432.3,10204.2,2415.2,10224.7,2403.5,10202.7z"/>
	<path class="st1" d="M3600.2,10576.2c-1-3.4-2.9-19-4.8-34.1c-3.9-33.1-10.2-35.6-25.8-9.8c-12.7,20-27.8,32.2-35.1,27.8
		c-15.7-9.8,4.3-66.3,36.6-103.9c32.7-37.6,47.3-32.7,56,19.5c5.9,34.1,4.3,60.5-5.4,90.7
		C3616.8,10582.1,3604.1,10587.5,3600.2,10576.2z"/>
	<path class="st1" d="M3834.8,10342.2c-3.9-11.7-8.3-26.4-8.8-33.1c-2.4-19.5-16.6-18.1-23.4,2.4c-2.9,9.3-11.2,23.9-18.1,32.2
		c-23.9,27.8-33.6-1.9-18.1-54.6c16.6-55.6,41.5-90.7,59.5-85.3c21.9,7.3,49.3,118,36,146.8
		C3853.8,10368.5,3843.6,10365.6,3834.8,10342.2z"/>
	<path class="st1" d="M3612.3,10145.2c-2.9-7.3-6.4-25.8-8.3-41c-2.4-24.3-3.9-27.8-12.2-25.3c-4.8,1-13.6,11.7-19.5,23.9
		c-9.8,21-33.1,39-42.9,33.1c-10.7-6.9-4.8-44.8,12.2-78.6c34.6-68.3,62.9-94.1,79.5-73.6c16.6,20,28.8,114.1,19,149.7
		C3633.3,10159.8,3619.7,10165.2,3612.3,10145.2z"/>
	<path class="st1" d="M1939.7,9461c0-11.2-2.4-14.6-10.7-16.1c-23.4-3.4-11.2-47.8,12.7-47.8c7.8,0,12.7-3.4,14.1-10.2
		c2.4-8.3,5.9-9.8,21.4-8.3c15.7,1.4,18.6,2.9,18.6,13.1c0,7.3,3.9,13.1,10.2,15.7c27.3,9.8,14.1,48.3-16.6,48.3
		c-4.8,0-11.2,4.3-14.6,9.8c-3.9,6.4-11.2,9.8-20.5,9.8C1941.7,9475.1,1939.7,9473.7,1939.7,9461z"/>
	<path class="st1" d="M960.6,9288.8c2.4-7.3,81.5-61.5,89.8-61.9c5.9-0.5,11.7,25.3,11.7,52.2v15.7h-51.7
		C971.3,9294.7,959.1,9293.3,960.6,9288.8z"/>
	<path class="st1" d="M1018.5,8777.3c-47.8-22.4-48.8-22.9-39.5-28.8c5.9-3.4,82.4-24.3,90.2-24.3c3.9,0-2.4,64.8-6.9,69.3
		C1061,8794.9,1041,8787.5,1018.5,8777.3z"/>
	<path class="st1" d="M536.8,8455.5c-56.5-34.1-74.6-48.3-61-48.3c1.9,0,36.6-4.3,76-10.2c40.5-5.4,74.6-7.8,76.5-5.9
		c3.9,3.9-11.7,89.8-18.1,100C606.5,8497.4,604.6,8496.4,536.8,8455.5z"/>
	<path class="st1" d="M2736.6,8384.3c9.8-54.6,11.7-48.3-17.1-51.7c-34.6-4.3-41.9-11.7-34.6-36.6c7.8-25.3,18.1-34.1,30.7-26.4
		c14.6,9.3,46.9,7.3,58.1-3.9c21.4-21.5,4.8-53.6-27.3-53.6c-9.8,0-23.9,3.9-31.7,8.3c-13.1,7.8-14.1,7.8-23.9-1
		c-16.1-14.6-11.7-41.5,7.8-41.5h11.2l-11.7-25.3c-14.6-31.7-15.1-52.2-1.9-69.3c5.9-7.3,9.8-14.1,8.3-15.1
		c-3.9-3.9-151.2-13.1-166.8-10.2c-8.8,1.9-26.9,10.7-40,20c-27.8,20-44.8,21.5-63.4,5.9c-13.6-11.7-12.7-24.8,1-19.5
		c4.3,1.4,9.3,1,11.2-1.9c1.4-2.4,8.3-7.8,14.1-12.2l11.7-7.8l-17.1,0.5c-28.3,1-44.3-20.5-21.4-28.3c5.9-2.4,15.1-5.4,20.5-7.3
		c8.8-2.9,8.3-3.9-4.8-10.2c-16.1-7.8-25.3-33.1-9.8-26.9c4.3,1.4,11.2-0.5,15.7-4.3c8.8-8.8,21-6.4,45.3,10.7l17.1,11.2l1.4-10.7
		c1-5.9-0.5-11.7-3.4-12.7c-11.7-3.9-4.3-10.7,12.2-10.7c24.3,0,35.1,7.3,39,26.9c2.9,15.7,3.9,16.6,28.3,19
		c13.6,1.4,64.4,3.4,112.7,4.8c48.3,1,95.1,4.8,103.9,7.8c13.6,5.4,15.7,7.8,15.7,23.9v18.1l33.1-3.9c38.1-4.8,85.8,1.9,113.1,15.7
		c9.8,4.8,29.8,19.5,44.3,31.7c34.6,29.8,68.3,46.3,99.5,49.8c39,3.9,44.8-4.3,60-83.4c6.9-36,16.6-50.7,39-60
		c24.8-10.7,82.9-5.9,170.6,13.1c38.6,8.3,71.2,14.1,72.7,12.7c6.4-6.4-10.7-17.6-31.7-20c-12.7-1.9-26.9-4.3-31.2-5.4
		c-10.2-2.9-15.7-18.1-11.2-31.7c2.9-9.3,3.9-9.3,11.7-2.4c7.8,7.3,24.8,10.7,24.8,5.4c0-1.4-2.4-6.9-5.9-11.7
		c-2.9-4.8-3.9-12.7-2.4-17.1c4.3-10.7,32.2-5.4,43.4,8.8l8.8,10.2v-12.7c0-7.3,3.4-15.6,7.8-19.5c6.4-5.4,9.3-3.9,19,8.3
		c6.9,7.8,11.7,19,12.2,25.3c0,5.9,1,10.7,2.4,10.7c4.3,0,24.3-12.2,27.8-16.6c5.4-7.3,18.6,6.9,18.6,20c0,6.4-8.8,23.4-19.5,37.6
		c-10.7,14.2-21,33.1-22.4,42.4c-6.9,34.1-8.3,35.1-52.7,31.7c-111.7-9.3-110.2-9.3-119.5-1c-5.4,4.8-10.2,14.6-11.2,22.4
		c-1.9,12.7-0.5,14.1,17.6,16.6c28.3,4.8,63.9,25.8,78.6,46.9c15.7,22.4,21,63.4,12.2,89.8c-15.1,46.9-54.6,68.8-121.9,68.8
		c-54.1,0-81.5-12.7-135.1-62.4c-21.9-20.5-46.9-40.5-54.6-44.8c-34.6-17.6-84.8-13.1-111.2,9.3c-13.1,11.2-13.1,12.2-4.8,21
		c11.2,12.7,10.7,36-1.4,51.2c-11.2,14.6-38.1,28.3-55.6,28.3c-12.2,0-12.7-1.5-12.7-25.3c0-29.3,16.1-68.3,34.6-85.3
		c6.4-5.9,21.4-15.1,33.1-20l21.4-9.8l-26.4-2.9c-14.6-1.4-36.6-3.4-49.3-4.3l-23.4-1.9l-2.9,17.6c-8.3,52.7-41.5,119.5-65.3,132.2
		c-6.4,3.4-9.3,8.8-7.8,13.6c1.4,4.3,3.9,16.6,5.9,26.9c2.4,16.1,1.9,18.1-6.9,18.1c-5.4,0-15.7-6.9-21.9-15.7l-12.2-15.7l-7.8,18.1
		c-9.3,22.4-15.7,22.9-25.8,1l-8.3-17.1l-14.1,17.1C2743.4,8408.7,2732.7,8408.2,2736.6,8384.3z M3356.9,8275.1
		c21.4-20.5,23.4-56.5,3.9-78.1c-4.3-4.8-17.6-12.7-29.8-17.1c-21-8.3-21.9-8.3-44.3,2.9c-17.1,8.3-34.1,11.7-65.3,13.6l-42.4,1.9
		l18.1,12.7c9.8,6.4,30.2,23.4,45.3,37.1c15.1,14.1,34.6,29.3,43.9,33.6C3308.1,8293.1,3340.7,8290.1,3356.9,8275.1z"/>
	<path class="st1" d="M2564.9,8374.5c1.9-24.3-0.5-26.9-12.7-13.1c-8.8,10.7-15.7,13.6-28.8,13.1c-26.9-1-28.8-4.8-10.2-24.8
		c20.5-21.9,21.4-29.3,2.4-16.1c-16.1,11.7-28.8,12.7-46.9,4.3c-14.1-6.4-16.1-13.6-3.4-13.6c5.4,0,11.7-5.4,14.6-12.2
		c2.9-6.9,9.8-12.2,14.6-12.2s13.1-3.4,18.6-7.3c8.8-6.9,8.8-6.9-3.9-7.3c-7.8,0-13.6-1.9-13.6-4.3c0-2.4-4.3-3.4-9.8-1.9
		c-13.1,3.4-12.2-4.3,1.4-16.6c6.9-6.9,20.5-11.2,40.5-13.6c28.3-2.9,30.7-4.3,47.3-25.8c9.3-12.7,28.3-43.9,41.9-69.3
		c34.1-63.4,60.5-86.8,55.6-49.3c-1.9,12.7,0.5,25.8,7.8,41.9l10.2,23.4l-17.6,19.5c-9.8,10.7-30.7,39.5-46.9,63.9l-28.8,44.3
		l3.4,37.6c2.9,34.1,2.4,37.6-6.9,42.4C2578.6,8385.7,2563.9,8384.3,2564.9,8374.5z"/>
	<path class="st1" d="M3039.9,8355.6c-17.6-17.6-7.3-40.5,27.8-60.5c29.3-16.6,38.6-17.6,64.8-6.9c28.8,11.7,45.8,30.2,45.8,49.3
		c0,26.4-35.1,35.6-60.5,15.7l-13.1-10.2l-11.2,10.2C3080.3,8365.2,3051.1,8366.8,3039.9,8355.6z"/>
	<path class="st1" d="M2619.6,8309.2c-1.4-2.9,3.4-12.2,11.2-20.5c7.8-8.8,18.1-21.9,22.9-29.3c11.7-19,35.6-27.8,76-27.8h34.6
		l-1.4,16.1l-1.4,15.7h-38.1h-37.6l-18.6,20.5C2648.2,8305.8,2625.3,8318,2619.6,8309.2z"/>
	<path class="st1" d="M2520,8213.6c-3.9-1.4-12.2-7.3-18.6-12.7l-10.7-10.2l-9.8,10.7c-11.2,12.2-47.3,15.1-57.6,4.8
		c-9.8-9.8-6.9-35.1,5.4-46.3c16.1-15.1,49.8-30.7,65.8-30.7c16.6,0,55.6,23.9,67.2,41.5c10.2,15.7,3.4,34.6-15.7,41.5
		C2532.7,8217.5,2530.8,8217.5,2520,8213.6z"/>
	<path class="st1" d="M3460.3,8206.8c-13.1-7.3-10.7-30.2,4.3-45.8c17.6-17.1,46.3-31.7,63.4-31.7c16.6,0,62.4,25.8,69.8,38.6
		c7.8,15.1,5.9,33.6-4.3,39.5c-17.1,8.8-48.3,5.9-55.1-4.8c-3.4-5.4-8.3-9.8-11.2-9.8c-2.9,0-8.8,4.3-13.6,9.8
		C3504.1,8213.1,3474.8,8215.5,3460.3,8206.8z"/>
	<path class="st1" d="M3094.9,8121.4c-14.6-4.3-28.8-13.1-38.1-23.9c-14.1-16.6-15.1-20-15.1-56v-39h-26.9
		c-15.1,0-38.1,4.3-52.2,9.8c-33.6,12.7-58.1,12.7-69.8,0c-10.7-12.2-10.2-12.7,17.1-18.1l21.9-4.3l-21.9-7.3
		c-26.9-8.3-31.7-21.5-10.2-26.4c8.3-1.4,20-1.4,25.8,0l11.2,3.4l-10.7-10.2c-6.4-5.9-11.2-14.6-11.2-19.5c0-7.3,3.9-8.8,19-8.8
		c15.1,0,22.4,2.9,32.7,13.6c17.6,18.1,22.9,18.1,20.5-1c-2.4-15.1-1.9-15.1,14.6-12.2c19.5,2.9,35.1,15.1,35.1,28.3
		c0,7.8,4.3,8.8,33.1,8.8c44.8,0,46.9,2.4,42.9,38.1c-2.9,27.8-2.4,29.8,9.8,39.5c7.3,5.9,18.1,10.2,24.3,10.2
		c11.2,0,11.7,1.4,9.3,21c-6.9,50.7-7.8,52.7-20,57C3121.8,8130.2,3122.8,8130.2,3094.9,8121.4z"/>
	<path class="st1" d="M2736.6,7925.9c1.9-10.2,4.3-25.8,6.4-34.1l2.4-16.1h-21.9c-14.1,0-25.8-3.4-33.1-9.3
		c-10.2-8.3-10.7-10.2-5.4-28.8c7.8-25.3,18.1-34.1,30.7-26.4c14.6,9.3,46.9,7.3,58.1-3.9c20.5-20.5,4.8-53.6-24.8-53.6
		c-8.3,0-22.4,3.4-31.7,7.8c-21,9.8-29.3,6.9-33.6-12.7c-3.4-16.1,3.4-29.3,15.1-29.3c9.3,0,8.8-4.8-2.9-29.8
		c-12.2-26.9-12.2-41.9-0.5-61.5c8.8-14.1,8.8-15.7,1.4-18.6c-4.3-1.9-40.5-4.3-80-5.9l-71.2-2.9l-30.2,20.5
		c-16.6,10.7-32.2,20-35.1,20c-9.3,0-32.2-14.6-35.1-21.9c-3.9-11.2-3.9-12.2,3.9-12.2c6.9,0,41.9-18.6,41.9-22.4
		c0-1-5.9-0.5-13.1,1c-16.6,2.9-37.6-7.3-39.5-19.5c-1.4-5.9,0.5-8.3,4.3-6.9c3.9,1.4,9.8-0.5,13.1-4.3c3.4-3.4,12.2-6.4,19.5-6.9
		c12.2,0,11.7-0.5-3.9-5.9c-13.6-4.8-17.6-8.8-18.6-20c-1.4-12.7-1-13.6,5.9-8.3c6.4,5.4,8.3,5.4,10.7-1.4
		c4.3-11.7,26.4-9.8,46.9,4.3c9.8,6.9,19,12.2,20,12.2c4.8,0-0.5-21-6.4-24.3c-10.2-6.4,18.1-12.2,33.6-6.9
		c8.8,3.4,14.6,10.7,19.5,24.3l6.9,20l99.5,3.4c55.1,1.9,106.8,5.9,117,9.3c16.1,4.8,18.6,7.8,20,22.9l1.4,17.1h59.5
		c57,0,60.5,0.5,83.9,14.1c13.6,7.8,40,25.8,58.6,40c42.4,32.2,63.4,41,95.1,41c22.4,0,25.3-1.4,34.1-15.7
		c4.8-8.3,10.7-24.3,12.2-35.1c8.8-58.1,13.6-73.1,27.8-87.2l14.1-14.6l59.5,2.9c43.9,1.9,74.6,6.4,118,18.1
		c31.7,8.3,61.5,14.1,65.3,13.6c13.6-2.9-10.7-21.5-32.2-24.8c-24.8-3.9-38.1-18.1-33.6-35.6c2.9-11.7,3.9-12.2,12.2-4.8
		c10.2,9.3,35.1,11.2,25.8,1.9c-3.4-3.4-5.9-10.7-5.9-16.6c0-12.2,10.2-21.9,13.6-12.7c1,3.4,5.9,5.9,10.7,5.9s13.6,5.9,19,13.6
		l9.8,13.1l0.5-12.2c0-12.2,7.8-24.3,15.7-24.3c1.9,0,3.9,2.4,3.9,5.4c0,2.9,3.4,8.3,7.3,12.2c3.9,4.3,7.3,15.7,7.3,25.3
		c0,13.6,1.4,16.1,5.9,11.7c3.4-3.4,9.8-5.9,14.6-5.9s8.8-1.9,8.8-4.8c0-7.8,13.1-5.4,16.6,2.9c5.9,15.7,2.4,23.9-17.6,44.3
		c-11.7,11.7-26.4,32.7-33.1,46.9c-10.7,22.4-14.1,25.3-28.8,26.9c-9.3,1-34.1-3.9-56-10.7c-54.6-17.1-77.5-20-84.4-11.7
		c-3.4,3.4-7.3,18.1-9.3,32.2l-3.4,25.3h18.1c49.3,0,90.7,46.3,90.7,101c-0.5,67.8-56,108.7-138.9,102.4
		c-49.3-3.4-67.2-13.1-114.6-59c-22.9-22.4-49.3-44.8-58.6-49.8c-32.2-16.6-92.2-9.3-111.7,14.6c-4.8,5.9-4.3,9.8,1.9,19.5
		c18.6,27.8-2.9,62.9-44.8,73.6l-23.4,5.9l-1.4-26.9c-2.9-48.8,35.1-102.4,79.5-112.2c13.1-2.9,12.7-3.4-9.8-6.4
		c-13.1-1.9-37.1-3.9-52.2-3.9c-26.9-0.5-28.3,0-30.7,13.1c-11.7,56.5-35.6,108.2-61,129.2c-12.7,10.7-13.6,13.6-9.3,30.7
		c1.9,10.7,4.3,21.9,4.3,25.3c0,11.7-19,5.9-31.2-9.8c-11.2-14.6-12.2-15.1-15.1-6.4c-9.3,29.3-20.5,32.2-31.7,8.8l-7.3-16.1
		l-13.6,17.1C2743.9,7950.2,2732.7,7949.7,2736.6,7925.9z M3343.2,7818.6c18.1-11.2,27.3-38.6,21-61c-11.2-36.6-41.9-45.8-90.7-26.9
		c-10.7,4.3-32.7,7.8-49.3,8.3c-16.1,0-30.7,1-32.2,2.4c-4.3,4.3,67.8,75.6,84.4,82.9C3295.4,7832.7,3325.7,7830.3,3343.2,7818.6z"
		/>
	<path class="st1" d="M2562.9,7918.1c2.9-3.4,4.3-11.2,2.9-16.6c-2.9-10.2-2.9-10.2-14.1,2.4c-7.8,9.3-15.7,12.7-28.3,12.7
		c-9.8,0-19-1.4-21-3.4s3.4-12.2,12.2-22.9c16.1-20,15.1-24.8-1.4-12.2c-11.7,8.8-26.4,9.3-45.3,1.9c-13.6-5.4-13.6-5.4-2.9-10.7
		c6.4-2.4,12.2-8.8,13.6-13.1c1.4-4.3,11.7-12.2,23.4-17.1c19.5-8.8,20-9.3,7.3-10.7c-7.8-1.4-13.6-4.3-13.6-6.9
		c0-2.9-4.3-3.4-9.8-1.9c-12.7,3.9-12.7-2.4,0-16.1c8.3-8.8,15.7-10.7,38.6-10.7h28.3l21.9-27.8c12.2-15.7,30.2-43.9,40-63.4
		c18.1-36.6,43.9-69.8,53.6-69.8c3.4,0,4.8,6.9,3.9,19c-1.4,12.2,1.4,25.3,8.3,39l10.2,20l-22.9,27.8
		c-12.7,15.7-33.6,44.8-46.3,64.8l-23.9,36.6l3.4,35.6c3.4,41.5-1,49.8-25.8,49.8C2561.5,7924.4,2559.1,7923,2562.9,7918.1z"/>
	<path class="st1" d="M3119.9,7892.3l-15.1-13.1l-11.2,10.7c-13.1,12.2-42.4,13.6-53.6,2.4c-9.8-9.8-9.8-25.8,0-40
		c9.8-14.2,51.2-35.1,68.8-35.1c26.4,0,69.8,33.1,69.8,53.1c0,15.7-3.9,21.5-18.1,29.3C3144.7,7907.8,3136.9,7906.4,3119.9,7892.3z"
		/>
	<path class="st1" d="M2617.5,7848.4c0-6.4,52.2-61.9,63.9-67.8c22.4-11.7,61-14.6,75.1-5.4c13.1,8.8,14.1,11.7,7.3,22.4
		c-2.9,5.4-14.1,7.3-41.9,7.3c-33.6,0-38.1,1-45.3,11.7c-15.7,22.9-31.2,34.6-44.8,34.6C2623.9,7851.3,2617.5,7849.8,2617.5,7848.4z
		"/>
	<path class="st1" d="M2432.3,7752.2c-13.6-6.9-18.6-26.4-10.2-41.5c2.4-4.8,18.1-16.1,34.1-24.8c26.9-14.1,31.2-15.1,48.3-10.2
		c23.4,5.9,57.6,30.2,61.9,43.4c3.9,13.1-4.8,29.3-20,34.6c-18.6,7.3-24.3,5.9-41-8.3c-14.6-11.7-16.6-12.2-21.9-4.8
		c-4.8,6.9-26.9,18.1-35.6,18.1C2445.9,7758.6,2439.1,7755.7,2432.3,7752.2z"/>
	<path class="st1" d="M3457.7,7751.3c-7.8-5.4-11.2-12.7-11.2-24.3c0-20,18.6-37.1,53.1-48.8c23.4-7.8,23.9-7.8,51.2,5.4
		c59,27.8,63.9,70.2,8.3,70.2c-19,0-25.3-1.9-31.2-10.7l-7.3-11.2l-11.7,10.7C3492.9,7757.7,3471.5,7761,3457.7,7751.3z"/>
	<path class="st1" d="M3089.1,7664c-36-13.1-47.3-33.1-47.3-84.8v-33.6l-35.1,2.4c-19.5,1.4-44.8,6.4-56.5,11.2
		c-27.3,11.7-35.6,11.7-51.7-1c-14.6-11.7-16.6-20-3.9-18.6c4.3,0.5,13.6-1,20-3.9l12.2-4.8l-14.6-3.4c-7.8-1.9-17.1-5.9-20-8.8
		c-8.3-6.9-8.3-19,0-18.1c2.9,0.5,9.8-0.5,14.6-2.9c4.8-1.9,14.6-1.4,21.9,1.9l13.1,5.9l-14.1-11.2c-8.8-7.3-13.1-15.1-11.7-21
		c2.4-14.1,36-10.7,53.1,5.4c16.1,15.1,19,14.6,19-3.4c0-14.1,1-15.1,13.6-11.7c20.5,4.8,35.1,16.1,35.1,26.9
		c0,8.8,3.4,9.8,29.8,9.8c16.1,0,34.1,2.4,39.5,5.4c8.8,4.8,9.8,8.3,6.9,34.1c-2.9,24.3-1.9,29.8,6.9,38.6
		c5.4,5.4,13.6,9.8,18.6,9.8c17.6,0,20,5.9,15.7,41c-2.4,18.6-6.9,35.6-10.7,37.6C3134,7672.8,3110.6,7671.4,3089.1,7664z"/>
	<path class="st1" d="M2770.2,7452.4c3.9-37.6,1.9-40-33.1-40c-27.3,0-33.1-15.7-18.6-46.3c7.3-15.7,10.2-17.6,21-14.6
		c31.2,8.3,44.3,8.3,56,0.5c15.1-9.8,16.6-36,3.4-48.3c-10.7-9.8-41.5-10.7-49.3-1.4c-4.3,5.4-1.9,7.3,13.6,9.8
		c20.5,2.9,32.2,13.6,27.8,24.8c-1.9,5.4-10.7,7.3-37.1,7.3h-34.6l-23.4,24.3c-16.6,17.1-27.3,24.3-36.6,24.3
		c-6.9,0-12.7-1.4-12.7-3.4c0-2.4,13.6-18.6,30.7-36.6c21.4-23.4,35.1-34.1,46.3-36c15.7-3.4,15.7-3.4,4.8-8.8
		c-8.8-4.3-11.2-9.8-11.2-24.8c0-16.6,1.4-19.5,11.2-21c13.1-1.9,13.1-3.9,0.5-32.7c-11.2-25.8-10.2-51.2,2.9-65.8
		c9.8-11.2,7.3-12.7-33.6-20c-48.3-8.3-77-3.9-100.5,14.6c-22.4,18.1-46.3,20-62.4,5.4c-13.1-12.2-14.1-21.5-1.9-18.6
		c4.8,1.4,15.7-2.9,24.3-10.2l15.1-13.1l-16.1,1.9c-12.2,1.4-19.5-1-26.9-8.3c-13.1-13.1-13.1-21.4-0.5-17.6c5.4,1.4,9.8,1,9.8-1.9
		c0-2.4,5.9-5.4,13.6-6.4l13.1-1.4l-14.6-7.3c-15.1-7.8-24.8-31.7-10.7-26.4c3.9,1.4,8.8,0.5,10.7-2.4c5.4-9.3,28.8-5.9,47.8,6.9
		l18.1,12.7v-12.7c0-6.9-2.4-12.2-5.4-12.2c-2.4,0-3.4-1.9-1.9-4.8c1.4-2.4,9.3-4.8,17.1-4.8c15.1,0,29.3,14.6,29.3,30.2
		c0,13.6,15.7,17.1,94.6,20.5c84.8,3.4,97.5,7.8,99.5,32.7l1.4,17.6l27.8-4.3c31.7-5.4,64.8-1.4,86.3,9.3c7.8,4.3,33.6,22.9,57,41
		c44.3,35.6,68.3,48.3,90.2,48.3c30.7,0,41.9-19.5,47.8-85.3c3.9-43.4,9.8-61.9,23.4-74.6c25.8-23.9,81-16.1,163.9,23.4
		c27.8,13.6,52.7,24.3,55.1,24.3c11.2,0-8.8-21-27.8-29.3c-23.4-9.8-30.2-22.9-21.4-39.5c4.8-9.8,6.4-10.2,11.2-3.4
		c2.9,3.9,10.7,9.3,17.6,11.2c9.8,2.9,11.2,2.4,6.4-2.9c-7.3-7.3-7.8-18.6-2.4-27.8c5.9-8.8,31.7,5.4,35.6,19.5
		c2.9,11.2,2.9,11.2,8.3-1.9c2.9-7.8,8.8-13.6,12.7-13.6c8.3,0,19,24.3,16.6,39.5c-1.4,9.8,0.5,11.2,10.7,9.8
		c6.9-0.5,13.6-3.9,16.1-7.3c2.4-3.9,4.8-3.4,8.3,1.9c9.8,15.1,4.8,28.3-18.1,48.8c-13.1,10.7-29.3,30.2-36,42.9
		c-8.3,14.6-16.6,23.4-23.4,24.3c-5.9,1-32.2-8.3-58.1-20.5c-26.4-12.2-53.1-22.4-59-22.4c-10.7,0-11.2,1.4-8.3,18.6
		c1.4,9.8,2.9,23.9,2.9,30.7c0,10.7,3.4,13.6,20.5,18.6c45.8,14.1,74.1,45.3,80,90.2c4.3,29.3-14.1,68.3-40,85.8
		c-16.1,10.7-23.4,12.2-62.4,12.2c-54.1,0-64.3-4.3-121-53.1c-41.5-35.6-71.2-51.7-95.6-51.7c-20,0-47.8,8.8-60.5,19
		c-11.2,9.3-11.2,9.8-2.4,23.9c10.2,18.1,10.2,26.4,1,44.8c-7.3,14.6-26.9,27.3-52.7,34.6l-14.1,3.9l1.9-35.6
		c1.9-47.3,19.5-77,56.5-96l25.3-13.6l-21-2.4c-11.2-1.4-32.2-3.9-45.8-5.4l-25.8-2.9v16.1c0,36.6-47.8,140.5-63.9,140.5
		c-4.8,0-3.9,8.3,3.9,42.9c3.9,15.7-9.8,13.6-24.3-3.9c-6.9-7.8-13.6-14.6-14.6-14.6c-1.4,0-3.4,6.9-4.8,14.6
		c-4.3,20.5-20,20-27.8-1l-5.4-16.1l-7.3,13.1c-3.9,7.3-11.7,16.1-17.6,19C2767.3,7486.5,2767.3,7486.5,2770.2,7452.4z
		 M3314.9,7356.3c7.8-4.3,18.1-14.1,21.9-22.4c10.2-19,2.9-42.9-17.6-60.5c-22.4-18.6-36-20-59.5-7.3c-13.6,7.8-30.7,12.2-55.6,13.6
		c-34.1,1.9-35.6,2.4-24.8,9.8c6.4,3.9,24.3,19,40.5,32.7C3268.1,7363.6,3287.1,7370.5,3314.9,7356.3z"/>
	<path class="st1" d="M2596.6,7441.1l2.9-19.5l-15.1,14.6c-16.1,16.6-28.3,19-42.9,8.3c-8.8-6.9-8.8-7.3-0.5-10.2
		c4.3-1.9,8.3-5.9,8.3-8.8c0-2.9,3.9-9.8,8.3-15.1c4.8-5.9,5.4-7.3,1.4-3.9c-7.8,6.9-38.1,7.8-48.8,1c-5.9-3.9-5.4-5.9,3.9-14.6
		c5.9-5.4,10.7-12.2,10.7-14.6c0-1.9,6.9-5.4,14.6-7.3c8.3-1.9,14.6-4.8,14.6-6.4c0-1.9-6.4-6.4-14.6-9.8
		c-17.6-7.8-18.1-12.2-4.3-25.8c8.8-8.8,14.1-10.2,33.6-7.8c23.4,2.9,23.9,2.4,41.5-19c9.8-11.7,27.8-39.5,40-61.9
		c22.9-41.5,36.6-59.5,52.2-67.8c8.3-4.3,8.8-3.4,5.9,14.1c-1.9,11.2-0.5,27.8,3.9,42.4l7.3,23.9l-21,24.8
		c-11.7,13.6-32.7,42.4-46.9,63.9c-24.8,38.6-25.3,39.5-21.9,67.2c3.4,33.6-4.8,52.2-23.9,52.2
		C2595.1,7461.1,2594.1,7459.7,2596.6,7441.1z"/>
	<path class="st1" d="M3040.3,7432.9c-19.5-21.5-1.4-50.7,43.9-71.2c20.5-8.8,20.5-8.8,47.8,2.4c32.2,13.1,46.3,28.8,46.3,50.7
		c0,27.3-38.1,36.6-61.5,14.6l-13.1-12.2l-11.2,12.2C3078.9,7444.6,3052,7446.1,3040.3,7432.9z"/>
	<path class="st1" d="M2462.5,7277.8c-23.9-16.6-7.8-46.9,36-67.2c27.8-13.1,28.3-13.1,49.8-4.8c30.2,11.2,54.6,33.6,54.6,50.2
		c0,29.3-39,40.5-60.5,17.6l-11.7-12.7l-14.6,12.7C2499.5,7287.6,2478.6,7289,2462.5,7277.8z"/>
	<path class="st1" d="M3428.6,7278.3c-7.3-4.8-11.2-13.1-11.2-21.5c0-16.6,13.6-29.8,47.8-46.9l25.8-13.1l25.8,10.7
		c31.2,12.7,53.1,33.6,53.1,51.2c0,17.1-6.4,22.4-29.3,25.3c-15.7,1.9-21.9,0-34.1-10.2l-15.7-13.1l-6.9,10.7
		C3474.4,7285.1,3443.2,7289,3428.6,7278.3z"/>
	<path class="st1" d="M3090.6,7207.1c-21-8.3-43.4-34.1-51.7-59c-7.3-22.9-7.3-47.3,0.5-77.5c2.9-11.7,1.9-13.1-15.7-16.6
		c-10.2-1.9-35.1-3.4-55.6-2.9c-40,1-54.1-5.4-60.5-27.3c-2.9-11.2,3.9-15.6,9.8-6.4c1.4,2.9,10.2,4.8,18.6,4.8h15.7l-15.7-10.2
		c-21.4-13.6-21.4-28.8-0.5-28.8c8.3,0,19.5,3.9,24.8,8.8c9.8,8.3,9.8,8.3,1.4-4.8c-4.8-7.3-7.8-18.1-6.9-23.9
		c1.4-12.7,13.6-19,13.6-7.3c0,4.8,4.3,7.8,11.7,7.8c8.3,0,14.6,5.4,22.4,18.1c8.3,14.1,11.2,16.6,15.1,10.7
		c2.4-3.9,4.3-10.7,4.3-15.7c0-6.9,2.4-8.3,11.2-5.4c18.6,5.4,23.9,12.7,21.9,29.3c-1.9,15.1-1,15.7,23.4,21
		c35.6,8.3,38.6,12.7,30.7,52.2c-7.3,37.1-4.3,45.8,19.5,53.1l16.1,4.8l-1.9,32.7c-1,18.1-3.9,35.1-6.9,38.1
		C3129.1,7210,3103.7,7212.9,3090.6,7207.1z"/>
	<path class="st1" d="M4680.8,8132.2c-13.1-21.5-18.1-55.6-10.2-78.1c16.6-50.7,82.4-83.9,130.2-65.8c19,6.9,47.8,36,57.6,58.6
		c7.3,16.1,7.8,20,1.9,26.9c-10.2,12.2-141,75.1-156.5,75.1C4694.5,8148.8,4688.1,8144.3,4680.8,8132.2z"/>
	<path class="st1" d="M1378,7929.8c-65.3-26.4-103.9-95.1-79.5-141.9c31.2-60.5,127.3-44.3,173.6,28.8
		c10.7,16.6,14.1,27.8,14.1,45.8C1486.2,7920.6,1434.6,7952.7,1378,7929.8z"/>
	<path class="st1" d="M4547.2,7783c-9.8-13.1-18.1-26.4-18.1-28.8c0-5.9,75.1-31.2,85.3-28.8c6.4,1,2.9,9.8-15.7,40
		c-12.7,21.5-25.8,39.5-28.3,40.5C4567.6,7806.9,4557.4,7796.7,4547.2,7783z"/>
	<path class="st1" d="M4118.5,7353.4c-13.1-8.3-23.4-18.1-23.4-21.9c0-7.8,57-75.1,63.9-75.1c9.3,0,9.3,13.1-0.5,60.5
		c-5.4,26.4-9.8,48.8-9.8,49.8C4148.8,7371.5,4140,7367.5,4118.5,7353.4z"/>
	<path class="st1" d="M2089.5,6665.4c-4.8-57.6-3.9-121,1-121c5.4,0,100,110.2,101.9,118.5c0.5,3.4-17.6,13.1-46.9,24.3
		c-25.8,9.8-48.8,18.1-50.2,18.1C2093.8,6705.3,2090.9,6687.3,2089.5,6665.4z"/>
</g>
</svg>
