<?xml version="1.0" encoding="utf-8"?>
<!-- Generator: Adobe Illustrator 25.1.0, SVG Export Plug-In . SVG Version: 6.00 Build 0)  -->
<svg version="1.1" id="master_logo" xmlns="http://www.w3.org/2000/svg" xmlns:xlink="http://www.w3.org/1999/xlink" x="0px"
	 y="0px" viewBox="0 0 600 600" style="enable-background:new 0 0 600 600;" xml:space="preserve">
<style type="text/css">
	.st0{fill:#FFFFFF;}
	.st1{fill:#FFD040;}
	.st2{fill:#C10230;}
</style>
<g>
	<g>
		<path class="st0" d="M299.2,600l-6.2-2.7c-69-31.8-124.2-78-160.7-133.1C45.4,331.7,42.6,194.4,39.2,48.9c0-11-0.7-22.1-0.7-33.1
			V0.6h521.4l-0.7,15.2c0,11-0.7,22.1-0.7,33.1c-2.7,144.9-6.2,282.1-93.1,415.3c-35.9,55.1-91.7,101.4-160,133.1L299.2,600z"/>
	</g>
	<path class="st1" d="M297.8,180l-204.2,160C60.6,238.6,61.9,133.1,59.2,25.4h476.6c-2.7,108.3-1.4,213.2-34.5,314.5L297.8,180z"/>
	<path class="st1" d="M463.3,426.2c-4.8,8.9-10.3,17.9-15.9,26.9c-36.5,55.1-90.4,96.6-149.7,124.2C238.5,549.6,184,509,148.1,453.1
		c-5.5-8.3-15.9-26.2-15.9-26.2l166.2-131.7L463.3,426.2z"/>
	<path class="st2" d="M158.5,106.1c-24.1-4.8-45.6-22.7-40.7-45.6c0,0-0.7-5.5-2.7-6.9l-0.7-0.7c-0.7,0-1.4-0.7-2.7-1.4l-1.4-0.7
		c-0.7,0.7,0,2.1-0.7,2.7l-0.7,0.7c-0.7,0-0.7,0.7-0.7,0.7c-2.1,2.1-0.7,4.8-0.7,6.9c0,0.7,0,1.4,0,1.4c-0.7,0,0,0-1.4-0.7l-0.7-0.7
		c-0.7,0-2.1-0.7-2.1-0.7c0-0.7,0-0.7-0.7-0.7c-0.9-0.8-0.9-2.1-1.6-3.5c0,0-0.7-1.4-0.7-2.1c0-1.4-4.1-4.1-2.1-2.7
		c0.7,0.7,0-0.7-2.1-1.4c-1.4,0-2.7,0-4.1,0c0,0-0.7,0-0.7,0.7c-1.4,1.4-2.7,2.7-4.8,2.7c0,0,0.7,0,0.7,0.7c0.7,1.4,0,2.7,0.7,4.1
		s1.4,2.1,2.7,3.5c1.4,0.7,2.7,0,4.1,1.4c0,0,2.1,0.7,0,2.1c-3.5,3.5-6.9,0.7-9.7,6.9c4.1-2.1,4.8,4.1,6.2,4.8
		c7.6,1.4,13.8,2.7,17.9,10.3c2.7,4.8-4.8,4.8,2.1,6.2c3.5,0.7,5.5,2.1,7.6,4.8c2.1,2.7,2.1,5.5,4.1,8.3c1.4,1.4,2.1,2.1,3.5,3.5
		c0.7,0.7,3.5,1.4,4.1,1.4s1.4,0.7,2.1,0.7s2.1,0.7,2.7,1.4c0.7,0.7,2.1,1.4,2.7,2.1c0.7,1.4,0,2.7,0.7,4.1c0,0.7,1.4,0,1.4,0
		c0.7,0,1.4,0,1.4,0c1.4-0.7,2.1-0.7,3.5-0.7c2.1,0,1.4,0.7,4.1,0c0.7,0,0.7,0.7,1.4,0.7s1.4,0.7,1.4,0c0.7-2.1,2.1-4.1,3.5-6.2
		c1.4-2.1,1.4-2.1,2.7-4.8C155.7,108.2,158.5,106.1,158.5,106.1"/>
	<path class="st2" d="M97.8,108.9c6.9,3.5,6.2,13.1,12.4,15.9c11,5.5,24.8,8.9,37.2,3.5c-2.7,8.3,0,15.2-0.7,16.5
		c-3.5,2.7-15.2-0.7-22.7-3.5c-4.8-2.1-8.9,5.5-14.5,4.8c0-0.7,0.7-2.7,0.7-3.5c-1.4-3.5-2.1-4.1-6.9-3.5c-2.7,0-1.4,2.7-6.2,4.8
		c-2.1-0.7-5.5-2.1-6.2,1.4c0,1.4-3.5-5.5-2.7-6.2c2.7-4.8,3.5-6.2,3.5-7.6s-6.9-4.1-7.6-2.7c-1.4,3.5-6.9-11,9.7-10.3
		c-4.8-2.7-4.1-3.5-2.7-6.9c0-0.7-1.4-2.1-2.7-0.7c-0.7-1.4,0.7-2.7,1.4-2.7C92.2,107.5,95.1,107.5,97.8,108.9"/>
	<path class="st2" d="M131.6,74.4c10.3,2.1,25.6-11,34.5,4.8C159.2,77.2,139.9,87.5,131.6,74.4"/>
	<path class="st2" d="M217.1,97.2c0,13.1-13.8,27.6-2.7,40c-4.8,0-9.7-1.4-13.1-4.1c-2.1-1.4-1.4,6.2-1.4,7.6
		c0,1.4-8.3-8.3-11.7-5.5c-8.9,6.9-13.1,9.7-26.9,9.7c-4.1,0-5.5,3.5-6.9,6.2c-3.5-6.2-0.7-20.7,0.7-26.9
		c4.8-17.3,22.7-22.7,36.5-31c10.3-6.2,14.5-17.9,13.8-28.9C213,73,217.1,86.1,217.1,97.2"/>
	<path class="st2" d="M152.3,246.2c2.1,0.7,0.7,2.1,0,2.1c-1.4,0.7-2.1,2.1-3.5,3.5c-0.7,1.4-1.4,2.1-0.7,3.5c0,0.7,0.7,2.1,0.7,2.7
		c0,0.7,0.7,0.7,1.4,1.4l0.7,0.7c-0.7-1.4,1.4-2.7,2.1-2.7c8.9,4.8,8.9-5.5,14.5-8.9c2.1-1.4,7.6,0,6.2,4.8c5.5-2.7,6.9-9.7,11-14.5
		c8.9-9.7,21.4-16.5,33.8-21.4c-4.1-4.8-11-8.3-13.8-13.8c-1.4-2.7-3.5-7.6,0-6.9c14.5,4.1,22.7-4.8,24.8-16.5
		c22.1,2.7,27.6-17.9,30.3-33.1c1.4-7.6,5.5-8.3,1.4-21.4c-2.1-5.5,9.7-6.9,7.6-16.5c-0.7-2.7-3.5-4.8-5.5-5.5
		c2.1,4.8-6.9,6.2-7.6,8.3c-1.4,3.5-3.5,5.5-3.5,8.9c-6.9-9.7-1.4-21.4,5.5-31c9.7-13.1,30.3-6.2,38.6,2.1c0-4.1-3.5-9.7-6.2-12.4
		c8.3-0.7,16.5,4.1,27.6-2.1c6.2-3.5,12.4-6.2,15.9-13.8c-13.1,2.1-31.8-8.3-43.5-10.3c-22.7-4.1-37.2,11-45.6,29.7
		c-8.3,17.9-2.7,31.8,5.5,45.6c2.1,3.5-7.6,1.4-11.7,3.5s-5.5,6.9-4.8,11c4.8-4.8,17.3-2.1,18.6,6.9c1.4,11.7-10.3,28.9-22.1,24.1
		c-12.4-5.5-19.4-18.6-23.5-33.1c-10.3,8.9-30.3,1.4-39.3,10.3c-8.9,8.3,13.8,13.8,22.1,17.9c3.5,1.4,6.2,4.8,5.5,8.9
		c-13.8-7.6-29.7,1.4-28.9,15.2c0.7,11,13.8,17.3,24.8,17.9c4.8,0.7,7.6,5.5,2.1,8.9c-9.7,6.2-20.7,13.1-31,2.1
		c-2.1-2.1-8.3-0.7-8.9,2.7c-0.7,1.4-0.7,4.1-0.7,5.5c0.7-0.7,1.4-2.1,2.1-2.1c0.7,0,2.1,1.4,2.1,2.1c-0.7,5.5-8.3,2.1-10.3,6.2l0,0
		c0,0,0,0.7-0.7,0.7c-1.4,2.7-3.5,4.8,0,6.9c0-0.7,2.1,2.1,1.4,2.7c0-2.7,2.7-2.7,2.7-2.7h1.4L152.3,246.2z"/>
	<path class="st2" d="M106,195.8c-1.4-0.7-2.7,0-4.1,0.7c-0.7,0.7-2.1,0-2.7,0.7c0,0.7-0.7,1.4,0,2.1c0,0,0,0.7,0.7,1.4
		c-2.1,0-3.5-1.4-4.8-2.7c-0.7-0.7-0.7-0.7-1.4-1.4c0,0,0-0.7-0.7-1.4c0-0.7,0-0.7,0-1.4c0-1.4,0-2.7,0.7-3.5c0-0.7,0.7-1.4,0.7-1.4
		c0-0.7,0.7-0.7,0.7-0.7c0.7-0.7,2.1-1.4,3.5-2.1c2.1-0.7,4.1-0.7,5.5,0.7c1.4,0.7,2.7,0.7,4.8,0.7c0.7,0,2.1-2.1,1.4-2.1
		c-4.8-1.4-4.8-2.1-6.2-6.9c-0.7-0.7-2.1,0-2.1,0.7c0-8.9,10.3-9.7,15.2-6.2c6.2,5.5,1.4,15.2,9.7,18.6c4.1,1.4,8.3,2.7,13.1,0.7
		c7.6-3.5,0-11,2.7-17.9c4.8-13.1,16.5-13.8,29.7-1.4c-11.7,4.1-17.3,20-11,30.3c-10.3-4.1-24.1,2.7-31,7.6c6.9-6.9-2.7-12.4-5.5-11
		l-2.7,2.1c-1.4,2.1-1.4,3.5-3.5,5.5c-0.7,0.7-1.4,1.4-2.7,1.4c-2.1,0.7-2.7,0-4.1-0.7c0,0-1.4,0-1.4,0.7c-0.7,1.4,0,1.4,0,2.1
		c0,0-1.4-0.7-1.4-1.4c-0.7-0.7-2.1-1.4-2.7-2.1c-0.7-0.7-1.4-3.5,0-4.8c0.7-1.4,2.1-2.1,2.7-2.7C108.1,197.1,107.5,195.8,106,195.8
		"/>
	<path class="st2" d="M363.4,78.6c0.7,0.7,0,2.1-1.4,2.7c-1.4,0.7-2.7,0-4.1,0c-4.8,2.1-4.8,14.5-4.1,12.4c0.7-1.4,4.1-0.7,6.9,0
		c4.1,0.7,6.9-6.9,9.7-6.9c6.2,0.7,11.7,8.3,13.8,13.1c0.7,0.7-2.7,0.7-2.7,4.1c8.3-0.7,15.2,4.8,21.4,9.7c2.7-4.8,5.5-8.3,8.9-11.7
		c-12.4-11.7-37.2-15.9-33.1-37.2c0.7-2.7-2.7-5.5-4.1-6.9c-2.1-1.4-5.5-1.4-7.6-2.1c2.1,4.8-2.1,5.5-1.4,13.1h-0.7
		c-1.4-0.7-2.7-1.4-4.1-2.7c-1.4-0.7-2.7-0.7-4.1-0.7c-0.7,0-1.4,0.7-2.1,0.7c-1.4,0.7-2.1,2.1-2.7,2.7c0,0,0,0.7-0.7,0.7l-0.7,1.4
		c0.7,0,2.7,0,2.7,0.7c0.7,0.7,0.7,2.1,1.4,2.7c0.7,1.4,1.4,1.4,2.7,1.4C359.2,78.6,360.6,78.6,363.4,78.6"/>
	<path class="st2" d="M395,70.3c7.6-0.7,15.2-6.2,24.1,3.5c-1.4-0.7-3.5-0.7-4.1,0c-9.7,7.6-20.7,4.8-26.9-4.1
		C390.2,68.1,393,70.3,395,70.3"/>
	<path class="st2" d="M428.9,97.8c12.4-6.2,25.6-11.7,31-26.9c0.7-2.7,3.5,4.8,3.5,4.8c6.9,19.4-6.9,38-4.1,58
		c-4.1-2.7-9.7-4.8-14.5-4.8c-17.3-0.7-21.4,10.3-22.7,8.9c-4.8-4.8-18.6-8.9-17.3-8.3C396.4,122,419.9,102.7,428.9,97.8"/>
	<path class="st2" d="M393.7,225.4c2.1,2.7-0.7-1.4,1.4,2.7c8.9-4.1,18.6-8.3,28.9-4.1c-4.8-20.7,10.3-25.6,11.7-28.9
		c2.1-4.8-8.3-14.5-15.9-11.7c-9.7,3.5-5.5,15.9-7.6,24.1c-0.7,4.8-6.9,8.3-11.7,6.2c-8.3-2.7-11-10.3-13.1-18.6
		c-1.4-5.5-12.4-6.2-14.5-1.4c-6.9,13.1,4.1-1.4,3.5,8.3c0,1.4-7.6,0.7-9.7,6.2c-1.4,4.1,2.7,6.9,7.6,8.3c0.7,0-0.7-2.1,0-2.7
		c0.7,0,4.1,1.4,4.1,2.1c-4.8,2.7-5.5,8.9,2.7,11.7c0,0-0.7-2.1,0-2.7C387.5,220.6,394.4,225.4,393.7,225.4"/>
	<path class="st2" d="M255.7,355.2c7.6,3.5,10.3,0,20-2.1c1.4,0,6.9,3.5,8.9,5.5C274.4,360.6,261.9,369,255.7,355.2"/>
	<path class="st2" d="M251.6,363.4c-0.7-0.7-1.4-0.7-2.1-0.7c-0.7,0-1.4-0.7-2.1-0.7c0,0-1.4,0-1.4-0.7c0,0.7,0.7,1.4,0,2.1
		c-0.7,0.7-1.4,0.7-2.1,1.4c0,0.7-0.7,0.7-0.7,1.4c0,0.7-0.7,2.1-0.7,2.7s0,1.4,0,2.1l0.7,1.4l1.4,1.4c1.4,1.4,0,0.7,2.1,2.1
		c0.7,0.7-0.7,2.1-1.4,2.1c-6.2-1.4-6.9-8.3-12.4-10.3c-4.1-1.4-9.7,1.4-10.3,7.6c1.4-0.7,2.7,0,2.7,1.4c1.4,6.2,10.3,2.7,10.3,6.9
		c0,2.7-6.9-0.7-8.9,1.4c-3.5,2.1-4.1,8.9-0.7,13.1c3.5-2.7,6.9,1.4,10.3-0.7c2.1-1.4,2.7-3.5,5.5-4.8c6.9-2.7,8.9,3.5,7.6,9.7
		c3.5-1.4,12.4-3.5,14.5-4.1c3.5-0.7,3.5-8.9,8.3-12.4c-6.2,0-13.8-2.7-15.9-8.9c0-0.7,0-1.4,0-2.1c0-2.1,0-4.8-0.7-6.9
		c0,0,0-0.7-0.7-0.7l-0.7-0.7c-0.7-0.7-1.4-1.4-2.1-2.1C252.3,364.1,251.6,363.4,251.6,363.4"/>
	<path class="st2" d="M206.1,406.2c2.7,5.5-10.3-3.5-15.9,4.8c-1.4,2.7-0.7,8.3-0.7,11c2.7-2.7,6.2,2.7,11.7-2.7
		c0.7,0.7,1.4,0.7,0.7,2.1c-2.1,2.1-3.5,4.8-2.1,7.6c0.7,1.4,5.5,4.8,5.5,4.8c0.7-3.5,6.2,0,7.6-6.9c0.7-2.7,1.4-7.6,5.5-5.5
		c3.5,1.4,4.1,5.5,3.5,9.7c6.2-2.1,15.9-7.6,22.1-3.5c8.3,6.2,22.1,8.3,31.8,11.7c-6.2-4.1-8.3-15.9-7.6-23.5
		c-15.2,2.7-31,2.7-45.6-4.1c-4.1-2.1-3.5-6.2-4.8-9.7c-1.4-4.1-6.2-7.6-11-7.6c-2.7,0-8.9,5.5-7.6,5.5c-0.7,0-0.7,0.7-0.7,1.4
		c1.4-0.7,2.7,0,3.5,1.4c0.7,0.7,0.7,2.1,1.4,2.7C204,404.8,205.4,404.8,206.1,406.2"/>
	<path class="st2" d="M242.7,489c2.7-3.5,5.5-1.4,6.9-1.4c2.7,0,2.7,4.1,2.7,6.9c12.4-5.5,23.5-14.5,38-11
		c-8.3-8.9-5.5-26.9,6.2-29.7c0,0-7.6-1.4-8.3-2.1c-10.3-6.2-22.7-12.4-29.7,0.7c-3.5,6.9,2.7,12.4,7.6,17.9
		c0.7,0.7-0.7,1.4-1.4,2.1c-11,2.7-31.8,4.8-32.4-12.4c0-1.4-4.1-2.7-6.9-2.7c-8.3,0-8.3,11-6.9,9.7c2.1-1.4,7.6-0.7,6.9,3.5
		c-0.7,4.1-8.3-2.1-11,2.1c-2.7,3.5-2.7,8.9-0.7,12.4c-0.7-1.4,1.4-2.1,2.1-2.7c8.3-1.4,8.9,1.4,6.2,9.7c0,0.7,2.7,5.5,4.1,6.2v-1.4
		c0-0.7,0.7-0.7,1.4-0.7c0.7,0,2.1,0,2.7-0.7c0.7,0,0.7-0.7,1.4-0.7c0.7-0.7,1.4-0.7,1.4-1.4c2.1-2.7,3.5-5.5,6.9-6.2
		C240.6,486.9,241.2,487.5,242.7,489"/>
	<path class="st2" d="M331,527.6c7.6-7.6,13.8-17.9,22.1-25.6c-8.9-5.5-20.7-11-21.4-22.7c0-0.7,1.4-1.4,1.4-1.4
		c12.4,6.9,29.7,7.6,39.3-5.5c7.6-10.3,10.3-27.6,24.8-28.3c-4.8-8.9,0.7-20,8.3-24.8c-2.7-0.7-6.2-3.5-8.9-2.7
		c-3.5,0.7-5.5,5.5-9.7,6.2c6.2-22.1-6.2-52.4-30.3-52.4c-4.8,0-10.3,3.5-11.7,8.9c-1.4,4.8-2.1,10.3,1.4,14.5
		c8.3,9.7,13.8,20,11,32.4c5.5-4.8,11-11.7,11-20c0-2.1,3.5-0.7,4.1-1.4c6.9-9.7-4.1-15.9-9.7-22.1c-1.4-1.4,2.7-4.1,2.7-4.1
		c20.7,6.2,22.7,31.8,13.8,48.3c-2.1-2.7-11-2.1-14.5-2.7c9.7,4.8,6.9,5.5,6.9,6.9c-0.7,2.7-9.7,1.4-11,3.5
		c-2.7,3.5-4.8,5.5-5.5,17.9c4.1-4.1,9.7-11,15.2-8.3c12.4,6.2-0.7,27.6-12.4,31c-9.7,2.7-19.4,0-24.8-8.9
		c-8.9-12.4-2.7-27.6-8.9-40c-5.5,1.4-4.1,8.3-6.9,6.9c-9.7-4.1-15.2-14.5-22.1-23.5c-2.7,0.7-4.1,3.5-6.9,3.5
		c-4.1,0-11.7-1.4-13.8,0.7c-2.1,2.1-3.5,20,13.8,26.2c11.7,4.1,20.7,8.3,28.3,17.3c-4.8,0.7-6.9-2.1-10.3-2.1
		c-4.1,0-6.2,1.4-9.7,2.7c-2.7,1.4-6.2,6.9-5.5,11.7c2.7,21.4,27.6,21.4,39.3,34.5c2.1,2.1-2.7,11.7-7.6,15.2
		c-4.1,3.5-13.8-4.8-11.7-11.7c1.4-5.5-11.7-8.9-16.5-2.7c2.1,0,2.1,0.7,2.1,2.1c-0.7,4.8,5.5,5.5,5.5,7.6c0,3.5-3.5-1.4-5.5-2.1
		c-5.5-1.4-10.3,0.7-13.8,4.8c-0.7,1.4-2.7,3.5-2.1,5.5c4.1-2.1,6.2,4.1,9.7,2.1c2.1-1.4,4.1-3.5,6.9-2.7c1.4,0,2.1,2.1,1.4,2.1
		c-7.6,4.8-13.1,11-7.6,18.6c0-2.1,1.4-2.7,2.7-3.5c2.1-0.7,4.8,0.7,6.9,0c3.5-1.4,1.4-4.8,2.7-6.9c2.1-4.1,8.9-10.3,13.1-5.5
		c0.7,0.7,0,4.1-2.1,4.1c2.1,0,4.1,2.1,6.2,1.4c0.7,0,1.4,0,1.4,0c0.7,0,0.7,0,1.4-0.7c0.7-0.7,2.1-2.1,2.1-3.5c1.4,0,3.5,0,4.8-1.4
		C329.6,529,331,527.6,331,527.6"/>
	<path class="st2" d="M295.7,374.4c13.8-4.1,28.9-11,32.4-26.2c4.1,2.7,5.5,8.3,5.5,11.7c0,18.6-8.3,35.1-4.1,55.1
		c0.7,2.1,4.8,8.9,2.7,8.3c-2.1-0.7-6.9-5.5-9.7-3.5c-3.5,2.7-2.7,6.9-4.8,5.5c-6.2-3.5-12.4-8.9-15.2-15.9
		c-1.4-2.7-0.7-8.3-1.4-7.6c-4.8,4.8-13.8,6.2-20.7,6.9c1.4-1.4,2.7-6.9,2.7-8.3c-5.5-2.7-13.1,6.2-13.1,5.5c0-2.7,0.7-4.1,0.7-4.8
		C274.4,390.3,281.9,378.6,295.7,374.4"/>
	<path class="st2" d="M194.4,52.4c3.5,0,6.2-2.1,8.3-4.8c0,2.1,2.7,4.8,1.4,6.9c-1.4,2.7-4.8,4.1-5.5,6.9c-1.4,4.8,2.7,9.7,0,15.2
		c-8.9,14.5-27.6,9.7-40.7,13.1c0.7-1.4,0-4.1-1.4-4.8c5.5,0.7,13.8-0.7,15.2-4.8c2.1-5.5,2.7-9.7,0-13.8
		c-4.1-7.6-13.1-4.1-19.4-1.4c-0.7-4.8,3.5-7.6,5.5-7.6c6.9-2.1,13.1-4.8,20-6.9C183.3,48.2,188.2,53,194.4,52.4 M184.7,59.9
		c0.7,0,0.7-0.7,0.7-0.7c-4.8-6.9-11-6.2-13.1,0C170.2,63.4,179.9,61.9,184.7,59.9"/>
	<path class="st2" d="M446.8,80.6c-2.1,1.4-4.8,1.4-6.9,2.7c-1.4,0.7-2.7,2.1-4.1,2.7c-0.7,0.7-2.7,1.4-3.5,1.4
		c-2.1,0.7-1.4,0-3.5,0.7c-1.4,0-1.4,0-2.7,0c-1.4,0-4.1,0-5.5,0c-2.7,0-2.7,0-5.5,0c-1.4,0-2.7-0.7-4.1-1.4c-0.7,0-2.1-0.7-2.7-0.7
		c0-0.7,0-2.1,0.7-2.7c0.7-0.7,1.4,0,2.7,0h2.1c0.7,0,0.7,0,1.4,0c0.7,0,1.4,0,2.1-0.7c0.7-0.7,1.4-0.7,2.1-1.4l0.7-0.7
		c0.7-0.7,1.4-0.7,1.4-1.4c1.4-1.4,2.7-3.5,2.7-5.5c0-1.4,0-3.5,0-4.8v-0.7c0-1.4-0.7-2.7-1.4-3.5c-4.1-6.9-13.1,0-19.4-0.7
		c0-1.4,0-4.1,0.7-4.8c4.1-5.5,11-2.7,15.2-5.5c11.7-8.9,15.2-2.7,27.6,0.7c3.5,1.4,8.9-1.4,12.4-2.7c0.7-0.7,0.7,5.5,0.7,6.2
		c-1.4,4.1-5.5,3.5-6.9,7.6c-2.1,5.5-2.7,12.4-8.3,15.2 M437.9,57.2C438.5,57.2,437.9,57.8,437.9,57.2c-5.5-2.7-12.4-6.2-15.2,0.7
		C421.3,63.4,433,59.9,437.9,57.2"/>
	<path class="st2" d="M313,335.8c5.5,1.4,11.7,1.4,15.2-3.5c2.1,7.6-4.8,8.3-6.2,12.4c-2.1,5.5-2.1,11-6.9,13.8
		c-11,5.5-24.1,12.4-36.5,13.8c0-1.4-0.7-4.1,1.4-4.1c4.1,0,7.6-3.5,8.9-6.2c1.4-3.5,0-12.4-3.5-13.8c-3.5-2.1-6.9,1.4-10.3,2.7
		c-1.4-3.5,4.1-10.3,13.8-9.7c0,0,4.8-5.5,4.1-4.8C297.8,332.3,304.8,334.4,313,335.8 M296.5,345.5c2.1,0.7,8.3-2.7,11-4.1
		c0.7,0,0.7-0.7,1.4-1.4l0,0c-2.1-0.7-3.5-0.7-5.5-0.7c-1.4,0-2.1-1.4-3.5-1.4c-0.7,0-0.7,0-1.4,0c-0.7,0-0.7,0.7-1.4,0.7
		c-0.7,0-1.4,0-2.1,0.7s-1.4,1.4-1.4,2.1s0,2.1,0.7,2.7C295.1,345.5,295.7,345.5,296.5,345.5"/>
	<path class="st2" d="M481.3,284c0-2.1,4.1-6.9,4.8-11c0.7-13.8,8.3-20,8.9-34.5c0-3.5-15.9-7.6-16.5-15.2c0-4.1-1.4-9.7,2.1-9.7
		c5.5,0,10.3-0.7,13.8-4.1c16.5-14.5,2.7-33.8,0.7-51c-0.7-4.1,6.9-11.7,6.2-14.5c-1.4-14.5-4.1-28.3,1.4-42.7
		c-4.1,3.5-5.5,9.7-8.9,13.1c-1.4,1.4-2.7-2.1-2.1-2.1c2.1-12.4,6.9-24.1,13.1-35.9c6.9-14.5,3.5-26.2-9.7-30.3
		c-11.7-4.1-23.5,6.9-24.8,18.6c-1.4,10.3,2.1,22.7,4.8,31c0.7,2.7,0,5.5,0.7,7.6c2.1-8.3,2.1-17.3,2.1-26.9c0-2.1,2.1-5.5,4.1-5.5
		c7.6-2.1,11.7,3.5,11,7.6c-1.4,13.8-4.1,24.1-7.6,37.2c-3.5,15.2,2.1,30.3,3.5,45.6c-6.2-3.5-12.4-3.5-14.5,5.5
		c-1.4,4.8,3.5,10.3,4.8,14.5c0-6.2,5.5-13.8,11-10.3c6.9,4.1,6.9,25.6,5.5,28.3c-3.5,6.2-8.3,10.3-15.9,8.3
		c-4.1-1.4-2.7-7.6-4.8-9.7c-13.1-13.8-19.4-29.7-20.7-48.9c0-2.7,1.4-9.7,0.7-10.3c-17.3-6.9-25.6,0-32.4,10.3
		c-1.4-2.7-7.6-7.6-8.3-6.2c-3.5,6.2-2.1,17.3,2.7,21.4c13.1,11.7,26.9,19.4,33.8,35.9c-8.3,0.7-15.9,3.5-18.6,11.7
		c-3.5,8.9-2.1,20.7,6.9,24.1c7.6,2.7,20.7,0,23.5,0c8.3,1.4,17.3,7.6,15.9,15.2c0,0.7-3.5,17.9-11,13.8c-4.1-2.1-2.1-11.7-8.3-13.8
		c-8.3-2.1-10.3,9.7-9.7,8.9c2.7-2.7,4.8,1.4,9.7,4.8c-17.9-4.1-12.4,12.4-11.7,10.3c0.7-2.7,4.1,0,10.3,0l-1.4,1.4
		c-0.7,1.4-1.4,2.7-2.1,4.1c-0.7,0.7,0,1.4,0,2.7c0,0.7,0.7,1.4,0.7,2.1c0,0,0,0,0.7,0.7c0,0,0,0.7,0.7,0.7c0.7,0-0.7-1.4,0.7-1.4
		c0,0,0.7,0,1.4,0s1.4,0.7,1.4,0.7c0.7,0,0.7,0,1.4,0c1.4,0,1.4,0,2.7,0c0.7,0,2.1-0.7,2.7-1.4c-1.4,0.7,1.4-1.4,1.4-0.7
		c1.4-2.1,2.1-1.4,2.1-2.1c2.1-3.5,3.5-4.1,7.6-3.5c0.7,0,1.4,0.7,1.4,1.4c0,0.7,1.4,2.7,0.7,2.1C479.9,281.3,481.3,282,481.3,284"
		/>
	<path class="st2" d="M353,120.6c-1.4-0.7-1.4-2.1-2.1-2.7l-0.7-0.7c-0.7-0.7-0.7-0.7-0.7-1.4c-0.7-2.7-0.7-5.5,2.1-6.9l0,0l0.7-0.7
		c0,0,0.7,0,0-0.7l0,0c0.7-0.7,0.7-1.4-0.7-2.1c0.7,0,1.4,0,2.1,0h0.7c2.7,0.7,6.2,1.4,6.9,4.1l0.7,1.4c2.7,6.9,2.1,23.5,17.9,27.6
		c8.3,2.1,17.3,4.8,25.6,4.8c-2.1,8.3-2.1,19.4,4.8,25.6c-9.7-5.5-16.5-4.1-24.8-12.4c-4.1-3.5-12.4-8.3-16.5-7.6
		c-2.1,0,2.7-5.5-1.4-6.9c-2.7-0.7-9.7-0.7-10.3,1.4c-5.5,8.3-11.7,8.3-13.8,10.3c2.1-2.1-8.9-11,4.8-16.5c1.4-0.7,2.1-3.5,0-4.1
		c-2.7-1.4-4.8,0.7-7.6,2.1c-3.5,2.1-4.1-4.8-8.9-2.7c-0.7-14.5,11.7-15.9,20-6.9c0.7,0.7,2.7,0,2.1-0.7L353,120.6z"/>
	<path d="M54.4,20.6v4.8c0,11,0.7,21.4,0.7,32.4c2.7,139.3,5.5,271,88.3,398c34.5,52.4,86.9,95.9,151.7,125.5l2.1,0.7l2.1-0.7
		C364,551,416.5,507.5,450.9,455.8c82.8-126.3,85.5-258,88.3-398c0-11,0.7-21.4,0.7-32.4v-4.8H54.4z M106.8,362.7l191-151L488.2,362
		c-4.8,12.4-10.3,24.8-15.9,37.2L297.8,261.3l-175.2,138C117.1,387.6,111.6,375.2,106.8,362.7z M443.3,450.3
		c-33.1,50.4-83.4,92.4-145.5,121.4c-62.8-28.9-113.1-71-146.2-121.4c-5.5-8.3-10.3-16.5-15.2-25.6l162.2-127.6L460,424.1
		C454.4,433.1,448.9,441.3,443.3,450.3z M530.2,57.2c-2.1,95.9-4.1,188.3-32.4,277.2l-200-157.9L97.1,335.2
		c-28.3-89-30.3-182.1-32.4-278c0-8.9-0.7-18.6-0.7-27.6H531C531,39.2,531,48.2,530.2,57.2z"/>
</g>
</svg>
